SplineFontDB: 3.2
FontName: Chaucer
FullName: Chaucer
FamilyName: Chaucer
Weight: Regular
Copyright: Copyright (c) 2021, Manos Pitsidianakis <epilys@nessuent.xyz>\n\nThis Font Software is licensed under the SIL Open Font License, Version 1.1.\n
UComments: "2021-5-26: Created with FontForge (http://fontforge.org)"
Version: 001.000
ItalicAngle: 0
UnderlinePosition: -100
UnderlineWidth: 50
Ascent: 800
Descent: 200
InvalidEm: 0
LayerCount: 2
Layer: 0 0 "Back" 1
Layer: 1 0 "Fore" 0
XUID: [1021 997 173001298 13311432]
StyleMap: 0x0040
FSType: 0
OS2Version: 0
OS2_WeightWidthSlopeOnly: 0
OS2_UseTypoMetrics: 1
CreationTime: 1622048329
ModificationTime: 1622325501
PfmFamily: 81
TTFWeight: 400
TTFWidth: 5
LineGap: 90
VLineGap: 0
Panose: 4 0 5 3 0 0 0 0 0 0
OS2TypoAscent: 0
OS2TypoAOffset: 1
OS2TypoDescent: 0
OS2TypoDOffset: 1
OS2TypoLinegap: 90
OS2WinAscent: 0
OS2WinAOffset: 1
OS2WinDescent: 0
OS2WinDOffset: 1
HheadAscent: 0
HheadAOffset: 1
HheadDescent: 0
HheadDOffset: 1
OS2Vendor: 'PfEd'
Lookup: 258 0 0 "kerning" { "kerning-1" [150,15,0] } ['kern' ('DFLT' <'dflt' > 'latn' <'dflt' > ) ]
MarkAttachClasses: 1
DEI: 91125

StartChar: K
Encoding: 75 75 0
Width: 798
Flags: HMW
LayerCount: 2
Fore
SplineSet
28 801 m 1
 759 801 l 1
 759 801 764 803 777 799 c 0
 792 793 784 777 784 777 c 1
 762 744 763 745 712 695 c 1
 601 612 l 1
 457 476 l 1
 457 476 447 470 444 456 c 0
 442 443 458 435 458 435 c 1
 458 435 508 418 558 376 c 0
 639 307 689 214 746 121 c 0
 794 42 794 0 794 0 c 1
 534 0 l 1
 534 30 l 2
 534 31 573 67 573 105 c 0
 573 137 554 166 554 166 c 1
 554 166 495 279 431 327 c 0
 396 354 393 364 328 377 c 0
 324 378 317 378 311 378 c 0
 302 378 293 377 293 377 c 1
 293 377 278 377 276 345 c 0
 274 333 272 288 272 240 c 0
 272 212 272 183 275 159 c 0
 275 129 283 94 283 94 c 1
 283 94 282.667820069 93.1141868512 282.667820069 91.2253205781 c 0
 282.667820069 85.0865051903 286.176470588 68.3529411765 316 37 c 0
 326 26 338 17 338 9 c 0
 338 8 338 7 338 6 c 0
 334 -2 323 -1 323 -1 c 1
 61 3 l 1
 61 31 68 31 94 65 c 1
 104 66 106 88 106 103 c 0
 106 110 106 115 106 115 c 1
 106 679 l 1
 106 679 106 684 104 700 c 0
 103 708 92 724 92 724 c 2
 75 761 23 768 16 786 c 0
 7 802 28 801 28 801 c 1
412 750 m 0
 406 751 387 752 367 752 c 0
 345 752 322 751 310 745 c 0
 283 732 284 732 257 687 c 1
 257 558 254 404 254 404 c 1
 254 404 303 406 324 420 c 0
 367 449 406 489 406 489 c 1
 406 489 512 601 520 619 c 0
 527 634 530 648 530 661 c 0
 530 691 513 713 497 724 c 0
 473 742 444 750 415 750 c 0
 414 750 413 750 412 750 c 0
EndSplineSet
Validated: 1
EndChar

StartChar: T
Encoding: 84 84 1
Width: 900
Flags: HMW
LayerCount: 2
Fore
SplineSet
265 817 m 2
 909 827 l 1
 909 827 920 828 927 820 c 0
 934 813 930 806 930 806 c 1
 930 806 856 683 838 632 c 0
 722 654 401 664 401 664 c 6
 377.058624112 588.755675782 369.112123327 495.606640629 369.112123327 414.996745214 c 4
 369.112123327 330.625108495 377.817592127 259.99022116 386 238 c 2
 386 238 424 167 478 144 c 0
 511 130 558 109 593 106 c 0
 595.709842987 105.849453167 598.448016411 105.778231556 601.207269673 105.778231556 c 0
 635.104427092 105.778231556 672.182929073 116.526913914 699 123 c 0
 729 130 770 148 792 167 c 0
 820 191 833 210 843 223 c 0
 858 241 862 243 879 243 c 0
 879.884309564 243.042109979 880.752659876 243.062940954 881.605050934 243.062940954 c 0
 900.994680249 243.062940954 912.126329938 232.284130353 915 216 c 0
 916.19047619 210.047619048 916.64399093 205.115646259 916.64399093 201.055609545 c 0
 916.64399093 188.063492063 912 184 912 184 c 1
 912 184 848 101 824 82 c 0
 758 29 703 12 603 0 c 2
 603 0 587.725308642 -1.05864197531 565.645061728 -1.05864197531 c 0
 530.947530864 -1.05864197531 479.444444444 1.55555555556 444 15 c 0
 381 40 302 75 253 127 c 0
 195 189 151 296 148 347 c 0
 147.880996642 352.593157815 147.790316883 357.917241446 147.790316883 363.105389724 c 0
 147.790316883 401.513895985 152.760134311 432.472295484 188 510 c 0
 215 569 245 583 271 620 c 0
 278.062257748 630.593386622 284.345211051 639.628164354 284.345211051 653.29593816 c 0
 284.345211051 655.110775488 284.234435563 657.007297715 284 659 c 2
 284 659 284.002267574 659.027210884 284.002267574 659.079689018 c 0
 284.002267574 660.129251701 283.095238095 671.285714286 245 677 c 0
 240.939693309 677.427400704 235.692022765 677.626462206 229.764468515 677.626462206 c 0
 207.954332159 677.626462206 176.939693309 674.931498239 162 671 c 0
 132 663 109 654 81 640 c 0
 54 626 49 589 15 584 c 0
 3 586 1 603 1 603 c 2
 1 643 14 668 51 709 c 0
 67 725 84 740 101 754 c 0
 130 777 202 815 265 817 c 2
EndSplineSet
Validated: 1
EndChar

StartChar: Y
Encoding: 89 89 2
Width: 933
Flags: MW
LayerCount: 2
Fore
SplineSet
884.592773438 820.677734375 m 0
 890.118164062 828.110351562 905.383789062 840.7890625 916.469726562 840.7890625 c 0
 922.635742188 840.7890625 927.508789062 836.868164062 928.696289062 825.943359375 c 0
 928.758789062 825.372070312 928.788085938 824.770507812 928.788085938 824.143554688 c 0
 928.788085938 812.578125 918.737304688 792.454101562 918.737304688 792.454101562 c 1
 593.625 76.7822265625 l 1
 593.625 76.7822265625 587.184570312 63.7255859375 584.075195312 11.4765625 c 0
 583.665039062 4.5947265625 583.491210938 -1.390625 583.491210938 -6.5947265625 c 0
 583.491210938 -36.828125 589.387695312 -40.681640625 589.387695312 -40.681640625 c 1
 589.387695312 -40.681640625 625.573242188 -64.1962890625 690.896484375 -64.6171875 c 0
 691.764648438 -64.623046875 692.624023438 -64.6259765625 693.475585938 -64.6259765625 c 0
 760.421875 -64.6259765625 773.483398438 -47.4794921875 773.483398438 -47.4794921875 c 1
 773.483398438 -47.4794921875 799.612304688 -25.15234375 811.247070312 -25.15234375 c 0
 813.232421875 -25.15234375 814.795898438 -25.802734375 815.735351562 -27.3251953125 c 1
 817.857421875 -28.84375 818.697265625 -31.1533203125 818.697265625 -33.861328125 c 0
 818.697265625 -44.216796875 806.397460938 -60.3935546875 806.397460938 -60.3935546875 c 1
 806.397460938 -60.3935546875 721.372070312 -164.579101562 695.374023438 -183.838867188 c 0
 678.260742188 -195.268554688 650.741210938 -206.298828125 617.361328125 -206.298828125 c 0
 614.764648438 -206.298828125 612.130859375 -206.232421875 609.46484375 -206.09375 c 0
 591.24609375 -205.147460938 538.237304688 -205.791015625 497.709960938 -192.926757812 c 0
 452.4375 -178.555664062 441.838867188 -166.666015625 428.465820312 -148.6640625 c 0
 424.498046875 -143.321289062 422.8359375 -138.225585938 422.8359375 -130.70703125 c 0
 422.8359375 -125.09375 423.762695312 -118.129882812 425.34765625 -108.704101562 c 0
 430.799804688 -84.7919921875 457.573242188 -73.33984375 478.171875 -36.8291015625 c 0
 483.8984375 -29.7548828125 485.904296875 -10.9453125 485.904296875 6.390625 c 0
 485.904296875 17.8076171875 485.03515625 28.5849609375 483.786132812 34.951171875 c 0
 459.139648438 92.6171875 245.217773438 598 245.217773438 598 c 1
 245.217773438 598 235.758789062 631.048828125 189.532226562 655.715820312 c 1
 175.180664062 658.4453125 158.736328125 659.873046875 142.258789062 659.873046875 c 0
 119.811523438 659.873046875 97.3037109375 657.223632812 79.94921875 651.60546875 c 0
 69.3671875 648.260742188 63.1962890625 634.327148438 55.3984375 634.327148438 c 0
 54.1533203125 634.327148438 52.8671875 634.681640625 51.515625 635.490234375 c 0
 49.2890625 636.506835938 48.3896484375 640.211914062 48.3896484375 645.440429688 c 0
 48.3896484375 660.15234375 55.50390625 686.921875 60.1484375 699.791992188 c 0
 90.263671875 783.228515625 109.125976562 808.123046875 161.12109375 827.287109375 c 0
 181.708007812 834.875 202.0703125 837.512695312 220.015625 837.512695312 c 0
 238.1015625 837.512695312 253.733398438 834.833984375 264.669921875 831.838867188 c 0
 299.905273438 820 309.641601562 802.1484375 328.401367188 783.08203125 c 0
 356.301757812 746.112304688 390.204101562 692.364257812 415.1953125 665.74609375 c 1
 432.645507812 679.349609375 438.381835938 694.3046875 452.01171875 712.711914062 c 0
 462.16015625 726.416992188 484.647460938 760.947265625 500.260742188 780.604492188 c 0
 544.625976562 836.465820312 614.8125 835.64453125 632.279296875 836.27734375 c 0
 703.453125 835.448242188 715.060546875 816.1015625 763.370117188 799.955078125 c 1
 784.266601562 795.21484375 796.858398438 793.780273438 806.448242188 793.780273438 c 0
 819.196289062 793.780273438 826.643554688 796.3125 841.24609375 796.98046875 c 0
 868.830078125 797.779296875 884.591796875 820.677734375 884.592773438 820.677734375 c 0
509.842773438 692.375 m 1
 474.392578125 678.791992188 461.268554688 659.814453125 450.39453125 634.346679688 c 0
 446.04296875 623.155273438 444.620117188 611.315429688 444.620117188 600.615234375 c 0
 444.620117188 580.356445312 449.721679688 564.174804688 449.721679688 564.174804688 c 1
 449.721679688 564.174804688 534.311523438 338.16015625 583.327148438 238.272460938 c 0
 588.766601562 229.803710938 593.806640625 226.17578125 599.176757812 226.17578125 c 0
 605.682617188 226.17578125 612.674804688 231.497070312 621.451171875 239.978515625 c 0
 634.8125 254.575195312 728.197265625 479.831054688 781.196289062 593.540039062 c 1
 782.680664062 599.71875 783.295898438 605.333984375 783.295898438 610.396484375 c 0
 783.295898438 634.78125 769.02734375 646.344726562 769.02734375 646.344726562 c 1
 769.02734375 646.344726562 766.096679688 653.702148438 737.735351562 653.702148438 c 0
 725.548828125 653.702148438 708.666992188 652.34375 685.306640625 648.459960938 c 0
 678.086914062 647.258789062 671.072265625 646.717773438 664.25390625 646.717773438 c 0
 601.220703125 646.717773438 554.829101562 692.983398438 517.078125 692.983398438 c 0
 514.630859375 692.983398438 512.219726562 692.7890625 509.842773438 692.375 c 1
EndSplineSet
Validated: 1
EndChar

StartChar: N
Encoding: 78 78 3
Width: 942
Flags: HMW
LayerCount: 2
Fore
SplineSet
59 -252 m 1
 59 -252 47 -242 49 -224 c 0
 50 -208 85 -176 85 -176 c 2
 145 -108 141 -52 151 324 c 2
 152 640 l 1
 152 640 147 652 143 661 c 0
 137 673 117 687 99 687 c 2
 60 687 l 1
 60 687 59.67 686.99 59.06 686.99 c 0
 53.57 686.99 25.4 687.8 11 704 c 0
 1 713 5 729 5 729 c 2
 4.97058823529 729.264705882 4.95588235294 729.548442907 4.95588235294 729.850422349 c 0
 4.95588235294 739.815743945 20.9705882353 769.647058824 53 791 c 0
 76 806 123 806 123 806 c 2
 176 806 225 805 277 805 c 2
 440 629 l 2
 656 396 676 378 704 378 c 2
 704 378 707 379 707 380 c 0
 708 382 708 387 708 387 c 1
 708 434 l 2
 708 457 708 544 708 607 c 2
 708 607 708.098765432 611.691358025 708.098765432 619.17558299 c 0
 708.098765432 645.37037037 706.888888889 705.777777778 696 719 c 0
 692 724 671 722 671 722 c 1
 671 722 626 724 615 733 c 0
 609 738 610 766 609 776 c 0
 609 783 616 794 622 798 c 0
 636.347826087 806.695652174 668.465028355 809.153119093 700.187720884 809.153119093 c 0
 741.427221172 809.153119093 782 805 782 805 c 1
 782 805 806.888888889 805.395061728 837.089163237 805.395061728 c 0
 874.839506173 805.395061728 920.888888889 804.777777778 937 802 c 0
 938.086956522 801.782608696 938.512287335 799.958412098 938.512287335 797.236294896 c 0
 938.512287335 787.436672968 933 766 933 766 c 1
 933 766 928 733 923 725 c 0
 921.8 723.2 909.44 722.84 899.744 722.84 c 0
 893.28 722.84 888 723 888 723 c 2
 883.197825187 722.815300969 877.918058124 722.767056866 872.437932836 722.767056866 c 0
 866.44357275 722.767056866 860.209488475 722.824779869 854.098510313 722.824779869 c 0
 835.548428904 722.824779869 818.132704598 722.292893219 812 718 c 0
 807 714 805 700 805 700 c 1
 805 352 l 1
 806 95 l 1
 806 95 810 77 814 64 c 0
 818.898979486 50.1195581242 823.797958971 24.9057829151 823.797958971 12.8535718005 c 0
 823.797958971 10.1448991636 823.550510257 8.10102051443 823 7 c 0
 820 1 813 -1 808 -1 c 0
 806 -1 795 -1 795 -1 c 1
 752 -1 l 2
 750.294438717 -0.844948974278 748.204224305 -0.786061230866 745.837455826 -0.786061230866 c 0
 738.359433562 -0.786061230866 728.120566438 -1.37393876913 718.530544174 -1.37393876913 c 0
 711.580224721 -1.37393876913 704.97071436 -1.06515307717 700 0 c 0
 687 3 683 8 686 25 c 0
 687 32 690 42 693 49 c 0
 700 64 708 92 708 92 c 1
 496 328 l 1
 287 535 l 1
 287 535 269 542 263 538 c 0
 257 534 256 523 256 523 c 1
 256 235 l 1
 256 235 264.74872449 142.447704082 264.74872449 57.3285349854 c 0
 264.74872449 17.0089285714 262.785714286 -21.6428571429 257 -48 c 0
 250 -79 227 -137 227 -137 c 1
 227 -137 204 -186 187 -209 c 0
 179 -219 158 -235 158 -235 c 2
 135.97157262 -248.079378757 106.834967317 -261.632636042 84.2911074443 -261.632636042 c 0
 74.0862148312 -261.632636042 65.2322328874 -258.855456176 59 -252 c 1
 59 -252 l 1
EndSplineSet
Validated: 1
EndChar

StartChar: G
Encoding: 71 71 4
Width: 870
Flags: HMW
LayerCount: 2
Fore
SplineSet
7 502 m 1
 50 657 111 741 285 809 c 1
 320 819 413 840 511 840 c 0
 586 840 663 828 719 789 c 0
 724 786 734 781 747 781 c 0
 758 781 772 785 787 796 c 0
 795 804 798 805 811 828 c 0
 813 832 818 837 821 836 c 0
 825 834 839 829 839 823 c 0
 839 813 835 781 834 776 c 0
 829 739 827 703 827 670 c 0
 827 614 833 566 843 537 c 0
 844 533 844 528 841 525 c 0
 840 523 821 517 819 517 c 0
 817 518 812 524 809 529 c 0
 799 553 794 574 745 643 c 0
 701 699 692 720 598 749 c 1
 573 752 549 756 516 756 c 0
 480 756 432 751 357 731 c 0
 253 705 177 596 177 469 c 0
 177 461 178 453 178 446 c 1
 183 317 201 219 297 137 c 0
 334 105 398 103 452 103 c 0
 457 103 462 103 467 103 c 0
 599 104 695 139 717 301 c 1
 717 304 717 306 717 309 c 0
 717 309.8 717.000236686 310.613017751 717.000236686 311.438488848 c 0
 717.000236686 364.268639053 716.030769231 468.107692308 590 475 c 0
 585 472 524 474 477 445 c 0
 450 429 432 397 419 369 c 1
 405 324 408 303 405 288 c 0
 405 285 383 285 382 289 c 0
 380 294 373 303 372 312 c 0
 371 321 371 335 371 352 c 0
 371 365 371 379 371 395 c 0
 372 407 372 422 372 437 c 0
 372 479 371 527 371 550 c 0
 371 557 371 562 371 564 c 1
 379 567 386 567 392 567 c 0
 396 567 399 562 401 557 c 0
 409 539 421 532 434 532 c 0
 439 532 444 533 450 535 c 0
 495 553 517 564 563 564 c 0
 579 564 598 563 622 560 c 0
 637 557 843 532 843 316 c 1
 827 141 742 1 464 1 c 0
 445 1 425 1 405 3 c 1
 147 26 -4 199 -4 405 c 0
 -4 437 -0 469 7 502 c 1
EndSplineSet
Validated: 1
EndChar

StartChar: H
Encoding: 72 72 5
Width: 775
Flags: HMW
LayerCount: 2
Fore
SplineSet
26 782 m 1
 26 782 l 1
 26 782 26 782 26 782 c 0
 24 784 27 798 29 798 c 2
 29 798 659 798 664 798 c 0
 669 798 670 782 670 773 c 0
 670 764 666 746 663 743 c 0
 658 741 635 742 635 742 c 1
 635 742 378 742 361 742 c 0
 331 742 289 692 289 692 c 1
 289 692 255 643 245 618 c 0
 243.5 612.5 242.75 597 242.75 581.375 c 0
 242.75 565.75 243.5 550 245 544 c 0
 248 542 270 538 276 537 c 0
 294 543 476 679 476 679 c 1
 476 679 486 687 495 685 c 0
 560 672 646 619 670 597 c 0
 706 564 744 493 759 436 c 0
 766.233031694 407.469708319 769.752220202 376.840287881 769.752220202 345.928515674 c 0
 769.752220202 299.913775834 761.954122648 253.273378507 747 212 c 0
 727 157 706 126 677 88 c 0
 662 68 644 50 625 35 c 0
 611 24 596 15 581 6 c 0
 566 -2 551 -5 540 -7 c 0
 534.872166581 -8.18334617361 529.277563773 -8.74433316206 523.89128574 -8.74433316206 c 0
 515.622359185 -8.74433316206 507.844410204 -7.42220510186 503 -5 c 0
 498 -2 489 6 485 16 c 0
 481 25 483 35 485 40 c 0
 487 46 493 46 508 44 c 0
 508.795349466 43.9431893239 509.584244026 43.915425724 510.36668368 43.915425724 c 0
 523.357001321 43.915425724 534.568106761 51.5681067614 544 61 c 0
 571 89 587 127 602 163 c 0
 614 190 621 219 625 249 c 0
 627.96197774 270.32623973 631.625820451 292.705276915 631.625820451 314.473984821 c 0
 631.625820451 329.452190321 629.891253423 344.141448633 625 358 c 0
 607 412 569 455 520 492 c 0
 493 513 465 530 415 541 c 0
 398.319700317 541.855399984 386.349778172 542.390677222 377.280979874 542.390677222 c 0
 343.942490494 542.390677222 349.810550231 535.15680013 305 510 c 0
 247.638554217 470.927710843 242.800841922 454.661779649 242.800841922 450.286129275 c 0
 242.800841922 449.398316156 243 449 243 449 c 1
 243 449 240.884297521 335.809917355 240.884297521 240.987978963 c 0
 240.884297521 205.429752066 241.181818182 172.454545455 242 149 c 0
 247 118 258 82 258 82 c 1
 258 82 277 28 280 22 c 0
 282 17 273 3 262 2 c 0
 215 2 135 5 37 5 c 0
 29 7 27 8 21 20 c 0
 15 34 20 37 20 37 c 1
 20 37 43 77 55 99 c 0
 66 116 67 146 67 146 c 1
 67 146 67 618 67 703 c 0
 63 735 48 757 26 782 c 1
EndSplineSet
Validated: 1
EndChar

StartChar: a
Encoding: 97 97 6
Width: 556
Flags: HMW
LayerCount: 2
Fore
SplineSet
315 580 m 5
 315 580 l 5
 321 579 342 579 357 572 c 4
 361 570 451 491 451 491 c 5
 451 491 455 489 457 481 c 4
 460 471 459 469 459 469 c 5
 464 159 l 5
 464 159 485 137 497 127 c 4
 507 119 522 109 531 103 c 4
 534 102 538 83 534 82 c 4
 526 76 439 7 426 2 c 4
 420 2 406 2 404 4 c 4
 401 5 393 18 393 18 c 5
 327 89 l 5
 314 94 l 5
 299 94 l 5
 274 88 l 5
 145 1 l 5
 128 -0 l 5
 84 -3 l 5
 84 -3 82 -4 79 -1 c 4
 75 3 74 4 74 4 c 5
 25 99 l 5
 18 117 l 5
 18 117 15 128 24 141 c 4
 47 174 75 214 119 243 c 6
 119 243 245 326 309 369 c 4
 310 369 311 378 311 387 c 4
 311 400 310 414 310 414 c 5
 293 433 l 5
 293 433 291 434 288 435 c 4
 284 436 266 436 245 436 c 4
 217 436 185 436 182 435 c 4
 181 435 179 433 179 433 c 5
 83 354 l 5
 83 354 75 349 73 349 c 4
 71 349 66 350 57 359 c 4
 46 371 47 368 48 377 c 4
 49 389 55 395 55 395 c 5
 55 395 187 532 271 571 c 4
 285 577 304 579 315 580 c 5
308 329 m 5
 300 320 l 5
 211 261 l 5
 211 261 177 217 167 191 c 4
 164 183 159 174 161 166 c 4
 165 146 182 131 197 118 c 4
 203 112 208 109 220 105 c 4
 231 105 308 125 308 125 c 5
 308 329 l 5
EndSplineSet
Validated: 5
EndChar

StartChar: l
Encoding: 108 108 7
Width: 324
Flags: HMW
LayerCount: 2
Fore
SplineSet
6 680 m 1
 9 681 183 806 183 806 c 1
 183 806 185.204081633 808.204081633 187.093294461 808.204081633 c 0
 187.408163265 808.204081633 187.714285714 808.142857143 188 808 c 0
 198 805 201 803 206 799 c 0
 208 798 210 794 210 793 c 0
 212.110100927 781.921970135 213.385353243 750.807573628 213.385353243 721.676995801 c 0
 213.385353243 695.586370775 212.362373842 671.087121525 210 664 c 0
 196 624 190 619 190 619 c 1
 190 214 l 1
 190 214 193 204 201 193 c 0
 221 167 280 120 280 120 c 1
 280 120 282 118 282 116 c 0
 283.632993162 107.01853761 285.265986324 93.3704085529 285.265986324 87.5752270703 c 0
 285.265986324 86.2727897533 285.183503419 85.3670068381 285 85 c 0
 282 80 281 79 281 79 c 1
 159 4 l 1
 159 4 157 3 154 3 c 0
 144 4 135 6 128 8 c 0
 127 8 125 10 125 10 c 1
 125 10 40 100 40 111 c 0
 40 138 40 545 40 545 c 1
 40 545 40.5 559.25 40.5 574 c 0
 40.5 588.75 40 604 38 606 c 0
 15 632 6 657 6 657 c 1
 6 657 4 659 4 660 c 0
 3.8 660.6 3.72 661.48 3.72 662.536 c 0
 3.72 666.76 5 673.8 5 677 c 0
 5 679 6 679 6 680 c 1
 6 680 l 1
EndSplineSet
Validated: 1
EndChar

StartChar: k
Encoding: 107 107 8
Width: 530
Flags: HMW
LayerCount: 2
Fore
SplineSet
325.153320312 -0.064453125 m 0
 321.072265625 -0.064453125 320.850585938 0.111328125 320.850585938 2.9091796875 c 0
 320.850585938 3.2490234375 320.854492188 3.62890625 320.854492188 4.05078125 c 0
 320.854492188 5.8115234375 321.09765625 7.5810546875 321.612304688 8.1904296875 c 0
 325.88671875 13.271484375 348.09765625 63.2666015625 354.04296875 84.689453125 c 0
 356.85546875 94.8271484375 358.116210938 105.465820312 358.116210938 116.276367188 c 0
 358.116210938 144.287109375 349.65234375 173.4453125 337.80078125 197.9921875 c 0
 326.2578125 221.896484375 279.598632812 257.151367188 279.598632812 257.151367188 c 1
 178.408203125 258.228515625 l 1
 178.25 99.74609375 l 1
 178.25 99.74609375 183.950195312 75.166015625 186.16796875 61.333984375 c 0
 191.013671875 31.1142578125 202.506835938 10.6015625 209.09765625 3.1796875 c 0
 209.780273438 2.4111328125 209.958007812 1.6630859375 209.958007812 1.0927734375 c 0
 209.958007812 0.474609375 209.75 0.06640625 209.75 0.06640625 c 1
 185.09375 0.1416015625 l 1
 41.2109375 0.04296875 l 1
 8.8310546875 0.2412109375 l 1
 8.8310546875 0.2412109375 7.2900390625 1.4658203125 7.2900390625 2.880859375 c 0
 7.2900390625 3.162109375 7.3505859375 3.451171875 7.49609375 3.7392578125 c 0
 12.517578125 13.666015625 26.4208984375 36.939453125 30.7802734375 53.0693359375 c 0
 34.06640625 65.2314453125 35.181640625 112.014648438 35.181640625 112.014648438 c 1
 33.82421875 563.674804688 l 1
 8.7431640625 684.395507812 l 1
 4 722 l 1
 4 722 3.12109375 725.509765625 3.12109375 728.760742188 c 0
 3.12109375 730.381835938 3.33984375 731.939453125 3.994140625 732.96484375 c 0
 36.7890625 747.3671875 147.859375 799.479492188 147.859375 799.479492188 c 1
 147.859375 799.479492188 148.88671875 799.936523438 150.288085938 799.936523438 c 0
 156.4296875 799.936523438 172.705078125 779.1640625 177.717773438 773.26953125 c 0
 178.9765625 771.783203125 179.23046875 769.89453125 179.23046875 768.614257812 c 0
 179.23046875 767.75 179.114257812 767.162109375 179.114257812 767.162109375 c 1
 179.16015625 442.5703125 l 1
 250.45703125 495.235351562 l 1
 318.350585938 556.525390625 l 1
 318.350585938 556.525390625 345.05078125 574.645507812 370.594726562 574.645507812 c 0
 373.845703125 574.645507812 377.077148438 574.3515625 380.233398438 573.690429688 c 0
 447.921875 559.502929688 483.053710938 461.434570312 483.053710938 461.434570312 c 1
 483.053710938 461.434570312 489.0625 446.68359375 489.0625 422.140625 c 0
 489.0625 415.852539062 488.668945312 408.922851562 487.677734375 401.43359375 c 0
 486.177734375 390.09375 464.374023438 362.272460938 464.374023438 362.272460938 c 1
 464.374023438 362.272460938 423.34375 316.78515625 388.8359375 295.939453125 c 1
 388.8359375 295.939453125 463.532226562 251.422851562 486.6640625 204.666015625 c 0
 507.33203125 162.887695312 506.33984375 97.728515625 512.5390625 73.125 c 0
 514.62890625 64.8359375 518.610351562 31.9306640625 520.881835938 25.7841796875 c 0
 524.361328125 16.3681640625 525.359375 11.0751953125 525.359375 7.2568359375 c 0
 525.359375 5.736328125 523.368164062 0.2421875 523.368164062 0.2421875 c 1
 334.5078125 0.21484375 l 1
 334.5078125 0.21484375 329.032226562 -0.064453125 325.153320312 -0.064453125 c 0
317.725585938 437.4453125 m 0
 299.515625 449.24609375 284.953125 456.669921875 269.241210938 456.669921875 c 0
 250.259765625 456.669921875 229.600585938 445.8359375 198.8046875 418.795898438 c 0
 182.291015625 404.295898438 178.950195312 384.84765625 178.950195312 384.84765625 c 1
 178.953125 281.893554688 l 1
 220.6015625 282.2890625 l 2
 221.000976562 282.3125 221.497070312 282.322265625 222.080078125 282.322265625 c 0
 225.994140625 282.322265625 233.840820312 281.859375 243.130859375 281.859375 c 0
 257.39453125 281.859375 275.060546875 282.951171875 287.118164062 288.485351562 c 0
 309.125 298.5859375 327.936523438 308.25390625 343.487304688 326.81640625 c 0
 355.0625 340.631835938 358.979492188 351.047851562 358.979492188 361.694335938 c 0
 358.979492188 366.69921875 358.11328125 371.755859375 356.770507812 377.239257812 c 0
 351.127929688 400.28125 334.796875 426.3515625 317.725585938 437.4453125 c 0
EndSplineSet
Validated: 1
EndChar

StartChar: i
Encoding: 105 105 9
Width: 305
Flags: W
HStem: 554 20G<136 164.5>
VStem: 64 170<134 373.928>
LayerCount: 2
Fore
SplineSet
278 807 m 5
 279.076696831 802.693212678 279.638159855 788.339366124 279.638159855 771.150218228 c 0
 279.638159855 740.445249393 277.846606339 700.693212678 274 693 c 6
 74 632 l 5
 74 632 63 649 61 658 c 4
 59 666 59 687 59 687 c 5
 59 687 80 689 98 701 c 4
 138 727 201 772 233 796 c 4
 251 805 278 807 278 807 c 5
150 574 m 5
 179 554 195 534 224 506 c 6
 234 134 l 5
 281 104 l 5
 281 104 282 104 282 103 c 4
 282 101 282 95 282 94 c 4
 282 93 281 92 281 92 c 5
 157 3 l 5
 157 3 156 2 155 2 c 4
 155 2 152 3 151 4 c 4
 150 4 149 5 149 5 c 5
 121 36 l 5
 67 82 l 5
 67 82 67 83 66 84 c 4
 65 85 65 88 64 91 c 4
 64 92 64 93 64 94 c 4
 64 138.470588235 66.9896193772 289.570934256 66.9896193772 378.123753308 c 0
 66.9896193772 415.020761246 66.4705882353 441.058823529 65 444 c 4
 54 457 32 481 32 481 c 5
 32 481 31 482 31 483 c 4
 31 487 32 496 32 500 c 4
 32 501 33 502 33 502 c 5
 136 565 l 5
 150 574 l 5
EndSplineSet
Validated: 5
EndChar

StartChar: u
Encoding: 117 117 10
Width: 642
Flags: W
HStem: 555 20G<42 224 570.593 571.481>
VStem: 72 162<144.664 495.25> 415 153<81 84.951 144.434 477>
LayerCount: 2
Fore
SplineSet
38 572 m 6
 39 574 l 6
 40 575 41 575 43 575 c 6
 216 575 l 5
 216 575 221 575 224 571 c 4
 226 568 234 552 236 547 c 4
 236.5 545.75 236.6875 543.4375 236.6875 540.671875 c 0
 236.6875 532.375 235 520 235 520 c 5
 234 485 l 5
 234 485 234 215 234 174 c 4
 242 150 268 135 285 122 c 4
 293.333333333 119.222222222 315.555555556 118.604938272 333.66255144 118.604938272 c 0
 348.148148148 118.604938272 360 119 360 119 c 5
 360 119 390 133 400 144 c 4
 408 153 415 179 415 179 c 5
 415 521 l 5
 415 521 415 523 416 524 c 4
 417 526 420 531 421 533 c 4
 422 534 423 535 423 535 c 5
 460 540 l 5
 460 540 524 551 535 556 c 4
 548 562 570 575 570 575 c 5
 570 575 570 575.444444444 571.185185185 575.444444444 c 0
 571.777777778 575.444444444 572.666666667 575.333333333 574 575 c 4
 579 574 597 561 601 558 c 4
 602.8 556.8 603.16 556.32 603.16 556.128 c 0
 603.16 556 603 556 603 556 c 5
 569 477 l 5
 568 81 l 5
 438 -33 l 5
 438 -33 418 -26 416 4 c 4
 415 19 414.75 38 414.75 53.25 c 0
 414.75 68.5 415 80 415 80 c 5
 415 80 415 84 413 85 c 4
 408.495097568 87.252451216 402.97548784 88.2872536767 397.355402289 88.2872536767 c 0
 390.5 88.2872536767 383.495097568 86.747548784 378 84 c 4
 372 81 337 48 337 48 c 5
 284 -2 l 5
 284 -2 281 -5 279 -6 c 4
 277 -8 275 -9 273 -10 c 4
 272.333333333 -10.3333333333 271.777777778 -10.4444444444 271.333333333 -10.4444444444 c 0
 270.444444444 -10.4444444444 270 -10 270 -10 c 5
 242 -10 l 6
 240 -10 228 -9 221 -8 c 4
 212 -6 202 -3 194 -1 c 4
 190 0 180 4 180 4 c 6
 154 16 143 21 111 57 c 4
 75 103 72 143 72 143 c 5
 72 441 l 5
 64 503 l 5
 64 503 60 525 50 537 c 4
 48 539 32 554 32 554 c 4
 31.9235635442 554.076436456 31.8880248108 554.228825825 31.8880248108 554.446450129 c 0
 31.8880248108 557.075952913 37.0764364558 569.229309367 38 572 c 6
EndSplineSet
Validated: 1
EndChar

StartChar: o
Encoding: 111 111 11
Width: 535
Flags: W
HStem: -6 146.996<216.474 301.611> 452.222 119.778<213.536 297.225>
VStem: 5.75 65.25<272.586 393.322> 448.298 71.4373<192.476 324.907>
LayerCount: 2
Fore
SplineSet
316 572 m 6
 344 568 391 540 391 540 c 5
 391 540 419 518 430 503 c 4
 443 486 456 469 466 451 c 4
 481 424 491 396 502 368 c 4
 512 342 516 302 519 275 c 4
 519.485281374 269.90454557 519.735064736 265.044589153 519.735064736 260.320133299 c 0
 519.735064736 245.573593129 517.30151519 232.147186258 512 217 c 4
 502 187 495 180 475 156 c 4
 427 100 325 29 287 7 c 4
 273 0 249 -6 242 -6 c 4
 229 -2 213 7 202 15 c 4
 145 56 88 90 48 147 c 4
 31 172 19 201 12 230 c 4
 7 251.5 5.75 283.25 5.75 310.5 c 0
 5.75 337.75 7 360.5 7 364 c 4
 7 371 33 404 44 417 c 4
 64 440 97 466 98 471 c 4
 132 499 154 513 193 541 c 4
 201 545 222 554 230 557 c 4
 258 570 280 571 316 572 c 6
234 452 m 6
 227.666666667 452 219.555555556 452.222222222 210.888888889 452.222222222 c 0
 193.555555556 452.222222222 174 451.333333333 162 446 c 4
 142 437 123 426 107 410 c 4
 97 400 84 383 84 383 c 5
 84 383 71 352 71 337 c 4
 71 319 72 314 79 298 c 4
 98 252 138 210 180 178 c 4
 218.982349398 158.508825301 275.772787444 140.996327118 321.446266897 140.996327118 c 0
 332.011753222 140.996327118 341.982349398 141.93345507 351 144 c 4
 379 150 416 174 434 196 c 4
 445.484471682 209.511143155 448.297771369 236.257233037 448.297771369 258.356343659 c 0
 448.297771369 268.969654731 447.648885685 278.511143155 447 285 c 4
 440 307 435 318 408 346 c 4
 390 365 372 383 349 400 c 4
 335 410 306 426 291 434 c 4
 273 443 254 452 234 452 c 6
EndSplineSet
Validated: 1
EndChar

StartChar: p
Encoding: 112 112 12
Width: 621
Flags: HMW
LayerCount: 2
Fore
SplineSet
438 563 m 6
 438 563 484 540 509 520 c 4
 533 501 544 470 544 470 c 5
 544 470 599 297 599 283 c 4
 599 274 593 129 522 69 c 4
 505 54 399 -25 386 -29 c 4
 376 -32 334 -35 311 -35 c 4
 304 -35 298 -35 296 -34 c 4
 292 -33 245 22 238 29 c 4
 236 31 233 31 231 31 c 4
 221 31 212 18 212 18 c 5
 211 -22 211 -57 211 -91 c 4
 211 -121 212 -150 212 -179 c 4
 212 -180 213 -187 213 -192 c 4
 213 -195 213 -197 212 -197 c 4
 210 -198 206 -200 204 -200 c 4
 196 -200 184 -199 170 -199 c 4
 127 -199 68 -200 68 -200 c 5
 68 -200 66 -199 65 -197 c 4
 61 -187 53 -166 53 -144 c 4
 53 -141 53 -138 53 -135 c 4
 54 -122 56 36 56 167 c 4
 56 262 55 344 54 346 c 4
 43 365 12 414 12 414 c 5
 12 416 11 426 11 433 c 4
 11 437 12 440 12 441 c 5
 163 556 l 5
 163 556 182 571 187 572 c 4
 188 572 l 4
 195 572 214 561 214 561 c 6
 214.333333333 561 214.444444444 560.777777778 214.444444444 560.444444444 c 0
 214.444444444 559.777777778 214 558.666666667 214 558 c 4
 214 551 210 533 210 532 c 6
 210 532 199 506 197 490 c 4
 196 482 196 468 196 456 c 4
 196 444 196 434 196 434 c 5
 196 434 196 430 202 425 c 4
 206 422 209 421 210 421 c 4
 211 421 212 421 212 421 c 5
 331 558 l 5
 331 558 335 563 337 564 c 4
 343 567 342 576 374 576 c 4
 387 576 438 563 438 563 c 6
378 397 m 5
 319 404 l 5
 319 404 300 406 285 406 c 4
 282 406 280 406 278 406 c 4
 268 405 235 384 223 377 c 4
 211 370 211 360 211 360 c 5
 212 250 l 5
 212 250 213 174 218 170 c 4
 234 158 366 85 366 85 c 5
 366 85 394 81 416 81 c 4
 418 81 421 81 423 81 c 4
 447 82 465 98 465 98 c 5
 465 98 501 131 509 163 c 4
 510.8 170.2 511.16 178.12 511.16 186.544 c 0
 511.16 192.16 511 198 511 204 c 4
 511 226 510 250 507 266 c 4
 501 297 501 312 488 331 c 4
 449 387 378 397 378 397 c 5
EndSplineSet
Validated: 1
EndChar

StartChar: e
Encoding: 101 101 13
Width: 441
Flags: W
VStem: 7 137.918<297.408 442.553>
LayerCount: 2
Fore
SplineSet
240 606 m 5
 241 606 244 606 247 606 c 4
 261 606 286 603 291 599 c 4
 329 565 389 527 424 488 c 4
 424.5 486 424.75 481 424.75 475.875 c 0
 424.75 470.75 424.5 465.5 424 463 c 4
 416 455 268 316 189 241 c 5
 189 241 184 217 184 206 c 4
 184 194 201 184 213 174 c 4
 229 162 245 150 265 144 c 4
 286 141 295 140 306 139 c 4
 325 140 376 155 381 166 c 4
 381.828427125 166.828427125 385.916738879 167.313708499 390.493290601 167.313708499 c 0
 396.965512115 167.313708499 404.414213562 166.343145751 405 164 c 4
 405.177124344 163.291502622 405.260129589 162.614378278 405.260129589 161.946399255 c 0
 405.260129589 158.843134833 403.468626967 155.937253933 401 151 c 4
 383 122 323 12 320 5 c 4
 315 -4 316 -3 311 -5 c 4
 306 -6 301 -6 296 -6 c 4
 280 -6 262 -3 246 0 c 4
 169 18 98 59 45 135 c 4
 9.23404255319 192.574468085 6.95110909914 210.578089633 6.95110909914 214.236469761 c 0
 6.95110909914 214.771842463 7 215 7 215 c 5
 7 393 l 5
 7 393 17 429 21 439 c 4
 32 474 222 604 240 606 c 5
218 490 m 4
 211 490 191 478 172 451 c 4
 155 427 148 428 146 407 c 5
 145 338 l 5
 145 338 144.918367347 335.632653061 144.918367347 331.970845481 c 0
 144.918367347 322.816326531 145.428571429 305.571428571 149 297 c 4
 151 292 159 284 159 284 c 5
 198 314 l 5
 232.078514132 346.131170467 285.117765006 393.430930328 285.117765006 405.130057546 c 0
 285.117765006 405.446402923 285.078984503 405.736718323 285 406 c 5
 285 406 267 444 257 457 c 4
 247 471 225 490 218 490 c 4
EndSplineSet
Validated: 1
EndChar

StartChar: g
Encoding: 103 103 14
Width: 630
Flags: W
HStem: -178.504 82.8086<198.276 351.016> 451.726 114.087<238.89 336.664>
VStem: 6.02539 124.134<203.771 369.557> 392.552 134.516<243.706 373.104> 406.617 124.387<-40.4625 55.0328>
LayerCount: 2
Fore
SplineSet
581.313476562 593.424804688 m 0xe8
 584.735351562 588.27734375 609.19140625 551.41796875 617.095703125 528.172851562 c 0
 622.16015625 512.05078125 629.017578125 488.546875 629.017578125 472.677734375 c 0
 629.017578125 466.642578125 628.026367188 461.713867188 625.565429688 458.712890625 c 0
 605.451171875 434.176757812 564.530273438 430.184570312 540.02734375 430.184570312 c 0
 528.205078125 430.184570312 520.204101562 431.11328125 520.204101562 431.11328125 c 1
 520.204101562 431.11328125 514.56640625 434.98828125 514.873046875 417.155273438 c 0
 515.356445312 389.05859375 527.067382812 351.668945312 527.067382812 338.383789062 c 0xf0
 527.067382812 329.045898438 522.44140625 293.594726562 515.650390625 285.745117188 c 0
 507.284179688 276.073242188 459.376953125 244.9453125 451.633789062 235.627929688 c 1
 447.987304688 225.993164062 451.997070312 212.126953125 451.997070312 212.126953125 c 1
 451.997070312 212.126953125 531.00390625 154.774414062 531.00390625 39.158203125 c 0
 531.00390625 30.9775390625 530.609375 22.5068359375 529.76171875 13.7421875 c 0
 524.734375 -38.296875 477.821289062 -79.4755859375 477.821289062 -79.4755859375 c 1
 413.215820312 -126.518554688 l 1
 413.215820312 -126.518554688 339.663085938 -178.50390625 228.8359375 -178.50390625 c 0
 214.15625 -178.50390625 198.821289062 -177.591796875 182.91796875 -175.525390625 c 0
 105.3046875 -165.444335938 14.3544921875 -111.513671875 14.3544921875 -111.513671875 c 2
 10.8203125 -110.008789062 9.193359375 -93.5654296875 11.8974609375 -91.712890625 c 0
 71.9169921875 -50.5810546875 84.150390625 -43.6123046875 127.766601562 -16.158203125 c 0
 131.887695312 -13.537109375 139.9765625 -18.072265625 145.258789062 -16.2353515625 c 1
 145.258789062 -16.2353515625 183.6953125 -69.0361328125 211.985351562 -82.58203125 c 0
 231.497070312 -91.9228515625 258.7421875 -95.6953125 285.318359375 -95.6953125 c 0
 312.319335938 -95.6953125 338.629882812 -91.80078125 355.438476562 -85.896484375 c 0
 402.125 -69.4892578125 403.31640625 -50.267578125 405.993164062 -23.6806640625 c 0
 406.416015625 -19.4677734375 406.6171875 -15.3671875 406.6171875 -11.37109375 c 0
 406.6171875 42.6669921875 369.92578125 77.2158203125 353.598632812 104.880859375 c 0
 342.990234375 122.853515625 345.102539062 121.873046875 340.9453125 120.84765625 c 0
 321.024414062 115.9296875 263.6796875 80.8173828125 263.6796875 80.8173828125 c 1
 154.649414062 2.9462890625 l 1
 154.649414062 2.9462890625 153.163085938 -0.962890625 139.4921875 9.2861328125 c 0
 70.77734375 60.794921875 32.6708984375 112.727539062 10.5673828125 202.545898438 c 0
 7.2158203125 216.16796875 6.025390625 230.533203125 6.025390625 245.154296875 c 0
 6.025390625 249.840820312 6.146484375 254.552734375 6.3603515625 259.274414062 c 0
 8.4150390625 305.030273438 14.2197265625 338.89453125 21.4921875 377.931640625 c 0
 24.56640625 394.428710938 33.19140625 407.852539062 33.19140625 407.852539062 c 1
 242.173828125 548.4609375 l 1
 242.173828125 548.4609375 271.208984375 560.909179688 297.942382812 564.013671875 c 0
 303.09375 564.609375 316.120117188 565.8125 330.471679688 565.8125 c 0
 345.540039062 565.8125 362.0703125 564.485351562 372.477539062 559.734375 c 0
 393.548828125 550.118164062 460.8828125 482.056640625 460.8828125 482.056640625 c 1
 491.629882812 500.8515625 l 1
 491.629882812 500.8515625 528.385742188 524.274414062 541.021484375 541.5 c 0
 550.999023438 555.10546875 553.045898438 573.340820312 560.18359375 581.490234375 c 0
 565.564453125 587.629882812 568.583984375 588.8984375 572.577148438 591.41796875 c 0
 581.149414062 596.81640625 579.290039062 595.612304688 581.313476562 593.424804688 c 0xe8
224.28515625 444.670898438 m 1
 136.897460938 369.583007812 l 1
 136.897460938 369.583007812 130.159179688 334.432617188 130.159179688 290.294921875 c 0
 130.159179688 272.005859375 131.31640625 252.174804688 134.587890625 232.662109375 c 1
 158.146484375 181.615234375 222 125 222 125 c 1
 247.911132812 122.122070312 l 1
 293.5078125 149.534179688 336.188476562 179.86328125 379.696289062 209.364257812 c 1
 379.696289062 209.364257812 392.047851562 229.215820312 392.44140625 240.389648438 c 0
 392.515625 242.510742188 392.551757812 244.690429688 392.551757812 246.923828125 c 0
 392.551757812 273.391601562 387.44140625 307.499023438 380.327148438 341.9765625 c 0
 374.426757812 370.581054688 352.788085938 425.580078125 325.16015625 437.98046875 c 0
 301.592773438 448.55859375 280.700195312 451.725585938 264.12890625 451.725585938 c 0
 239.393554688 451.725585938 224.28515625 444.670898438 224.28515625 444.670898438 c 1
EndSplineSet
Validated: 1
EndChar

StartChar: s
Encoding: 115 115 15
Width: 541
Flags: W
HStem: -28.5918 81.624<192.243 328.92> 270.517 33.1592<246.757 313.558>
VStem: 46.9785 123.123<334.956 459.393> 381.158 140.686<121.868 207.164>
LayerCount: 2
Fore
SplineSet
137.000976562 531.821289062 m 0
 168.615234375 551.547851562 251.190429688 578.610351562 251.190429688 578.610351562 c 1
 251.190429688 578.610351562 273.05859375 584.469726562 305.78515625 584.469726562 c 0
 345.017578125 584.469726562 399.854492188 576.049804688 451.331054688 539.020507812 c 0
 487.685546875 512.870117188 516.15625 443.693359375 516.15625 443.693359375 c 2
 518.922851562 438.7734375 513.46484375 430.396484375 512.591796875 428.047851562 c 1
 370.38671875 371.594726562 l 1
 363.364257812 373.659179688 355.258789062 376.61328125 355.594726562 385.333984375 c 0
 355.952148438 394.560546875 358.178710938 405.118164062 358.178710938 414.064453125 c 0
 358.178710938 416.436523438 358.022460938 418.694335938 357.6328125 420.78515625 c 0
 354.119140625 439.650390625 351.271484375 461.048828125 337.98828125 474.896484375 c 0
 321.37890625 492.208984375 271.4140625 502.241210938 271.4140625 502.241210938 c 1
 271.4140625 502.241210938 214.779296875 499.310546875 194.661132812 482.140625 c 0
 181.302734375 470.741210938 177.129882812 451.083007812 173.4609375 433.908203125 c 0
 171.174804688 423.206054688 170.1015625 412.833007812 170.1015625 402.922851562 c 0
 170.1015625 372.08203125 180.497070312 345.713867188 197.094726562 327.787109375 c 0
 204.791015625 319.4765625 203.072265625 318.264648438 222.0703125 309.999023438 c 0
 226.9921875 307.859375 234.53125 304.735351562 241.3125 303.61328125 c 0
 243.33984375 303.657226562 245.427734375 303.67578125 247.547851562 303.67578125 c 0
 260.009765625 303.67578125 273.545898438 303.03125 281.984375 303.03125 c 0
 282.756835938 303.03125 283.485351562 303.037109375 284.166992188 303.048828125 c 0
 338.290039062 326.630859375 380.83203125 346.427734375 437.278320312 370.736328125 c 0
 442.63671875 373.043945312 452.607421875 368.5234375 456.66796875 366.247070312 c 1
 456.66796875 366.247070312 481.616210938 342.435546875 497.493164062 313.982421875 c 1
 514.266601562 270.811523438 521.84375 227.451171875 521.84375 191.17578125 c 0
 521.84375 182.142578125 521.374023438 173.548828125 520.458984375 165.506835938 c 0
 515.739257812 123.997070312 499.2734375 99.8974609375 473.88671875 66.7197265625 c 0
 457.23046875 44.9501953125 417.622070312 10.2021484375 406.405273438 3.4443359375 c 0
 385.619140625 -9.080078125 350.786132812 -27.017578125 313.830078125 -28.591796875 c 0
 305.192382812 -28.9677734375 272.778320312 -31.1298828125 240.455078125 -31.1298828125 c 0
 224.224609375 -31.1298828125 208.016601562 -30.5849609375 194.853515625 -28.9951171875 c 0
 167.170898438 -25.677734375 134.295898438 -22.998046875 109.833984375 -8.8173828125 c 0
 98.3896484375 -2.181640625 63.041015625 25.4091796875 45.3662109375 49.638671875 c 0
 29.30859375 71.6572265625 13.76953125 102.338867188 13.6376953125 124.984375 c 0
 13.548828125 139.662109375 23.8681640625 144.484375 23.8681640625 144.484375 c 1
 113.721679688 181.081054688 l 1
 113.721679688 181.081054688 135.203125 190.93359375 139.8515625 189.025390625 c 0
 142.510742188 186.537109375 145.446289062 179.216796875 145.823242188 174.044921875 c 0
 146.71484375 162.1875 149.263671875 136.036132812 159.038085938 116.770507812 c 0
 168.91015625 97.3154296875 198.89453125 64.5419921875 208.8828125 59.525390625 c 0
 220.954101562 55.2900390625 251.752929688 53.0322265625 273.51953125 53.0322265625 c 0
 278.922851562 53.0322265625 283.76953125 53.171875 287.634765625 53.4541015625 c 0
 312.12109375 55.2470703125 367.259765625 103.6171875 372.185546875 111.962890625 c 0
 377.109375 120.30859375 379.182617188 139.286132812 379.182617188 139.286132812 c 1
 379.182617188 139.286132812 381.158203125 158.331054688 381.158203125 175.4453125 c 0
 381.158203125 184.984375 380.544921875 193.922851562 378.6328125 198.62890625 c 1
 364.706054688 211.689453125 307.271484375 262.98828125 291.69140625 269.99609375 c 1
 283.508789062 270.240234375 271.455078125 270.516601562 261.5625 270.516601562 c 0
 255.094726562 270.516601562 249.55078125 270.3984375 246.6171875 270.075195312 c 0
 238.060546875 269.139648438 219.797851562 253.638671875 205.463867188 248.33984375 c 0
 193.962890625 244.0859375 128.391601562 219.423828125 102.97265625 210.749023438 c 0
 96.5966796875 208.99609375 86.984375 219.849609375 85.037109375 223.215820312 c 0
 75.177734375 240.298828125 59.3720703125 268.412109375 57.0458984375 277.020507812 c 0
 51.728515625 296.696289062 46.978515625 332.83984375 46.978515625 366.997070312 c 0
 46.978515625 387.638671875 48.712890625 407.555664062 53.10546875 422.673828125 c 0
 58.7705078125 442.163085938 68.1005859375 460.879882812 80.1005859375 477.247070312 c 0
 95.6484375 498.418945312 110.545898438 515.310546875 137.000976562 531.821289062 c 0
EndSplineSet
Validated: 1
EndChar

StartChar: v
Encoding: 118 118 16
Width: 543
Flags: W
HStem: 455 118<302 406.5>
VStem: 408 118<281 420.426>
LayerCount: 2
Fore
SplineSet
421 572 m 5
 428 571 452 559 456 555 c 4
 468 544 505 511 516 480 c 4
 523 460 526 434 526 414 c 4
 526 406 526 400 525 395 c 4
 517 328 497 294 497 294 c 5
 497 294 412 146 354 84 c 4
 322 56 270 11 247 -4 c 4
 246 -5 245 -5 244 -5 c 4
 241 -5 239 -4 236 -3 c 4
 235 -3 235 -2 235 -2 c 4
 229 19 214 75 205 105 c 4
 175 210 123 386 114 419 c 4
 85 452 31 486 27 490 c 4
 21 496 15 505 13 515 c 4
 12 520 11 525 11 530 c 4
 11 534 12 539 13 543 c 4
 15 550 20 555 26 558 c 4
 30 560 40 560 40 560 c 5
 160 563 l 5
 160 563 174 562 180 559 c 4
 188 556 200 547 206 542 c 4
 210 539 211 534 211 534 c 5
 237 457 l 5
 348 552 l 5
 348 552 360 563 367 565 c 4
 384 571 393 573 404 573 c 4
 409 573 414 573 421 572 c 5
307 455 m 5
 297 455 263 432 263 432 c 5
 263 432 256 429 256 419 c 4
 256 417 256 414 257 411 c 4
 271 368 307 231 330 172 c 4
 333 164 338 156 340 155 c 4
 344 154 345 154 345 154 c 5
 400 237 l 5
 400 237 408 267 408 295 c 4
 408 325 401 392 381 432 c 4
 370 455 320 455 307 455 c 5
EndSplineSet
Validated: 5
EndChar

StartChar: c
Encoding: 99 99 17
Width: 488
Flags: W
HStem: 560.195 20G<273.754 303.735>
VStem: 48.1533 160.701<163.125 402>
LayerCount: 2
Fore
SplineSet
303.735351562 580.1953125 m 1
 303.735351562 580.186523438 l 1
 303.735351562 580.186523438 305.1328125 582.232421875 323.650390625 579.044921875 c 0
 341.154296875 576.030273438 341.84765625 573.850585938 341.84765625 573.850585938 c 1
 431.677734375 479.689453125 l 1
 431.677734375 479.689453125 432.911132812 478.79296875 433.77734375 475.510742188 c 0
 435.44921875 469.189453125 438.276367188 454.49609375 438.32421875 447.958984375 c 0
 438.33984375 446.055664062 437.501953125 445.145507812 437.501953125 445.145507812 c 1
 348.111328125 373.711914062 l 1
 348.111328125 373.711914062 346.919921875 372.024414062 344.314453125 371.875976562 c 0
 340.298828125 371.615234375 331.473632812 373.151367188 328.048828125 375.264648438 c 0
 326.203125 376.405273438 324.854492188 378.704101562 324.854492188 378.704101562 c 1
 248.8671875 445.66796875 l 1
 248.8671875 445.66796875 244.41796875 453.490234375 230.51171875 452.467773438 c 0
 224.7890625 452.048828125 222.90234375 451.024414062 218.397460938 443.373046875 c 0
 213.114257812 434.3984375 212.397460938 422.3046875 212.397460938 422.3046875 c 1
 212.397460938 422.3046875 208.854492188 297.224609375 208.854492188 229.725585938 c 0
 208.854492188 215.106445312 209.020507812 203.188476562 209.424804688 195.827148438 c 0
 215.556640625 169.5546875 230.52734375 145.783203125 244.502929688 136.66015625 c 0
 256.096679688 129.090820312 262.30078125 127.627929688 279.872070312 124.426757812 c 0
 298.00390625 121.123046875 321.705078125 117.263671875 344.145507812 117.263671875 c 0
 370.118164062 117.263671875 394.401367188 122.43359375 406.407226562 139.616210938 c 0
 410.224609375 145.083007812 422.125976562 153.5234375 430.439453125 158.209960938 c 0
 432.329101562 159.254882812 432.2265625 159.180664062 432.767578125 158.733398438 c 0
 438.069335938 154.1953125 442.965820312 138.733398438 443.961914062 134.26953125 c 0
 444.26953125 132.892578125 444.170898438 132.837890625 444.170898438 132.837890625 c 1
 444.170898438 132.837890625 432.850585938 88.9970703125 410.084960938 61.7646484375 c 0
 393.569335938 42.0078125 329.663085938 13.53125 329.663085938 13.53125 c 1
 329.663085938 13.53125 292.9140625 3.232421875 247.280273438 3.232421875 c 0
 227.48828125 3.232421875 206.025390625 5.169921875 185.1640625 10.724609375 c 0
 151.63671875 19.65234375 121.6953125 52.7587890625 112.88671875 60.2900390625 c 0
 76.806640625 91.134765625 48.1533203125 163.125 48.1533203125 163.125 c 1
 52.74609375 402 l 1
 52.74609375 402 52.5654296875 402.752929688 53.5 404.254882812 c 0
 55.4072265625 407.311523438 61.0703125 415.993164062 62.9775390625 419.052734375 c 0
 63.9658203125 420.658203125 64.240234375 420.43359375 64.240234375 420.43359375 c 1
 303.735351562 580.1953125 l 1
EndSplineSet
Validated: 1
EndChar

StartChar: comma
Encoding: 44 44 18
Width: 196
Flags: W
HStem: -109.678 316.269
VStem: 63.6331 122.228<18.7335 125.26>
LayerCount: 2
Fore
SplineSet
13.994140625 111.565429688 m 2
 23.8154296875 114.838867188 76.7587890625 185.6640625 94 202 c 0
 101.68359375 209.279296875 115.899414062 206.590820312 115.899414062 206.590820312 c 1
 116.777015933 205.440010402 185.861332529 138.620998533 185.861332529 111.899027114 c 0
 185.861332529 93.9322737385 177.364342814 70.075535874 166.50390625 52.6181640625 c 0
 151.3671875 28.2861328125 32.8544921875 -109.677734375 32.8544921875 -109.677734375 c 1
 32.8544921875 -109.677734375 29.8212890625 -111.252929688 17.3828125 -99.5849609375 c 0
 4.5654296875 -87.5625 7.431640625 -83.7041015625 7.431640625 -83.7041015625 c 1
 7.431640625 -83.7041015625 50.61328125 -27.62109375 60.1796875 -1.185546875 c 0
 62.7978963379 6.04899615218 63.6330919033 14.6918278709 63.6330919033 22.7752234959 c 0
 63.6330919033 37.0210349592 61.0390625 49.529296875 61.0390625 49.529296875 c 1
 18.064453125 100.58984375 l 1
 18.064453125 100.58984375 11.90234375 110.869140625 13.9921875 111.565429688 c 2
 13.994140625 111.565429688 l 2
EndSplineSet
Validated: 1
EndChar

StartChar: period
Encoding: 46 46 19
Width: 181
Flags: W
HStem: 1.58579 209.414<60.0015 88.9993>
VStem: -1 159.097<102 117.855>
LayerCount: 2
Fore
SplineSet
75 211 m 6
 87 211 l 6
 88 211 89 210 89 210 c 5
 89 210 105 181 113 172 c 4
 125 157 137 149 148 137 c 4
 153 131 156 123 156 123 c 6
 157.49627094 120.306712308 158.097011189 116.986553134 158.097011189 113.521906833 c 0
 158.097011189 105.408949745 154.802983248 96.5037290602 152 93 c 6
 81 5 l 5
 81 5 79 2 78 2 c 4
 76.5355339059 1.70710678119 74.9852813742 1.58578643763 73.4246212025 1.58578643763 c 0
 69.6568542495 1.58578643763 65.8284271247 2.29289321881 63 3 c 4
 62 3 60 5 60 5 c 5
 20 78 l 5
 -0 102 l 5
 -0 102 -1 102 -1 103 c 4
 -1 106 -1 115 0 118 c 4
 1 119 l 5
 1 119 39 153 42 158 c 4
 44 162 53 175 58 189 c 4
 62 198 73 210 73 210 c 5
 73 210 74 211 75 211 c 6
EndSplineSet
Validated: 1
EndChar

StartChar: colon
Encoding: 58 58 20
Width: 171
Flags: W
VStem: -1.0918 162.036
LayerCount: 2
Fore
SplineSet
77.3076171875 497.13671875 m 2
 88.97265625 496.975585938 l 2
 91.1005859375 496.950195312 91.3583984375 495.950195312 91.3583984375 495.950195312 c 1
 91.3583984375 495.950195312 108.771484375 466.6796875 116.575195312 456.848632812 c 0
 129.05859375 441.123046875 141.336914062 433.422851562 152.859375 420.86328125 c 0
 158.137695312 415.119140625 160.944335938 405.786132812 160.944335938 405.786132812 c 2
 160.944335938 393.764648438 160.530273438 380.211914062 156.8359375 374.703125 c 2
 83.173828125 283.081054688 l 1
 83.173828125 283.081054688 81.830078125 280.786132812 80.4892578125 280.592773438 c 0
 75.783203125 279.75390625 68.662109375 280.4140625 63.98828125 281.419921875 c 0
 62.78125 281.734375 61.4365234375 283.440429688 61.4365234375 283.440429688 c 1
 19.849609375 359.190429688 l 1
 -1.091796875 383.9765625 l 1
 -1.091796875 383.9765625 -1.939453125 384.95703125 -1.8876953125 385.598632812 c 0
 -1.6640625 388.208007812 -2.017578125 398.416015625 -0.6953125 401.172851562 c 0
 -0.4873046875 401.6796875 0 402 0 402 c 1
 0 402 38.892578125 437.302734375 43.1435546875 442.426757812 c 0
 45.5810546875 446.314453125 54.197265625 460.461914062 59.7119140625 474.469726562 c 0
 63.5 484.095703125 75.087890625 496.405273438 75.087890625 496.405273438 c 1
 75.087890625 496.405273438 75.8076171875 497.153320312 77.3076171875 497.13671875 c 2
78.732421875 224.05859375 m 2
 90.396484375 223.891601562 l 2
 92.5263671875 223.866210938 92.7822265625 222.866210938 92.7822265625 222.866210938 c 1
 92.7822265625 222.866210938 110.1953125 193.595703125 117.999023438 183.763671875 c 0
 130.483398438 168.0390625 142.728515625 160.337890625 154.250976562 147.778320312 c 0
 159.528320312 142.034179688 162.369140625 132.701171875 162.369140625 132.701171875 c 2
 162.369140625 120.6796875 161.920898438 107.127929688 158.227539062 101.619140625 c 2
 84.564453125 9.9970703125 l 1
 84.564453125 9.9970703125 83.25390625 7.701171875 81.9140625 7.5087890625 c 0
 77.2080078125 6.6748046875 70.0537109375 7.3671875 65.37890625 8.3740234375 c 0
 64.1728515625 8.6953125 62.8271484375 10.3623046875 62.8271484375 10.3623046875 c 1
 21.2412109375 86.1123046875 l 1
 0.298828125 110.8984375 l 1
 0.298828125 110.8984375 -0.5478515625 111.879882812 -0.4970703125 112.520507812 c 0
 -0.2734375 115.129882812 -0.6259765625 125.336914062 0.6953125 128.094726562 c 0
 0.8994140625 128.600585938 1.42578125 128.921875 1.42578125 128.921875 c 1
 1.42578125 128.921875 40.3173828125 164.2578125 44.5693359375 169.380859375 c 0
 47.005859375 173.26953125 55.58984375 187.3828125 61.103515625 201.391601562 c 0
 64.8916015625 211.016601562 76.4794921875 223.327148438 76.4794921875 223.327148438 c 1
 76.4794921875 223.327148438 77.2333984375 224.075195312 78.732421875 224.05859375 c 2
EndSplineSet
Validated: 1
EndChar

StartChar: semicolon
Encoding: 59 59 21
Width: 178
Flags: W
VStem: 48.3878 119.822<27.5456 120.348>
LayerCount: 2
Fore
SplineSet
81.6181640625 489.575195312 m 6
 93.126953125 489.416015625 l 6
 95.2255859375 489.390625 95.48046875 488.404296875 95.48046875 488.404296875 c 5
 95.48046875 488.404296875 112.661132812 459.524414062 120.360351562 449.826171875 c 4
 132.676757812 434.310546875 144.791015625 426.712890625 156.161132812 414.321289062 c 4
 161.3671875 408.653320312 164.137695312 399.4453125 164.137695312 399.4453125 c 6
 164.137695312 387.584960938 163.727539062 374.213867188 160.083007812 368.778320312 c 6
 87.4052734375 278.381835938 l 5
 87.4052734375 278.381835938 86.0791015625 276.116210938 84.7568359375 275.92578125 c 4
 83.2765663507 275.661736528 81.5539534659 275.548200794 79.7445191977 275.548200794 c 0
 75.8790142335 275.548200794 71.6172736165 276.066355469 68.4755859375 276.7421875 c 4
 67.2861328125 277.052734375 65.9580078125 278.735351562 65.9580078125 278.735351562 c 5
 24.9287109375 353.473632812 l 5
 4.265625 377.927734375 l 5
 4.265625 377.927734375 3.47913734662 378.838259217 3.47913734662 379.470442578 c 0
 3.47913734662 379.490013675 3.4798911119 379.509318011 3.4814453125 379.528320312 c 4
 3.7001953125 382.103515625 3.353515625 392.173828125 4.6572265625 394.893554688 c 4
 4.859375 395.39453125 5.34375 395.709960938 5.34375 395.709960938 c 5
 5.34375 395.709960938 43.716796875 430.541992188 47.91015625 435.595703125 c 4
 50.314453125 439.432617188 58.81640625 453.390625 64.2568359375 467.2109375 c 4
 67.9951171875 476.708007812 79.427734375 488.854492188 79.427734375 488.854492188 c 5
 79.427734375 488.854492188 80.1229303406 489.57547152 81.5690364574 489.57547152 c 0
 81.5853171223 489.57547152 81.6016929641 489.575380137 81.6181640625 489.575195312 c 6
94.43359375 212.82421875 m 5
 94.43359375 212.8046875 l 5
 94.6535483205 212.807810779 94.8706846016 212.809296745 95.0847592359 212.809296745 c 0
 99.2884066004 212.809296745 102.311523438 212.236328125 102.311523438 212.236328125 c 5
 102.311523438 212.236328125 156.54296875 142.428710938 168.125 121.87109375 c 4
 168.182110248 120.891824117 168.210080069 119.890772367 168.210080069 118.870287567 c 0
 168.210080069 101.25429647 159.87536474 77.8474589535 149.227539062 60.7333984375 c 4
 134.388671875 36.8828125 18.2255859375 -98.3525390625 18.2255859375 -98.3525390625 c 5
 18.2255859375 -98.3525390625 18.0881487068 -98.4248198633 17.7513511089 -98.4248198633 c 0
 16.5207687441 -98.4248198633 12.6287123775 -97.459866423 3.0546875 -88.478515625 c 4
 -5.61584308342 -80.3457237068 -6.95964280381 -76.0113746661 -6.95964280381 -74.1057504223 c 0
 -6.95964280381 -73.2497227445 -6.6884765625 -72.8837890625 -6.6884765625 -72.8837890625 c 5
 -6.6884765625 -72.8837890625 35.6240234375 -17.916015625 45 8 c 4
 47.5687326891 15.0976277885 48.3877581982 23.5797407073 48.3877581982 31.5114052096 c 0
 48.3877581982 45.47157174 45.8505859375 57.7265625 45.8505859375 57.7265625 c 6
 3.708984375 107.779296875 l 5
 3.708984375 107.779296875 -0.493261983939 114.03057245 -0.493261983939 117.419223089 c 0
 -0.493261983939 117.842415456 -0.427722417092 118.220961416 -0.2802734375 118.537109375 c 4
 5.958984375 131.915039062 54.34375 186.594726562 75.470703125 206.612304688 c 4
 80.7666015625 211.629882812 88.59765625 212.774414062 94.43359375 212.82421875 c 5
EndSplineSet
Validated: 1
EndChar

StartChar: r
Encoding: 114 114 22
Width: 466
Flags: W
HStem: 563 20G<98.4884 132>
VStem: 85 150<18.8789 436.279>
LayerCount: 2
Fore
SplineSet
125 583 m 5
 125 583 126 583 128 583 c 4
 136 582 162 570 168 565 c 4
 172 562 171 563 172 562 c 4
 175 559 233 464 233 464 c 5
 233 464 295 541 320 568 c 4
 337 586 339 589 346 590 c 4
 346.52370179 590.058189088 347.108351038 590.085904446 347.746657764 590.085904446 c 0
 358.077877308 590.085904446 382.465512702 582.825432737 390 580 c 4
 395 578 395 574 395 574 c 5
 440 464 l 5
 440 464 440 462 440 461 c 4
 439 456 436 436 435 434 c 4
 434 433 434 433 434 433 c 5
 434 433 376 379 345 347 c 4
 328 329 308 302 308 302 c 5
 308 302 308 302 307 302 c 4
 305 304 296 308 295 310 c 4
 294.666666667 310.333333333 294.555555556 310.777777778 294.555555556 311.222222222 c 0
 294.555555556 312.111111111 295 313 295 313 c 5
 296 414 l 5
 296 414 276.254847645 438.232686981 262.272634495 438.232686981 c 0
 261.495844875 438.232686981 260.736842105 438.157894737 260 438 c 4
 243 434 235 419 235 419 c 5
 235 419 235 84 235 69 c 4
 235 59 245 23 255 9 c 4
 255.2 8.6 255.28 8.08 255.28 7.504 c 0
 255.28 5.2 254 2 254 2 c 5
 60 2 l 5
 60 2 58.72 6.48 58.72 9.296 c 0
 58.72 10 58.8 10.6 59 11 c 4
 67 23 85 68 85 68 c 5
 85 382 l 5
 85 382 77 422 64 437 c 4
 51 451 14 464 14 464 c 5
 14 464 13 465 11 468 c 4
 9 472 9 485 9 491 c 4
 9 496 11 497 11 497 c 5
 125 583 l 5
EndSplineSet
Validated: 5
EndChar

StartChar: t
Encoding: 116 116 23
Width: 388
Flags: W
HStem: 473 92<185 345.999>
VStem: 30.2222 154.778<186.568 473>
LayerCount: 2
Fore
SplineSet
-33 507 m 5
 147 711 l 5
 147 711 147.734693878 713.204081633 149.833819242 713.204081633 c 0
 150.183673469 713.204081633 150.571428571 713.142857143 151 713 c 4
 154 712 181 706 184 705 c 4
 186 704 186 701 186 701 c 5
 186 701 183.884297521 631.710743802 183.884297521 591.993238167 c 0
 183.884297521 577.099173554 184.181818182 566.363636364 185 565 c 4
 356 565 l 5
 356 565 356.888888889 565.444444444 358.074074074 565.444444444 c 0
 358.666666667 565.444444444 359.333333333 565.333333333 360 565 c 4
 361 565 368 562 369 560 c 4
 369 559 369 557 369 557 c 5
 369 557 366 527 362 513 c 4
 359 503 350 487 346 479 c 4
 346 478 345 478 345 478 c 4
 344 477 341 473 340 473 c 4
 185 473 l 5
 185 218 l 5
 185 218 185 198 191 186 c 4
 195 177 215 155 222 147 c 4
 233 134 246 132 246 132 c 5
 307 131 l 5
 307 131 307.48 131.16 308.12 131.16 c 0
 309.08 131.16 310.4 130.8 311 129 c 4
 311.809016994 124.145898034 313.272542486 114.710236587 313.272542486 110.22416861 c 0
 313.272542486 109.165151615 313.190983006 108.381966011 313 108 c 4
 312 105 311 103 311 103 c 5
 170 1 l 5
 170 1 137 6 113 27 c 4
 89 48 65 75 47 101 c 4
 28.8181818182 127.363636364 27.9917355372 143.809917355 27.9917355372 146.582268971 c 0
 27.9917355372 146.859504132 28 147 28 147 c 5
 28 147 30.2222222222 291.888888889 30.2222222222 388.481481481 c 0
 30.2222222222 436.777777778 29.6666666667 473 28 473 c 4
 19 473 -24 473 -24 473 c 5
 -24 473 -26 473 -27 474 c 4
 -29 478 -34 501 -34 504 c 4
 -34 506 -33 507 -33 507 c 5
EndSplineSet
Validated: 5
EndChar

StartChar: d
Encoding: 100 100 24
Width: 610
Flags: W
HStem: 6.09912 132.4<173.382 288.857> 473.145 66.502<280.793 314.432> 562.947 20G<207.143 208.277>
VStem: 6.51352 114.612<214.289 396.964> 359.466 159.244<178.762 221.879 222.03 310.703 551.236 634.197>
LayerCount: 2
Fore
SplineSet
524.286132812 757.022460938 m 1
 524.2890625 756.993164062 l 1
 524.2890625 756.993164062 522.47956972 728.122050675 518.915039062 714.048828125 c 0
 517.934435499 710.177279942 517.613261396 650.414582184 517.613261396 573.780268168 c 0
 517.613261396 428.251416269 518.771484375 221.879882812 518.771484375 221.879882812 c 1
 518.771484375 221.879882812 518.70955886 220.274767963 518.70955886 217.650403411 c 0
 518.70955886 208.649500354 519.43799833 187.659004434 525.891601562 178.315429688 c 0
 538.184570312 160.517578125 579.908799794 133.82200134 587.196289062 132.40625 c 0
 587.98046875 132.25390625 588.021849469 132.189104998 588.536132812 131.720703125 c 0
 589.185295604 131.12945499 590.904457996 125.967105919 590.904457996 123.83372739 c 0
 590.904457996 123.556899265 590.875511135 123.33107225 590.811523438 123.172851562 c 2
 590.811523438 123.172851562 590.812312292 123.168152425 590.812312292 123.15734101 c 0
 590.812312292 123.081465535 590.77345841 122.704538553 590.150390625 121.538085938 c 0
 582.331054687 106.899414063 564.52901694 78.3882036905 559.24609375 70.5283203125 c 0
 554.247070312 63.0908203125 513.060120112 6.70461653463 504.9765625 0.119140625 c 0
 503.938476562 -0.7265625 502.505346705 -3.68790828771 499.209960938 -4.791015625 c 0
 498.807682114 -4.92567564759 498.285318945 -4.98594795284 497.673019407 -4.98594795284 c 0
 493.716113699 -4.98594795284 486.003265906 -2.4688428989 482.670898438 -1.244140625 c 0
 480.680664062 -0.5126953125 479.334158585 1.05251317804 477.012695312 2.365234375 c 0
 462.305664062 10.681640625 448.818954583 18.6812367928 441.685546875 25.41796875 c 0
 374.09981342 89.2453832248 370.238471978 121.030558987 370.238471978 127.461062502 c 0
 370.238471978 128.290634984 370.302734375 128.698242188 370.302734375 128.698242188 c 1
 370.302734375 128.698242188 314.916980857 103.063489674 299.16015625 89.4462890625 c 0
 289.25 80.8818359375 253.103396916 35.0992698075 234 24 c 0
 215.36328125 13.171875 212.599440714 12.0308170765 197.08984375 7.21875 c 0
 194.641646035 6.45916278128 191.735190112 6.09911660881 188.454886419 6.09911660881 c 0
 158.308720076 6.09911660881 96.588461612 36.5075660115 68.810546875 66.669921875 c 0
 34.259765625 104.186523438 8.42575985715 192.859578218 6.9765625 206.625976562 c 0
 6.6504647293 209.723685642 6.51351997684 220.274346809 6.51351997684 234.902179274 c 0
 6.51351997684 285.2822401 8.13795676046 384.025651178 9.25390625 393.217773438 c 0
 20.595703125 486.640625 205.288085938 582.00390625 205.288085938 582.00390625 c 1
 205.288085938 582.00390625 206.014095851 582.947338926 208.271144754 582.947338926 c 0
 208.282611637 582.947338926 208.294118038 582.947314575 208.305664062 582.947265625 c 0
 208.357982551 582.947043819 208.411011674 582.946933966 208.464737979 582.946933966 c 0
 214.088091274 582.946933966 227.349162646 584.150390625 232.825195312 584.150390625 c 0
 234.733398438 584.150390625 236.358398438 582.756835938 236.358398438 582.756835938 c 1
 236.358398438 582.756835938 320.017968846 539.882986243 340.857421875 539.646484375 c 2
 340.857421875 539.646484375 345.322697378 537.705860569 349.338057257 537.705860569 c 0
 351.27399014 537.705860569 353.105339632 538.156960746 354.28125 539.494140625 c 0
 357.919921875 543.631835938 358.323242188 551.022460938 358.323242188 551.022460938 c 2
 359.917102966 555.568372146 360.617791654 560.310050717 360.617791654 565.218746768 c 0
 360.617791654 598.394573585 328.611428059 639.199497693 324.022460938 678.7578125 c 2
 324.022460938 678.7578125 320.82065337 690.299079228 320.82065337 697.580897186 c 0
 320.82065337 699.203114561 320.979556953 700.613938324 321.368164062 701.638671875 c 0
 323.525390625 707.327148438 327.190465712 719.786068129 335.801757812 724.58203125 c 0
 351.803710938 733.494140625 419.742636472 733.474100222 431.221679688 734.643554688 c 0
 446.827148438 736.233398438 476.416015625 757.813476562 476.416015625 757.813476562 c 1
 476.416015625 757.813476562 478.955491909 760.015547182 481.787875769 760.015547182 c 0
 481.820785061 760.015547182 481.853733896 760.015249903 481.88671875 760.014648438 c 0
 490.294921875 759.861328125 513.723468385 759.473122435 522.131835938 759.329101562 c 0
 524.056721409 759.296131585 524.327817844 758.120323847 524.327817844 757.460547506 c 0
 524.327817844 757.201830544 524.286132812 757.022460938 524.286132812 757.022460938 c 1
266.3046875 473.14453125 m 2
 266.303710938 473.14453125 l 2
 253.119140625 473.14453125 218.569335938 465.958007812 218.569335938 465.958007812 c 2
 208.238048379 464.402607953 185.84547562 440.361517284 152.180664062 408.336914062 c 0
 127.432606209 384.794624752 121.125238883 335.175398254 121.125238883 297.62381257 c 0
 121.125238883 276.112656962 123.194994389 258.561484137 125.053710938 252.140625 c 0
 130.157226562 234.510742188 151.663166793 195.366317927 173.827148438 172.537109375 c 0
 197.05859375 148.608398438 236.730026669 142.622079128 269.868164062 138.865234375 c 0
 272.049740859 138.617910718 274.246156301 138.498654333 276.455756372 138.498654333 c 0
 301.257675474 138.498654333 327.720753388 153.524013445 353.505859375 171.114257812 c 0
 358.679100263 174.643371536 359.465711644 180.446960803 359.465711644 187.451327199 c 0
 359.465711644 190.512264187 359.315490421 193.802516708 359.315490421 197.232478386 c 0
 359.315490421 197.664547115 359.317874159 198.098832775 359.323242188 198.53515625 c 0
 359.418318485 206.263136382 369.425867509 261.658518391 369.425867509 313.117647289 c 0
 369.425867509 340.41321827 366.610161985 366.601292341 358.005859375 383.98046875 c 0
 329.828125 440.89453125 304.228515625 473.14453125 266.3046875 473.14453125 c 2
EndSplineSet
Validated: 1
EndChar

StartChar: b
Encoding: 98 98 25
Width: 482
Flags: W
VStem: 4.5791 138.768<209.426 422 463.318 629.473> 373.746 104.501<194.732 364.442>
LayerCount: 2
Fore
SplineSet
136.099609375 756.446289062 m 1
 136.099609375 756.509765625 l 2
 136.451171875 756.68359375 136.571289062 756.755859375 136.850585938 756.755859375 c 0
 137.047851562 756.755859375 137.326171875 756.719726562 137.821289062 756.658203125 c 0
 137.823242188 756.658203125 137.825195312 756.658203125 137.828125 756.658203125 c 0
 140.96484375 756.658203125 155.609375 751.645507812 159.612304688 749.653320312 c 0
 160.329101562 749.29296875 160.447265625 749.07421875 160.447265625 748.969726562 c 0
 160.447265625 748.91796875 160.418945312 748.89453125 160.418945312 748.89453125 c 1
 160.418945312 748.89453125 160.374023438 729.208984375 155.640625 717.3515625 c 0
 148.321289062 699.01171875 143.974609375 665.890625 143.974609375 665.890625 c 1
 142.360351562 463.318359375 l 1
 254.237304688 546.264648438 l 1
 254.237304688 546.264648438 290.576171875 569.696289062 304.477539062 570.440429688 c 0
 306.168945312 570.530273438 307.831054688 570.573242188 309.465820312 570.573242188 c 0
 338.119140625 570.573242188 358.051757812 557.2421875 374.81640625 547.713867188 c 0
 407.904296875 528.909179688 444.850585938 474.80078125 444.850585938 474.80078125 c 1
 444.850585938 474.80078125 476.350585938 418.3671875 478.146484375 352.323242188 c 0
 478.213867188 349.848632812 478.247070312 347.171875 478.247070312 344.321289062 c 0
 478.247070312 311.489257812 473.83203125 255.62109375 466.162109375 220.577148438 c 0
 461.673828125 200.068359375 455.037109375 184.263671875 455.037109375 184.263671875 c 1
 455.037109375 184.263671875 451.23046875 174.493164062 447.459960938 170.455078125 c 0
 429.142578125 150.841796875 386.270507812 109.15625 362.501953125 91.1005859375 c 0
 357.546875 87.3369140625 347.627929688 82.125 347.627929688 82.125 c 1
 192.764648438 7.4423828125 l 1
 192.764648438 7.4423828125 192.220703125 6.921875 190.555664062 6.7734375 c 0
 190.434570312 6.76171875 190.291992188 6.755859375 190.12890625 6.755859375 c 0
 187.057617188 6.755859375 176.879882812 8.80078125 173.814453125 9.583984375 c 0
 172.889648438 9.822265625 170.970703125 11.3544921875 170.970703125 11.3544921875 c 1
 170.970703125 11.3544921875 46.80078125 87.955078125 24.994140625 108.2421875 c 0
 19.14453125 113.685546875 14.255859375 120.501953125 10.87109375 127.611328125 c 0
 7.271484375 135.170898438 4.5791015625 151.712890625 4.5791015625 151.712890625 c 1
 4.7353515625 629.47265625 l 1
 4.7353515625 629.47265625 2.05078125 645.193359375 -7.376953125 661.095703125 c 0
 -7.8857421875 661.958007812 -8.68359375 662.75390625 -8.9736328125 663.638671875 c 0
 -9.2587890625 664.49609375 -9.3515625 667.03515625 -9.3515625 669.681640625 c 0
 -9.3515625 672.764648438 -9.2255859375 675.993164062 -9.1298828125 676.876953125 c 0
 -8.9501953125 678.55078125 -7.86328125 678.625 -7.86328125 678.625 c 1
 136.099609375 756.446289062 l 1
225.510742188 465.440429688 m 1
 180.97265625 446.369140625 l 1
 144 422 l 1
 143.346679688 209.42578125 l 1
 143.346679688 209.42578125 150.92578125 191.424804688 159.890625 180.510742188 c 0
 172.022460938 165.743164062 197.702148438 152.782226562 197.702148438 152.782226562 c 1
 197.702148438 152.782226562 225.97265625 142.573242188 249.986328125 137.740234375 c 0
 251.780273438 137.37890625 256.936523438 137.053710938 263.815429688 137.053710938 c 0
 280.93359375 137.053710938 308.715820312 139.06640625 321.86328125 147.5390625 c 0
 348.5234375 164.720703125 365.110351562 194.704101562 365.110351562 194.704101562 c 1
 365.110351562 194.704101562 373.74609375 232.431640625 373.74609375 267.090820312 c 0
 373.74609375 275.506835938 373.237304688 283.741210938 371.971679688 291.2109375 c 0
 364.69140625 334.185546875 355.450195312 393.655273438 284.493164062 440.799804688 c 0
 265.318359375 453.5390625 225.510742188 465.440429688 225.510742188 465.440429688 c 1
EndSplineSet
Validated: 1
EndChar

StartChar: y
Encoding: 121 121 26
Width: 613
Flags: W
HStem: 410.522 167.27<343.491 451.824>
LayerCount: 2
Fore
SplineSet
189.630859375 569.983398438 m 5
 189.630859375 570.030273438 l 5
 211.50390625 564.555664062 213.337890625 550.848632812 222.462890625 528.532226562 c 4
 235.974609375 495.491210938 263.059570312 411.783203125 263.059570312 411.783203125 c 5
 275.682617188 427.985351562 297.237304688 438.564453125 308.182617188 456 c 4
 332.828125 495.259765625 355.842773438 532.2734375 383.80859375 569.90625 c 6
 383.80859375 569.90625 383.798828125 569.927734375 383.798828125 569.96875 c 0
 383.798828125 570.349609375 384.635742188 572.448242188 401.697265625 575.70703125 c 4
 409.563476562 577.209960938 424.26171875 577.791992188 440.290039062 577.791992188 c 0
 463.358398438 577.791992188 489.181640625 576.5859375 501.364257812 575.181640625 c 4
 511.416992188 574.0234375 508.38671875 574.87109375 519.360351562 565.153320312 c 4
 528.62890625 556.943359375 533.491210938 547.149414062 541.899414062 537.27734375 c 4
 550.305664062 527.404296875 592.002929688 480.5390625 603.516601562 445.55078125 c 4
 606.790039062 435.60546875 608.216796875 424.978515625 608.216796875 414.333984375 c 0
 608.216796875 406.30078125 607.404296875 398.256835938 605.958984375 390.48828125 c 4
 600.537109375 361.336914062 588.76953125 331.900390625 577.668945312 304.405273438 c 4
 570.568359375 286.817382812 550.534179688 255.634765625 550.534179688 255.634765625 c 5
 206.698242188 -258.381835938 l 5
 206.698242188 -258.381835938 196.131835938 -272.208007812 183.498046875 -272.208007812 c 0
 183.092773438 -272.208007812 182.685546875 -272.193359375 182.275390625 -272.1640625 c 4
 165.724609375 -270.977539062 111.221679688 -261.30078125 100.420898438 -248.705078125 c 4
 97.8876953125 -245.750976562 97.1240234375 -243.28125 97.1240234375 -241.376953125 c 0
 97.1240234375 -238.479492188 98.8935546875 -236.889648438 98.8935546875 -236.889648438 c 5
 228.806640625 -57.36328125 l 5
 228.806640625 -57.36328125 237.174804688 -39.8046875 238.673828125 -30.330078125 c 4
 239.022460938 -28.130859375 239.15625 -25.412109375 239.15625 -22.5244140625 c 0
 239.15625 -12.7841796875 237.627929688 -1.13671875 237.627929688 -1.13671875 c 5
 112.74609375 339.184570312 l 5
 75.046875 411.625976562 l 5
 75.046875 411.625976562 65.6220703125 432.28125 45.6787109375 457.688476562 c 4
 36.74609375 469.067382812 -17.40625 517.0390625 -17.40625 517.0390625 c 5
 -17.40625 517.0390625 -21.41796875 519.15625 -21.5849609375 523.932617188 c 4
 -21.6923828125 527.294921875 -21.7548828125 530.500976562 -21.7548828125 533.555664062 c 0
 -21.7548828125 547.252929688 -20.494140625 557.922851562 -16.34375 566.133789062 c 4
 -14.2548828125 570.2578125 -7.228515625 570.905273438 -3.0244140625 570.905273438 c 0
 -1.1025390625 570.905273438 0.2294921875 570.76953125 0.2294921875 570.76953125 c 5
 189.630859375 569.983398438 l 5
329.833007812 409.021484375 m 5
 329.833007812 409.020507812 l 5
 329.833007812 409.020507812 303.046875 382.155273438 293.118164062 371.004882812 c 4
 286.676757812 363.770507812 286.12890625 355.373046875 286.12890625 352.725585938 c 0
 286.12890625 352.182617188 286.151367188 351.880859375 286.151367188 351.880859375 c 5
 348.478515625 127.595703125 l 5
 348.478515625 127.595703125 353.578125 108 359.50390625 100.01171875 c 4
 361.625 97.1552734375 365.139648438 93.6845703125 368.229492188 93.6845703125 c 0
 369.11328125 93.6845703125 369.962890625 93.9677734375 370.734375 94.6318359375 c 4
 394.165039062 114.76171875 405.556640625 151.375976562 425.1171875 196.158203125 c 4
 437.412109375 224.3046875 446.58984375 264.115234375 446.58984375 295.966796875 c 0
 446.58984375 301.287109375 446.333984375 306.385742188 445.79296875 311.169921875 c 4
 442.974609375 336.13671875 439.623046875 372.006835938 420.193359375 393.440429688 c 4
 407.377929688 407.578125 378.759765625 410.522460938 357.139648438 410.522460938 c 0
 341.702148438 410.522460938 329.833007812 409.021484375 329.833007812 409.021484375 c 5
EndSplineSet
Validated: 1
EndChar

StartChar: n
Encoding: 110 110 27
Width: 615
Flags: W
HStem: 432.192 47.6169<234.623 286.292>
VStem: 72.9593 166.348<53.0645 415.636> 404 165.438<50 331.001>
LayerCount: 2
Fore
SplineSet
6.140625 477.926757812 m 1
 10.8232421875 486.508789062 105.354492188 579.840820312 105.354492188 579.840820312 c 1
 105.354492188 579.840820312 108.318853224 582.750155959 109.556640625 582.645507812 c 0
 114.327148438 582.2421875 126.990838309 582.376132483 131.345703125 581.3515625 c 0
 133.749023438 580.786132812 135.6953125 579.185546875 135.6953125 579.185546875 c 1
 135.6953125 579.185546875 186.314721087 547.230584384 202.784179688 528.462890625 c 0
 219.168135372 509.79263131 215.774713625 479.808574368 234.622944702 479.808574368 c 0
 235.885505375 479.808574368 237.247866011 479.943115078 238.72265625 480.224609375 c 0
 270.6640625 486.321289062 336.338937053 550.489238521 381.310546875 581.341796875 c 0
 390.163085938 587.415039062 385.863238882 585.789733495 394.16015625 586.79296875 c 0
 398.166015625 587.27734375 402.591738535 587.654030807 406.228515625 585.903320312 c 0
 412.998046875 582.64453125 421.01953125 575.186523438 421.01953125 575.186523438 c 1
 541.008789062 488.049804688 l 1
 541.008789062 488.049804688 551.546595552 478.064843676 554.34375 472.071289062 c 0
 557.709960938 464.858398438 564.430932812 446.725666678 566.720703125 439.103515625 c 0
 569.08203125 431.243164062 569.357421875 417.904296875 569.357421875 417.904296875 c 1
 568.969726562 374.76953125 l 1
 569.438476562 21.65234375 l 1
 569.438476562 21.65234375 569.381453127 13.5830344486 569.41796875 9.9697265625 c 0
 569.438476562 7.9404296875 567.774696153 6.15380030635 566.361328125 4.6982421875 c 0
 565.576171875 3.8896484375 564.048828125 4.1318359375 564.048828125 4.1318359375 c 1
 402.428710938 4.2939453125 l 1
 402.428710938 4.2939453125 398.696427601 4.04940078153 397.096679688 5.021484375 c 0
 395.232421875 6.154296875 392.508527656 13.2695813481 392.467773438 14.6171875 c 0
 392.453125 15.1015625 393.09765625 17.1474609375 393.09765625 17.1474609375 c 1
 404 50 l 1
 404.063476562 331.000976562 l 1
 404.063476562 331.000976562 391.292271107 410.465094329 305.338867188 430.000976562 c 0
 298.53956811 431.546352312 292.177037975 432.191643715 286.292081995 432.191643715 c 0
 256.483473958 432.191643715 238.927734375 415.635742188 238.927734375 415.635742188 c 1
 239.307617188 294.654296875 l 1
 239.381835938 53.064453125 l 1
 239.381835938 53.064453125 248.91366631 17.0426105105 248.91366631 6.73165608248 c 0
 248.91366631 5.027872027 248.653406164 4.02610628915 248.046875 4.0048828125 c 0
 236.46484375 3.599609375 238.541075619 4.01077141064 223.958007812 3.92578125 c 0
 216.228442197 3.88073331962 191.82803935 3.79678745139 169.007245503 3.79678745139 c 0
 151.261328144 3.79678745139 134.470590329 3.84754898554 127.216796875 4.0068359375 c 0
 117.373697917 4.22298177083 94.0236545139 4.25900607639 79.5506365741 4.25900607639 c 0
 72.3141276042 4.25900607639 67.296875 4.25 67.296875 4.25 c 1
 67.296875 4.25 72.9592606282 223.134910731 72.9592606282 339.717786172 c 0
 72.9592606282 378.503401123 72.3325439088 405.966156744 70.662109375 410.279296875 c 0
 58.390625 441.96484375 8.1435546875 453.392578125 8.1435546875 453.392578125 c 1
 8.1435546875 453.392578125 6.58861500197 454.241310461 5.17578125 456.47265625 c 0
 2.9541015625 459.981445312 1.68981056377 468.52026586 2.8505859375 472.509765625 c 0
 3.7021484375 475.436523438 4.5458984375 476.237304688 6.140625 477.952148438 c 1
 6.140625 477.926757812 l 1
EndSplineSet
Validated: 1
EndChar

StartChar: h
Encoding: 104 104 28
Width: 615
Flags: W
VStem: 45 156<-1.15496 405 466.05 616.306> 452.099 125.901<170.312 333.963>
LayerCount: 2
Fore
SplineSet
195 800 m 5
 202 800 213 797 222 790 c 5
 222 790 241 778 241 762 c 4
 241 752 211 722 204 661 c 4
 201.333333333 636.333333333 200.888888889 619.222222222 200.888888889 610.555555556 c 0
 200.888888889 606.222222222 201 604 201 604 c 5
 201 478 l 5
 201 472 l 5
 201 472 204 467 207 466 c 4
 208.2 465.6 209.72 465.44 211.384 465.44 c 0
 218.04 465.44 227 468 227 468 c 5
 227 468 258 506 274 520 c 4
 295 539 330 565 338 569 c 4
 342 571 347 573 352 573 c 4
 364 572 413 566 437 555 c 4
 464 543 506 504 513 498 c 4
 520 492 554 453 565 421 c 4
 575 391 578 358 578 325 c 4
 578 298 576 271 575 244 c 4
 574 224 558 169 548 151 c 4
 507 78 470 36 470 36 c 5
 470 36 435 9 416 -1 c 4
 411 -4 393 -7 382 -7 c 4
 381 -7 380 -7 379 -7 c 4
 369 -6 357 2 357 2 c 5
 357 2 349.71 7.67 349.71 18.281 c 0
 349.71 19.46 349.8 20.7 350 22 c 4
 352 41 367 48 367 48 c 5
 367 48 415 81 428 107 c 4
 444 141 452 184 452 211 c 4
 452 217 452.098765432 223.543209877 452.098765432 230.497942387 c 0
 452.098765432 254.839506173 450.888888889 284.222222222 440 313 c 4
 418 373 382 399 344 420 c 4
 322 432 300 436 282 436 c 4
 258 436 241 430 241 430 c 5
 201 405 l 5
 202 53 l 5
 202 53 206 26 212 9 c 4
 212.86037961 6.41886116992 215.201265367 0.876710046423 215.201265367 -1.25746686475 c 0
 215.201265367 -1.60379610028 215.13962039 -1.86037961003 215 -2 c 4
 214 -3 214 -3 214 -3 c 5
 214 -3 63 -3 49 -3 c 4
 41 -3 33 -3 33 -3 c 5
 44 21 45 52 45 52 c 5
 47 105 l 5
 47 105 45 550 45 556 c 4
 44 603 21 618 21 618 c 5
 21 618 6 638 2 647 c 4
 -0.25 651.5 -0.953125 654.875 -0.953125 657.3359375 c 0
 -0.953125 661.4375 1 663 1 663 c 5
 195 800 l 5
EndSplineSet
Validated: 5
EndChar

StartChar: w
Encoding: 119 119 30
Width: 762
Flags: W
HStem: 553.294 20G<636.472 647.487>
VStem: 655.449 94.8128<323.784 402.43>
LayerCount: 2
Fore
SplineSet
636.471679688 573.291015625 m 6
 636.471679688 573.293945312 l 5
 658.502929688 573.181640625 672.817382812 565.416015625 695.620117188 552.5 c 4
 710.349609375 539.474609375 731.6875 511.4140625 740.630859375 485.782226562 c 4
 745.625976562 471.462890625 749.483398438 447.563476562 749.759765625 432.400390625 c 4
 749.940526304 422.528678359 750.261640673 413.057965217 750.261640673 403.846524873 c 0
 750.261640673 380.860038799 748.262009842 359.488086137 737.091796875 337.528320312 c 4
 690.662109375 246.25 551.526367188 11.2900390625 551.526367188 11.2900390625 c 5
 551.526367188 11.2900390625 543.796875 -0.1220703125 541.302734375 -1.26171875 c 4
 538.449282295 -2.5705782305 533.27619033 -2.86790000074 527.728057113 -2.86790000074 c 0
 523.108779672 -2.86790000074 518.229526162 -2.66179855239 514.212603079 -2.66179855239 c 0
 512.161312808 -2.66179855239 510.334897404 -2.71554481287 508.8828125 -2.8779296875 c 4
 508.608867365 -2.90849411669 508.34183994 -2.92320351407 508.081596518 -2.92320351407 c 0
 501.398794759 -2.92320351407 499.189453125 6.7763671875 499.189453125 6.7763671875 c 5
 424.080078125 264.59375 l 5
 375.725585938 187.665039062 l 5
 280.689453125 7.564453125 l 5
 280.689453125 7.564453125 274.563476562 -1.375 270.374023438 -2.06640625 c 4
 267.651562935 -2.52912426754 264.512644186 -2.6622344362 261.18077726 -2.6622344362 c 0
 256.666674418 -2.6622344362 251.798404421 -2.41790328718 247.131805609 -2.41790328718 c 0
 246.185120388 -2.41790328718 245.246734709 -2.42795844982 244.321289062 -2.4521484375 c 4
 244.298442184 -2.45276123059 244.275588108 -2.45306592568 244.252727619 -2.45306592568 c 0
 240.158879392 -2.45306592568 235.859375 7.318359375 235.859375 7.318359375 c 5
 92.357421875 406.069335938 l 5
 92.357421875 406.069335938 84.140625 416.365234375 70.126953125 422.291015625 c 4
 60.927734375 426.177734375 45.283203125 426.5 40.138671875 428.400390625 c 4
 36.4687018336 429.759628071 32.1744497012 430.017282035 27.8007558247 430.017282035 c 0
 25.1301546763 430.017282035 22.42993455 429.921218597 19.8241324324 429.921218597 c 0
 12.2960612655 429.921218597 5.55601402434 430.722975474 2.5947265625 436.958984375 c 4
 0.813370230355 440.709169078 0.261947431921 446.344987394 0.261947431921 451.885898165 c 0
 0.261947431921 460.892047559 1.71875 469.647460938 1.71875 469.647460938 c 5
 1.71875 469.647460938 96.5439453125 553.70703125 112.1015625 563.223632812 c 6
 134.841796875 562.76171875 l 5
 134.841796875 562.76171875 202.868164062 500.663085938 225.80078125 473.401367188 c 4
 233.993164062 463.662109375 240.365234375 442.158203125 240.365234375 442.158203125 c 5
 277.385742188 466.26171875 l 6
 289.517578125 493.603515625 292.25 506.012695312 307 522 c 4
 324.05078125 540.48046875 349.8359375 560.569335938 359.079101562 565.88671875 c 4
 361.483243707 567.276017346 364.475270994 567.754199327 367.602163095 567.754199327 c 0
 372.719772585 567.754199327 378.198631491 566.473339211 382.052734375 565.809570312 c 4
 390.79296875 564.30859375 407.197265625 544.19140625 419.466796875 531.719726562 c 4
 433.21875 517.741210938 448.401367188 500.77734375 460.642578125 485.458007812 c 4
 470.12890625 473.5859375 488.499023438 443.768554688 488.499023438 443.768554688 c 5
 488.499023438 443.768554688 508.37890625 463.530273438 514.248046875 471.950195312 c 4
 524.05078125 486.012695312 521.282226562 520.490234375 545.59765625 546.33203125 c 4
 566.471679688 568.520507812 604.006835938 572.16015625 636.471679688 573.291015625 c 6
528.333984375 436.765625 m 5
 528.333984375 436.766601562 l 5
 511.935546875 424.509765625 506.155273438 425.275390625 501.9609375 416.634765625 c 4
 510.5 373.35546875 517.676757812 356.095703125 536.815429688 295.75390625 c 4
 550.301757812 253.686523438 557.099609375 248.204101562 577.905273438 219.224609375 c 4
 585.460175161 213.814294902 592.63634256 212.183013373 598.543909122 212.183013373 c 0
 607.517856607 212.183013373 613.564453125 215.947265625 613.564453125 215.947265625 c 5
 613.564453125 215.947265625 630.65625 238.983398438 636.620117188 250.68359375 c 4
 645.181640625 267.478515625 650.393554688 268 652.489257812 279.174804688 c 4
 654.241033984 288.528782631 655.448833864 313.407638679 655.448833864 330.854760917 c 0
 655.448833864 334.250983033 655.403068223 337.365603815 655.306640625 340.029296875 c 4
 654.672851562 357.564453125 650.794921875 373.055664062 641.9765625 388.99609375 c 4
 631.5078125 407.921875 614.350585938 428.563476562 595.314453125 438.828125 c 4
 584.2734375 444.807617188 565.544921875 444.038085938 553.004882812 444.345703125 c 4
 552.714419634 444.352544793 552.421657885 444.355983557 552.126793938 444.355983557 c 0
 544.466999164 444.355983557 535.388589105 442.035420376 528.333984375 436.765625 c 5
314.794921875 433.895507812 m 5
 314.794921875 433.890625 l 5
 306.271117228 437.107143611 295.908875963 438.955006437 287.506756233 438.955006437 c 0
 282.381160254 438.955006437 277.985011723 438.267335394 275.180664062 436.783203125 c 4
 266.44921875 432.162109375 256.16015625 421.728515625 248.46875 415.486328125 c 4
 253.594726562 371.162109375 260.5546875 350.16015625 277.118164062 303.030273438 c 4
 294.193359375 254.444335938 308.072265625 235.08203125 325.640625 219.715820312 c 4
 333.082215557 213.2078412 339.970479833 211.332173742 345.43900789 211.332173742 c 0
 352.880766341 211.332173742 357.693359375 214.805664062 357.693359375 214.805664062 c 5
 384.67578125 258.431640625 l 5
 384.67578125 258.431640625 391.283203125 266.576171875 397.108398438 278.037109375 c 4
 399.192678844 282.135644956 400.418371551 286.997691352 400.418371551 297.834986119 c 0
 400.418371551 302.413508516 400.199600166 308.058540776 399.734375 315.163085938 c 4
 398.166992188 330.853515625 389.796875 355.62109375 385.880859375 363.416992188 c 4
 379.522460938 376.073242188 366.208007812 399.173828125 358.869140625 406.591796875 c 4
 351.52734375 414.009765625 333.267578125 426.930664062 314.794921875 433.895507812 c 5
EndSplineSet
Validated: 1
EndChar

StartChar: f
Encoding: 102 102 31
Width: 530
Flags: W
HStem: 474 97.8896<15.2184 110.454 274.053 502.914>
VStem: 110.347 163.664<3.61146 474 571.953 643.37>
LayerCount: 2
Fore
SplineSet
15.212890625 562.140625 m 2
 15.2119140625 562.176757812 15.2109375 562.211914062 15.2109375 562.248046875 c 0
 15.2109375 566.497070312 25.4560546875 570.250976562 27.9521484375 572.118164062 c 1
 110.454101562 571.953125 l 1
 110.454101562 571.953125 110.935546875 581.450195312 110.935546875 593.7890625 c 0
 110.935546875 610.948242188 110.004882812 633.604492188 105.555664062 643.859375 c 0
 102.2734375 651.422851562 97.6513671875 651.478515625 92.5478515625 659.4921875 c 0
 91.9833984375 660.37890625 91.748046875 662.893554688 91.748046875 666.15625 c 0
 91.748046875 674.590820312 93.322265625 688.01953125 94.8564453125 691.20703125 c 0
 102.541015625 700.01171875 113.313476562 702.118164062 122.1953125 705.110351562 c 0
 136.93359375 709.692382812 407.919921875 814.325195312 407.919921875 814.325195312 c 1
 409.256835938 814.638671875 410.850585938 814.784179688 412.627929688 814.784179688 c 0
 424.09375 814.784179688 443.169921875 808.73046875 450.038085938 802.822265625 c 1
 537.495117188 696.512695312 l 1
 538.071289062 695.006835938 538.338867188 693.244140625 538.338867188 691.48046875 c 0
 538.338867188 688.565429688 537.606445312 685.647460938 536.317382812 683.883789062 c 2
 452.876953125 612.659179688 l 1
 450.772460938 611.788085938 446.916992188 611.419921875 442.190429688 611.419921875 c 0
 427.546875 611.419921875 404.543945312 614.953125 399.36328125 618.004882812 c 1
 356.736328125 683.0859375 l 1
 356.736328125 683.0859375 339.102539062 697.987304688 315.837890625 697.987304688 c 0
 308.349609375 697.987304688 300.27734375 696.443359375 292.022460938 692.361328125 c 0
 276.265625 684.5703125 273.828125 655.916992188 273.828125 638.928710938 c 0
 273.828125 631.314453125 274.317382812 626.043945312 274.317382812 626.043945312 c 1
 274.052734375 571.889648438 l 1
 498.819335938 571.82421875 l 1
 504.344726562 570.41796875 507.735351562 567.624023438 508.909179688 562.323242188 c 1
 502.790039062 487.466796875 l 1
 502.877929688 487.2578125 502.918945312 487.009765625 502.918945312 486.728515625 c 0
 502.918945312 483.1796875 496.383789062 474.4296875 494.772460938 473.918945312 c 2
 274 474 l 1
 274.012695312 34.95703125 l 1
 274.012695312 34.95703125 274.010742188 34.8466796875 274.010742188 34.6416015625 c 0
 274.010742188 32.373046875 274.274414062 18.4970703125 280.626953125 13.4521484375 c 0
 284.868164062 10.0830078125 284.951171875 3.818359375 284.951171875 3.333984375 c 0
 284.951171875 3.3134765625 284.951171875 3.3037109375 284.951171875 3.3037109375 c 1
 274.31640625 3.6318359375 l 1
 97.7197265625 2.9755859375 l 1
 97.7197265625 2.9755859375 97.71875 3.0048828125 97.71875 3.0615234375 c 0
 97.71875 3.7080078125 97.82421875 7.9033203125 100.435546875 12.2314453125 c 0
 103.875976562 17.93359375 110.346679688 24.361328125 110.346679688 29.4345703125 c 0
 110.346679688 29.4755859375 110.346679688 29.515625 110.345703125 29.5556640625 c 0
 109.680664062 62.158203125 109.44140625 111.33203125 109.44140625 165.25 c 0
 109.44140625 304.0234375 111.02734375 474.224609375 111.02734375 474.224609375 c 1
 26.640625 473.977539062 l 1
 21.716796875 476.786132812 14.689453125 485.224609375 13.2216796875 491.5546875 c 1
 15.212890625 562.140625 l 2
EndSplineSet
Validated: 1
EndChar

StartChar: j
Encoding: 106 106 32
Width: 407
Flags: W
HStem: -198 44<4.15081 60.5443>
VStem: 163 174<-62.4343 420.727>
LayerCount: 2
Fore
SplineSet
302 563 m 5
 304 564 306 564 308 564 c 4
 314 563 328 557 334 554 c 4
 336 553 337 549 337 549 c 5
 337 -32 l 5
 337 -32 335 -65 257 -126 c 4
 217 -157 180 -180 134 -193 c 4
 115 -198 96 -200 78 -200 c 4
 63 -200 50 -199 36 -198 c 4
 24 -197 7 -186 4 -183 c 4
 1 -179 1 -170 0 -165 c 4
 0 -161 1 -157 9 -154 c 4
 27 -147 50 -138 76 -125 c 4
 107 -110 132 -82 148 -52 c 4
 161 -29 163 11 163 34 c 4
 163 45 163 53 163 53 c 5
 162 362 l 5
 162 362 162.142222222 364.631111111 162.142222222 368.736592593 c 0
 162.142222222 380.026666667 161.066666667 402.466666667 153 412 c 4
 139 429 111 424 111 428 c 4
 111 441 112 454 112 472 c 4
 112 477 117 480 117 480 c 5
 302 563 l 5
357 799 m 5
 358 795 359 782 359 767 c 4
 359 736 357 693 353 685 c 6
 153 624 l 5
 153 624 142 641 140 650 c 4
 138 658 138 679 138 679 c 5
 138 679 159 681 177 693 c 4
 217 719 280 764 312 788 c 4
 330 797 357 799 357 799 c 5
EndSplineSet
Validated: 5
EndChar

StartChar: m
Encoding: 109 109 33
Width: 912
Flags: W
HStem: 553.267 20G<103.118 106.526 393.197 399.987 682.142 685.543>
VStem: 86.0742 165.618<1.31685 402.145> 393.435 173.556<1.47845 338.635> 712.301 168.487<1.24604 379.453>
LayerCount: 2
Fore
SplineSet
687.107421875 574.521484375 m 5
 687.091796875 574.423828125 l 5
 707.901367188 573.66796875 734.892578125 561.026367188 749.822265625 552.541992188 c 4
 781.041992188 534.80078125 819.84765625 504.62109375 845.49609375 479.489257812 c 4
 861.466796875 463.841796875 867.278320312 450.771484375 872.110351562 434.366210938 c 4
 878.8203125 411.603515625 881.447265625 379.453125 881.447265625 379.453125 c 5
 880.586914062 57.5869140625 l 5
 880.62890625 57.5869140625 l 5
 880.62890625 51.21875 880.708984375 44.478515625 880.788085938 41.421875 c 4
 881.345703125 25.87890625 883.390625 18.5927734375 886.255859375 13.6572265625 c 4
 888.659208586 9.51288066008 888.908739996 3.46608766555 888.908739996 1.13352085464 c 0
 888.908739996 0.522217125057 888.891601562 0.166015625 888.891601562 0.166015625 c 5
 853.516601562 0.005859375 l 5
 853.532226562 0.0859375 853.57421875 0.1025390625 853.595703125 0.166015625 c 5
 739.4921875 0.166015625 l 5
 739.509765625 0.0859375 739.551757812 0.0703125 739.572265625 0.005859375 c 5
 704.197265625 0.166015625 l 5
 704.197265625 0.166015625 704.180118444 0.522398930081 704.180118444 1.13398885833 c 0
 704.180118444 3.46689638561 704.429616482 9.51315780293 706.83203125 13.6572265625 c 4
 709.681640625 18.572265625 711.7421875 25.8173828125 712.30078125 41.216796875 c 6
 712.30078125 42.736328125 l 5
 711.584960938 338.565429688 l 5
 711.584960938 338.565429688 711.626819631 338.890964894 711.626819631 339.560330526 c 0
 711.626819631 342.763956419 710.667987804 353.843498303 699.572265625 374.8046875 c 4
 693.196289062 386.8515625 672.955078125 402.458007812 661.401367188 409.685546875 c 4
 641.670044841 422.038938488 627.148442644 424.816495588 608.85525572 424.816495588 c 0
 602.424193115 424.816495588 595.526996707 424.47321462 587.7734375 424.08203125 c 4
 577.073242188 423.540039062 566.671875 395.37109375 566.671875 395.37109375 c 5
 566.990234375 57.4208984375 l 5
 567.028320312 57.501953125 567.028320312 57.517578125 567.0703125 57.5810546875 c 6
 567.112304688 57.5810546875 l 5
 567.112304688 51.212890625 567.192382812 44.47265625 567.271484375 41.416015625 c 4
 567.829101562 25.8720703125 569.874023438 18.5859375 572.740234375 13.6513671875 c 4
 575.142358012 9.50913466901 575.392247468 3.46578237216 575.392247468 1.13036547779 c 0
 575.392247468 0.516811007157 575.375 0.1591796875 575.375 0.1591796875 c 5
 540 0 l 5
 540.037109375 0.080078125 540.057617188 0.17578125 540.080078125 0.23828125 c 5
 384.965820312 0.3984375 l 5
 384.965820312 0.3984375 384.948673131 0.754820805081 384.948673131 1.36640198253 c 0
 384.948673131 3.69927612995 385.198171169 9.74537683999 387.600585938 13.888671875 c 4
 390.466796875 18.8271484375 392.512695312 26.111328125 393.069335938 41.654296875 c 4
 393.349472771 55.0320727526 393.434725304 103.423213666 393.434725304 157.373825594 c 0
 393.434725304 241.280643599 393.228515625 338.634765625 393.228515625 338.634765625 c 5
 393.228515625 338.634765625 372.288085938 383.543945312 348.063476562 398.895507812 c 4
 330.851968295 409.811843096 305.609548805 418.545572768 284.432552648 418.545572768 c 0
 282.445874637 418.545572768 280.494975942 418.468708234 278.58984375 418.309570312 c 4
 267.391601562 417.376953125 252.717773438 402.14453125 252.717773438 402.14453125 c 5
 251.650390625 57.654296875 l 5
 251.692382812 57.654296875 l 5
 251.692382812 51.287109375 251.7734375 44.5458984375 251.852539062 41.4892578125 c 4
 252.409179688 25.9462890625 254.455078125 18.6591796875 257.321289062 13.724609375 c 4
 259.723703831 9.58208806456 259.973201869 3.5349220272 259.973201869 1.20157195006 c 0
 259.973201869 0.589866003913 259.956054688 0.2333984375 259.956054688 0.2333984375 c 5
 224.581054688 0.07421875 l 5
 224.59765625 0.1533203125 224.639648438 0.1708984375 224.66015625 0.2333984375 c 5
 113.108398438 0.2333984375 l 5
 113.123046875 0.1533203125 113.165039062 0.1376953125 113.1875 0.07421875 c 5
 77.8125 0.2333984375 l 5
 77.8125 0.2333984375 77.7952525321 0.591072030363 77.7952525321 1.20467586645 c 0
 77.7952525321 3.54028066409 78.0451419875 9.58392361996 80.447265625 13.724609375 c 4
 83.3125 18.662109375 85.3583984375 25.9462890625 85.916015625 41.4892578125 c 4
 85.9951171875 44.501953125 86.0322265625 51.087890625 86.07421875 57.3671875 c 4
 86.07421875 57.447265625 86.07421875 57.6064453125 86.07421875 57.6865234375 c 4
 86.0400390402 90.4787901919 85.9907256432 145.15436863 85.9907256432 201.924300959 c 0
 85.9907256432 276.536126346 86.0759067929 354.765619207 86.392578125 391.6875 c 4
 68.0146484375 414.748046875 13.7529296875 442.07421875 13.7529296875 442.07421875 c 5
 13.7529296875 442.07421875 12.3037109375 442.89453125 12.064453125 443.76171875 c 4
 10.90234375 448.169921875 7.8544921875 463.668945312 7.296875 466.590820312 c 4
 7.04891112644 467.876277203 6.9081123771 468.376032053 6.9081123771 468.775745959 c 0
 6.9081123771 469.145817591 7.02880254011 469.430135921 7.296875 470.172851562 c 4
 24.67578125 496.05078125 69.3134765625 548.357421875 90.6728515625 564.983398438 c 5
 90.5947265625 565.025390625 l 5
 90.5947265625 565.025390625 100.057165685 573.266641273 106.177952783 573.266641273 c 0
 106.873829027 573.266641273 107.526512537 573.160118468 108.1171875 572.922851562 c 4
 129.177734375 564.448242188 134.48046875 562.013671875 149.208984375 553.466796875 c 4
 208.137695312 519.268554688 238.015625 460.588867188 238.015625 460.588867188 c 5
 238.015625 460.588867188 241.80921653 453.083476142 245.59152532 453.083476142 c 0
 246.044146185 453.083476142 246.496605477 453.190956351 246.942382812 453.431640625 c 4
 247.463194807 453.713385688 247.867196877 453.77300697 248.241129295 453.77300697 c 0
 248.515516827 453.77300697 248.773713463 453.740904103 249.049990816 453.740904103 c 0
 250.516560988 453.740904103 252.492615432 454.645509009 260.104492188 466.05859375 c 4
 269.333984375 479.900390625 309.963867188 518.926757812 322.99609375 530.926757812 c 4
 338.224609375 544.947265625 361.56640625 563.661132812 382.392578125 571.279296875 c 4
 386.314357455 572.713582412 390.843565335 573.294254318 395.550120399 573.294254318 c 0
 404.424464376 573.294254318 413.929316242 571.22983914 421.181640625 568.930664062 c 4
 473.731445312 552.2578125 542.27734375 479.506835938 542.27734375 479.506835938 c 5
 542.27734375 479.506835938 553.433209827 466.997097993 559.137754325 466.997097993 c 0
 559.208572357 466.997097993 559.278550256 466.999025935 559.34765625 467.002929688 c 4
 564.610351562 467.321289062 574.279296875 476.380859375 574.279296875 476.380859375 c 5
 574.279296875 476.380859375 630.0625 546.926757812 669.048828125 570.741210938 c 4
 673.489347593 573.447069262 679.050807105 574.554236276 685.233612566 574.554236276 c 0
 685.852163523 574.554236276 686.476933376 574.543154919 687.107421875 574.521484375 c 5
EndSplineSet
Validated: 1
EndChar

StartChar: q
Encoding: 113 113 34
Width: 602
Flags: HMW
VStem: 4.79883 146.911<173.8 364.374> 371.398 168.962<-180.104 -18.8715> 378.955 154.312<-141.119 48.671 149.524 357.026>
LayerCount: 2
Fore
SplineSet
276.549804688 575.978515625 m 1x80
 276.486328125 576.02734375 l 1
 285.967773438 576.740234375 295.682617188 577.111328125 305.647460938 577.111328125 c 0
 323.254882812 577.111328125 341.643554688 575.951171875 360.891601562 573.470703125 c 0
 375.401367188 571.073242188 396.108398438 558.065429688 407.8046875 549.165039062 c 0
 422.6796875 537.84765625 439.913085938 520.551757812 439.913085938 520.551757812 c 2
 442.306640625 516.06640625 444.288085938 514.443359375 445.9765625 514.443359375 c 0
 449.745117188 514.443359375 452.05859375 522.537109375 454.2890625 524.994140625 c 0
 459.469726562 530.702148438 470.053710938 539.384765625 470.053710938 539.384765625 c 1
 517.48046875 576.346679688 l 1
 517.48046875 576.346679688 553.3125 597.201171875 558.288085938 597.455078125 c 0
 558.388671875 597.458984375 558.4921875 597.4609375 558.59765625 597.4609375 c 0
 562.875 597.4609375 570.952148438 593.756835938 579.168945312 582.725585938 c 0
 579.497070312 582.284179688 579.642578125 581.270507812 579.642578125 579.821289062 c 0
 579.642578125 568.809570312 571.26953125 532.706054688 571.26953125 532.706054688 c 1
 540.065429688 472.979492188 l 1
 531.836914062 446.6796875 l 1
 533.267578125 -16.92578125 l 1
 539.938476562 -165.68359375 l 1
 539.938476562 -165.68359375 540.360351562 -169.2734375 540.360351562 -173.0078125 c 0
 540.360351562 -176.185546875 540.055664062 -179.466796875 538.92578125 -180.729492188 c 0
 534.102539062 -186.045898438 529.29296875 -191.375 524.469726562 -196.69140625 c 0
 523.133789062 -198.189453125 519.302734375 -198.54296875 515.985351562 -198.54296875 c 0
 513.022460938 -198.54296875 510.469726562 -198.26171875 510.469726562 -198.26171875 c 1
 484.696289062 -198.329101562 l 2
 484.6953125 -198.297851562 484.6953125 -198.2734375 484.6953125 -198.251953125 c 0
 484.6953125 -198.201171875 484.696289062 -198.168945312 484.696289062 -198.123046875 c 0
 484.696289062 -198.108398438 484.696289062 -198.092773438 484.696289062 -198.077148438 c 2
 401.288085938 -197.696289062 l 1
 401.288085938 -197.696289062 398.797851562 -197.959960938 395.881835938 -197.959960938 c 0
 392.540039062 -197.959960938 388.641601562 -197.61328125 387.290039062 -196.126953125 c 0
 382.465820312 -190.810546875 377.642578125 -185.481445312 372.833007812 -180.165039062 c 0
 371.704101562 -178.8984375 371.3984375 -175.620117188 371.3984375 -172.443359375 c 0
 371.3984375 -168.709960938 371.8203125 -165.1171875 371.8203125 -165.1171875 c 1
 378.630859375 -12.56640625 l 1
 378.630859375 -12.56640625 378.955078125 0.2412109375 378.955078125 14.109375 c 0
 378.955078125 17.576171875 378.934570312 21.1103515625 378.884765625 24.525390625 c 0
 378.879882812 24.8525390625 378.877929688 25.1865234375 378.877929688 25.5244140625 c 0
 378.877929688 28.458984375 379.015625 31.7919921875 379.015625 35.0439453125 c 0
 379.015625 40.7451171875 378.591796875 46.1953125 376.264648438 48.794921875 c 0
 374.908203125 50.3046875 373.450195312 50.875 372.022460938 50.875 c 0
 367.622070312 50.875 363.506835938 45.453125 363.506835938 45.453125 c 1
 363.506835938 45.453125 325.529296875 -0.443359375 296.715820312 -16.30078125 c 0
 268.49609375 -31.83203125 244.681640625 -47 203 -47 c 0
 191.981445312 -47 179.71484375 -45.939453125 165.791015625 -43.5458984375 c 0
 120.396484375 -35.75 71.8291015625 6.7822265625 40.8427734375 59.55078125 c 0
 20.4384765625 94.296875 4.798828125 166.899414062 4.798828125 166.899414062 c 1
 3.330078125 364.374023438 l 1
 3.330078125 364.374023438 7.140625 385.791992188 13.40625 395.96875 c 0
 24.669921875 414.2890625 39.1865234375 434.646484375 48.845703125 445.064453125 c 0
 67.1982421875 464.864257812 86.0576171875 484.17578125 107.24609375 500.907226562 c 0
 132.87890625 521.149414062 136.275390625 522.3046875 163.263671875 539.890625 c 0
 174.028320312 546.901367188 207.033203125 562.875 219.401367188 566.369140625 c 0
 243.329101562 573.118164062 262.174804688 574.028320312 276.549804688 575.978515625 c 1x80
281.1328125 458.065429688 m 2
 281.09765625 458.063476562 l 2
 280.118164062 458.0546875 279.1796875 458.05078125 278.280273438 458.05078125 c 0
 274.733398438 458.05078125 271.763671875 458.10546875 269.0234375 458.10546875 c 0
 259.44921875 458.10546875 252.6328125 457.442382812 233.614257812 451.48046875 c 0
 210.5 442.0546875 200.678710938 431.739257812 182.671875 414.450195312 c 0
 169.046875 401.364257812 160.298828125 388.473632812 157.754882812 369.749023438 c 0
 153.204101562 336.2890625 151.709960938 306.291992188 151.709960938 280.180664062 c 0
 151.709960938 264.009765625 152.282226562 249.328125 153.057617188 236.234375 c 0
 155.08984375 201.779296875 170.674804688 173.556640625 192.5546875 146.864257812 c 0
 209.524414062 126.162109375 231.322265625 111.713867188 255.498046875 100.220703125 c 0
 263.903320312 96.2265625 272.793945312 94.642578125 282.134765625 94.642578125 c 0
 292.456054688 94.642578125 303.329101562 96.5771484375 314.711914062 99.3349609375 c 0
 329.5625 102.9296875 350.586914062 106.005859375 359.891601562 115.145507812 c 0
 369.651367188 124.73828125 378.055664062 149.524414062 378.055664062 149.524414062 c 1
 378.817382812 357.026367188 l 1
 378.817382812 357.026367188 377.408203125 375.799804688 360.428710938 408.884765625 c 0
 349.844726562 419.370117188 332.088867188 458.0703125 282.106445312 458.0703125 c 0
 281.783203125 458.0703125 281.458007812 458.068359375 281.1328125 458.065429688 c 2
EndSplineSet
Validated: 1
EndChar

StartChar: x
Encoding: 120 120 35
Width: 540
Flags: W
HStem: 563 20G<94.5 97 417.5 421>
VStem: 168 173<192.242 381.994>
LayerCount: 2
Fore
SplineSet
65 570 m 5
 65 569 l 5
 65 569 68 574 72 576 c 4
 76 578 88 581 92 582 c 4
 93 582 94 583 95 583 c 4
 99 583 102 581 102 581 c 5
 102 581 189 521 195 516 c 4
 219 496 234 488 251 465 c 4
 258 456 260 454 265 454 c 4
 266 454 267 454 269 454 c 4
 276 455 276 457 284 466 c 4
 294 478 307 494 314 500 c 4
 346 530 408 571 408 571 c 5
 408 571 415 577 420 577 c 4
 421 576 l 4
 429 573 428 574 433 571 c 4
 478 545 519 498 523 493 c 4
 526 490 529 482 529 473 c 4
 529 469 528 465 527 461 c 4
 523 448 513 437 510 435 c 4
 507 433 484 418 460 403 c 4
 457 401 452 399 449 398 c 4
 445 397 442 396 439 396 c 4
 432 396 425 398 420 400 c 4
 417 401 410 409 410 409 c 5
 410 409 380 440 358 440 c 4
 355 440 352 440 350 439 c 4
 342 435 341 419 341 413 c 4
 341 412 341 411 341 411 c 5
 340 212 l 5
 340 212 342 197 346 192 c 4
 351 186 367 179 367 179 c 5
 503 171 l 5
 503 171 512 167 514 164 c 4
 516 160 518 156 520 152 c 4
 521 151 521 150 521 148 c 4
 521 144 519 138 519 138 c 5
 487 70 l 5
 458 17 l 5
 458 17 457 15 455 11 c 4
 453 7 441 4 437 3 c 4
 436 3 435 2 434 2 c 4
 430 2 428 5 428 5 c 5
 280 97 l 5
 280 97 268 103 260 105 c 4
 259 105 256 105 254 105 c 4
 249 105 242 105 242 105 c 5
 192 67 l 5
 192 67 109 1 67 -44 c 4
 53 -59 49 -78 42 -78 c 4
 40.1538461538 -78 38.6863905325 -78.1893491124 37.335457442 -78.1893491124 c 0
 34.2958579882 -78.1893491124 31.8461538462 -77.2307692308 27 -71 c 4
 20 -63 13 -51 10 -41 c 4
 8 -34 6 -26 6 -18 c 4
 6 9 17 36 26 45 c 4
 64 82 93 117 127 159 c 4
 140 175 166 206 166 206 c 5
 166 206 168 280 168 338 c 4
 168 350 168 361 168 371 c 4
 168 374 159 382 159 382 c 5
 50 406 l 5
 50 406 45 407 44 411 c 4
 43 414 41 424 40 427 c 4
 40 428 39 428 39 429 c 4
 39 431 40 433 40 433 c 5
 65 570 l 5
EndSplineSet
Validated: 1
EndChar

StartChar: z
Encoding: 122 122 36
Width: 570
Flags: W
HStem: -0.132812 93.3628<231.483 377.227> 466.77 110.42<185.209 274.95>
LayerCount: 2
Fore
SplineSet
525.9453125 576.748046875 m 5
 525.9453125 576.748046875 527.062770598 576.873342046 528.389104631 576.873342046 c 0
 529.935759932 576.873342046 531.766448787 576.702963238 532.440429688 575.96484375 c 4
 535.375976562 572.306640625 544.985351562 553.755859375 547.430664062 549.763671875 c 4
 547.955635986 548.89144608 548.130151308 548.02569194 548.130151308 547.260041391 c 0
 548.130151308 545.741151086 547.443359375 544.616210938 547.443359375 544.616210938 c 5
 244.0625 198.685546875 l 5
 244.0625 198.685546875 221.019452038 164.490988117 221.019452038 142.118512025 c 0
 221.019452038 139.178995028 221.417251113 136.443566204 222.317382812 134.016601562 c 4
 229.147460938 115.639648438 236.076171875 104.068359375 254.926757812 98.6630859375 c 4
 267.439360529 95.0719387607 281.231778161 93.2300223147 295.463823705 93.2300223147 c 0
 323.115155407 93.2300223147 352.426007954 100.182944675 377.234375 114.768554688 c 4
 398.098632812 127.018554688 428.18359375 153.216796875 443.30859375 172.11328125 c 4
 468.48828125 203.568359375 510.69921875 259.395507812 510.69921875 259.395507812 c 5
 510.69921875 259.395507812 512.4609375 262.447265625 515.395507812 263.03515625 c 4
 515.65944482 263.090643322 515.992605998 263.116922676 516.387141843 263.116922676 c 0
 522.957197317 263.116922676 546.547046377 255.829401419 550.908203125 254.77734375 c 4
 554 253.995117188 555.721679688 250.392578125 555.721679688 250.392578125 c 5
 555.721679688 250.392578125 537.756835938 130.00390625 531.293945312 72.51171875 c 4
 529.729492188 58.5185546875 505.461914062 22.4384765625 496 12 c 4
 489.424804688 4.7392578125 483.123046875 2.60546875 479.9140625 1.0400390625 c 4
 477.801660319 -0.00249584026622 475.436430414 -0.176396212982 474.093400697 -0.176396212982 c 0
 473.421047493 -0.176396212982 473.004882812 -0.1328125 473.004882812 -0.1328125 c 5
 31.2607421875 1.6279296875 l 5
 31.2607421875 1.6279296875 30.7872437877 1.54831842615 30.06352564 1.54831842615 c 0
 28.5172774527 1.54831842615 25.8288321392 1.91172600968 24.17578125 4.19140625 c 4
 20.986328125 8.5751953125 13.58984375 19.2412109375 10.37890625 23.6240234375 c 4
 9.5966796875 24.7001953125 9.40112304688 26.6081542969 9.40112304688 28.2470703125 c 0
 9.40112304688 29.8859863281 9.5966796875 31.255859375 9.5966796875 31.255859375 c 5
 276.124023438 347.46484375 l 5
 276.124023438 347.46484375 295.424685934 365.472004368 295.424685934 406.686617707 c 0
 295.424685934 407.019059818 295.423430188 407.35301186 295.420898438 407.688476562 c 4
 295.276367188 426.92578125 291.310546875 446.609375 275.409179688 457.44921875 c 4
 265.613542099 464.133465384 255.717438478 466.770143401 245.600644019 466.770143401 c 0
 231.696093651 466.770143401 217.374662047 461.78950349 202.32421875 455.491210938 c 4
 179.111328125 445.844726562 126.333984375 398.846679688 126.333984375 398.846679688 c 5
 126.333984375 398.846679688 81.986328125 344.950195312 67.568359375 324.553710938 c 4
 67.3395903386 324.223448078 66.5340941685 324.065851645 65.3230392183 324.065851645 c 0
 59.2861529363 324.065851645 43.1717830616 327.981869597 38.181640625 333.947265625 c 4
 35.5009765625 337.157226562 35.2275390625 347.62890625 35.2275390625 347.62890625 c 5
 38.2216796875 530.887695312 l 5
 38.2216796875 530.887695312 38.2216762747 530.888615236 38.2216762747 530.890442473 c 0
 38.2216762747 531.026845716 38.2406945793 536.219367048 41.1181640625 541.22265625 c 4
 43.955078125 546.1328125 60.8662109375 573.426757812 66.35546875 574.861328125 c 4
 69.5377355509 576.932715021 70.8178797859 577.191522924 72.3233056813 577.191522924 c 0
 72.3821428521 577.191522924 72.4413241436 577.191127591 72.5009765625 577.190429688 c 4
 230.3515625 576.799804688 370.951171875 576.799804688 525.860351562 576.799804688 c 6
 525.9453125 576.748046875 l 5
EndSplineSet
Validated: 1
EndChar

StartChar: exclam
Encoding: 33 33 37
Width: 230
Flags: W
VStem: 90.75 88.5<1.27765 489.869>
LayerCount: 2
Fore
SplineSet
203 797 m 5
 203 797 204.92 798.28 207.736 798.28 c 0
 208.44 798.28 209.2 798.2 210 798 c 4
 216 796 245 785 251 783 c 4
 255 781 255 778 255 778 c 5
 255 778 239 738 231 719 c 4
 223 700 202 608 195 577 c 4
 182 518 181 442 181 442 c 5
 179 46 l 5
 179 46 179.25 42.5 179.25 37.375 c 0
 179.25 32.25 179 25.5 178 19 c 4
 177 13 173 10 168 6 c 4
 161 0 154 -1 154 -1 c 5
 116 -1 l 5
 116 -1 109 -1 105 1 c 4
 94 7 96 8 92 20 c 4
 91 24.5 90.75 34.25 90.75 42.875 c 0
 90.75 51.5 91 59 91 59 c 5
 90 416 l 5
 90 416 90.5804988662 418.321995465 90.5804988662 422.855415182 c 0
 90.5804988662 430.222222222 89.0476190476 443.428571429 81 462 c 4
 73 480 56 523 42 547 c 4
 36 558 25 559 19 570 c 4
 15 577 10 588 10 596 c 4
 10 602 10 602 12 608 c 4
 15 618 25 629 25 629 c 5
 25 629 190 785 203 797 c 5
EndSplineSet
Validated: 1
EndChar

StartChar: hyphen
Encoding: 45 45 38
Width: 469
Flags: HMW
LayerCount: 2
Fore
SplineSet
60.2470703125 239.155273438 m 1
 72.57421875 279.780273438 67.32421875 307.922851562 102.419921875 324.96875 c 0
 124.43709136 331.052220676 138.082047159 334.112976501 157.510338037 334.112976501 c 0
 165.205981942 334.112976501 173.809026502 333.632746357 184.19921875 332.669921875 c 0
 223.877418156 329.001270729 280.87441637 320.118723813 336.101387262 320.118723813 c 0
 346.999205733 320.118723813 357.828102397 320.464594855 368.44140625 321.264648438 c 0
 400.401367188 323.685546875 405.828125 328.178710938 405.828125 328.178710938 c 1
 405.828125 328.178710938 419.834960938 335.84765625 425.411132812 347.951171875 c 0
 426.892578125 351.208984375 430.299804688 356.294921875 435.23828125 356.70703125 c 0
 441.73828125 357.200195312 446.100585938 356.048828125 444.799804688 351.14453125 c 0
 439.156796124 329.827038022 438.826485784 316.01101516 438.826485784 304.685320439 c 0
 438.826485784 295.495784256 439.043945918 287.945758028 436.817382812 279.358398438 c 0
 431.961914062 260.646484375 428.208984375 249.866210938 420.587890625 233.888671875 c 0
 412.194335938 216.291015625 399.62109375 211.651367188 399.62109375 211.651367188 c 1
 399.62109375 211.651367188 390.658378457 203.51603839 362.453645966 203.51603839 c 0
 355.774859158 203.51603839 348.017121181 203.97220795 339.043945312 205.100585938 c 0
 306.0546875 209.248046875 182.654296875 221.23046875 149.87890625 221.756835938 c 0
 149.251204637 221.766997228 148.622592722 221.771920537 147.993728852 221.771920537 c 0
 128.315530255 221.771920537 108.390625 216.951171875 108.390625 216.951171875 c 1
 108.390625 216.951171875 100.029296875 216.126953125 82.3955078125 205.610351562 c 0
 60.4267578125 192.5078125 51.853515625 180.62890625 47.0146484375 177.112304688 c 0
 41.10546875 172.94921875 36.1826171875 181.671875 40.03515625 195.762695312 c 0
 45.4833984375 213.323242188 56.017578125 227.668945312 60.25 239.172851562 c 1
 60.2470703125 239.155273438 l 1
EndSplineSet
Validated: 1
EndChar

StartChar: A
Encoding: 65 65 39
Width: 886
Flags: W
HStem: -24.4483 138.984<32.3767 146.054> -3.69342 86.8633<434.675 568.351> 318.737 156.314<306.664 552.002 552.003 581.042> 702.912 90.5744<68.6026 169.671 169.681 267.159 333.592 578.786> 706.966 78.8623<59.5998 138.557>
VStem: 586.751 188.425<101.227 118.121 118.121 139.576 139.576 279.996 279.997 307.235 475.415 638.3 638.3 651.312>
LayerCount: 2
Fore
SplineSet
337.610351562 792.336914062 m 5xac
 337.586914062 792.41796875 l 5
 384.14937805 793.295188786 434.103537866 793.48649388 485.864003124 793.48649388 c 0
 525.90380685 793.48649388 567.024493678 793.372017979 608.492196325 793.372017979 c 0
 641.664234533 793.372017979 675.058334428 793.445273175 708.298828125 793.708984375 c 6
 708.298828125 793.708984375 712.887512126 793.746401857 720.449881621 793.746401857 c 0
 749.721825589 793.746401857 823.547326171 793.185790492 848.266601562 787.724609375 c 4
 853.152992174 786.644199292 854.54647699 774.057895048 854.54647699 760.052072198 c 0
 854.54647699 741.459420536 852.090820312 720.365234375 852.090820312 720.365234375 c 5
 852.090820312 720.365234375 847.142578125 706.8984375 841.62109375 705.213867188 c 4
 830.857421875 701.943359375 832.115234375 703.508789062 817.740234375 702.247070312 c 4
 812.776367188 701.810546875 796.071289062 686.5859375 791.055664062 681.611328125 c 4
 783.18359375 673.79296875 775.190429688 651.3125 775.190429688 651.3125 c 5
 775.17578125 368.719726562 l 5
 774.873046875 118.12109375 l 5
 774.873046875 118.12109375 774.868941872 117.952778211 774.868941872 117.640552235 c 0
 774.868941872 114.929971138 775.178327558 101.373154273 781.168945312 92.9384765625 c 4
 786.182617188 85.8837890625 792.884765625 83.5927734375 792.884765625 83.5927734375 c 6
 815.125976562 76.12890625 858.551757812 41.8544921875 863.3359375 29.1591796875 c 4
 865.672402251 23.0414470036 866.195166293 14.4139167806 866.195166293 7.60140583253 c 0
 866.195166293 4.5875497344 866.092852001 1.92892543887 866 0 c 4
 865.899414062 -2.0068359375 865.697265625 -3.07421875 864.991210938 -3.1279296875 c 6
 864.991210938 -3.1279296875 864.1328125 -3.228515625 863.627929688 -3.228515625 c 4
 799.7786093 -3.09889803633 724.774923858 -3.00918215598 649.38177038 -3.00918215598 c 0
 579.360334966 -3.00918215598 509.002953129 -3.08656906918 446.93359375 -3.28125 c 4
 446.870152749 -3.28103359322 446.806222448 -3.28092710089 446.741810689 -3.28092710089 c 0
 442.732995052 -3.28092710089 436.859258745 -3.69342348945 431.011001724 -3.69342348945 c 0
 423.384012229 -3.69342348945 415.80035792 -2.99184939361 412.453125 0.2412109375 c 4
 408.261326853 4.28351618119 406.838190255 11.3000282875 406.838190255 18.3602932993 c 0
 406.838190255 27.3963223041 409.169284403 36.5040184573 411.010742188 39.5400390625 c 4
 416.287109375 48.2578125 433.297851562 61.5693359375 443.057617188 66.5341796875 c 4
 472.228515625 81.3740234375 497.270507812 81.8681640625 528.373046875 83.169921875 c 4x74
 547.918945312 83.9921875 560.012695312 90.4423828125 568.763671875 100.362304688 c 4
 585.088981425 118.862263466 586.459060426 133.72738778 586.459060426 138.196334027 c 0
 586.459060426 139.097731319 586.403320312 139.576171875 586.403320312 139.576171875 c 5
 587.211914062 194.400390625 l 5
 586.70703125 279.99609375 l 5
 586.70703125 279.99609375 586.750943169 280.929596417 586.750943169 282.476959082 c 0
 586.750943169 287.886770465 586.214205054 300.799830732 581.387695312 307.556640625 c 4
 574.114674561 317.730808822 560.349633209 318.85653455 554.613632319 318.85653455 c 0
 552.983594545 318.85653455 552.001953125 318.765625 552.001953125 318.765625 c 5
 436.133789062 318.791015625 l 5
 288.859375 318.737304688 l 5
 288.859375 318.737304688 281.442382812 318.508789062 275.598632812 305.961914062 c 4
 273.499023438 301.444335938 272.469726562 286.350585938 272.469726562 286.350585938 c 5
 272.469726562 286.350585938 265.591796875 172.561523438 256.215820312 144.030273438 c 4
 252.8125 133.919921875 232.865234375 67.677734375 194.784179688 32.9619140625 c 4
 170.51171875 10.8330078125 144.018554688 -16.1474609375 116.80859375 -22.2236328125 c 4
 110.013613671 -23.7407353837 103.127149314 -24.4483008253 96.2765722841 -24.4483008253 c 0
 70.8082192576 -24.4483008253 45.8358740508 -14.6688599012 27.904296875 -0.349609375 c 4
 18.306640625 7.3193359375 9.0810546875 32.3369140625 9.0810546875 32.3369140625 c 5
 9.0810546875 32.3369140625 8.8198038079 38.2658172069 8.8198038079 46.1168343816 c 0
 8.8198038079 56.4554649368 9.27283899957 70.1272337363 11.3720703125 77.982421875 c 4
 14.6494140625 90.2314453125 14.806640625 103.788085938 31.861328125 110.034179688 c 4
 42.7889496826 114.037462011 58.0566888098 114.733278284 73.9911975897 114.733278284 c 0
 82.4819918749 114.733278284 91.1621055531 114.535711532 99.4757738953 114.535711532 c 0
 120.386877119 114.535711532 138.979637294 115.785631945 146.41015625 124.573242188 c 4
 153.850844111 133.373845387 155.378730469 150.367378832 155.378730469 162.841006355 c 0
 155.378730469 171.533665028 154.63671875 178.03125 154.63671875 178.03125 c 6
 152.870590709 198.663646629 151.492232782 218.534624808 151.492232782 241.785508712 c 0
 151.492232782 286.068975062 156.492190021 342.612960803 173.3359375 440.029296875 c 4
 188.143554688 525.670898438 231.737304688 618.89453125 244.83203125 662.953125 c 6
 267.159179688 702.635742188 l 5
 169.680664062 703.140625 l 5
 169.680664062 703.140625 156.68233544 702.821449356 139.735908091 702.821449356 c 0
 114.709288947 702.821449356 81.0720172564 703.517559247 67.9736328125 706.965820312 c 4
 60.7060546875 708.877929688 59.384765625 722.974609375 59.1826171875 729.0703125 c 4
 58.915172505 737.024737597 58.4060010037 744.307219692 58.4060010037 750.841800016 c 0
 58.4060010037 768.382699045 62.0748715111 780.534540077 83.9365234375 785.828125 c 4
 109.10356837 791.924024797 150.110030206 793.429543473 193.339891478 793.429543473 c 0
 235.535201417 793.429543473 279.848766015 791.995220924 313.618911544 791.995220924 c 0
 322.403857911 791.995220924 330.475304514 792.092285149 337.610351562 792.336914062 c 5xac
579.15234375 685.212890625 m 6
 579.161132812 685.24609375 l 6
 571.267966273 694.742159848 556.420838787 702.732055786 543.910411413 702.732055786 c 0
 543.532127723 702.732055786 543.155980489 702.724750587 542.782226562 702.709960938 c 6
 456.76953125 702.912109375 l 5
 333.591796875 702.709960938 l 5
 333.591796875 702.709960938 321.3671875 691.16015625 320.115234375 657.588867188 c 4
 317.111328125 577.032226562 306.6640625 475.051757812 306.6640625 475.051757812 c 5
 444.212890625 473.901367188 l 5
 585.743164062 475.415039062 l 5
 587.237304688 589.23046875 l 5
 586.630859375 638.299804688 l 5
 586.630859375 638.299804688 586.634836903 638.614817543 586.634836903 639.195943636 c 0
 586.634836903 644.613538504 586.289147949 673.159170532 579.15234375 685.212890625 c 6
EndSplineSet
Validated: 1
EndChar

StartChar: I
Encoding: 73 73 40
Width: 594
Flags: W
HStem: -106.25 21G<520.188 547.062> 2 95<59.0585 172 389 435.331> 705.155 188.439<45.3535 139.615> 705.155 91.8451<141 157.502 389 514.903>
VStem: 11.9245 139.217<797.571 853.894> 172 217<97 693.625>
LayerCount: 2
Fore
SplineSet
429 2 m 6xdc
 247 4 l 5
 79 2 l 5
 79 2 78.550295858 1.97633136095 77.7856167501 1.97633136095 c 0
 73.5798816568 1.97633136095 59.8461538462 2.69230769231 59 12 c 4
 58.4226497308 18.9282032303 57.8452994616 39.1897397939 57.8452994616 57.1961524227 c 0
 57.8452994616 70.3777613291 58.1547005384 82.3508529611 59 87 c 4
 60 94 77 94 77 94 c 5
 165 95 l 6
 168 95 172 111 172 111 c 5
 172 362 l 6
 172 434.8 172.726280992 492.515702479 172.726280992 538.171077385 c 0
 172.726280992 679.210214972 165.795213329 705.154854155 109.110001523 705.154854155 c 0
 106.512512459 705.154854155 103.810552054 705.100376859 101 705 c 4
 100.100111359 704.955005568 99.1779532293 704.932280624 98.2359850737 704.932280624 c 0
 78.2427371947 704.932280624 49.325083519 715.169855234 35 740 c 4
 20.7576538583 764.686733312 11.9244923464 788.471935853 11.9244923464 803.651659638 c 0
 11.9244923464 804.459179423 11.9494897428 805.242346142 12 806 c 6
 12 806 11.8892733564 806.996539792 11.8892733564 808.924486057 c 0
 11.8892733564 815.190311419 13.0588235294 831.294117647 23 855 c 4
 30 871 53 886 53 886 c 6
 59.5939224952 890.286049622 72.9272161407 893.593803432 87.6958842649 893.593803432 c 0xec
 116.658540642 893.593803432 151.141454576 880.872626323 151.141454576 837.861311654 c 0
 151.141454576 836.282002868 151.094963175 834.66185557 151 833 c 6
 151 833 150 820 149 814 c 4
 148 808 141 797 141 797 c 5
 318 798 l 5
 507 797 l 5
 507 797 513 797 515 791 c 4
 517.666666667 781 518.111111111 760.777777778 518.111111111 743.962962963 c 0
 518.111111111 735.555555556 518 728 518 723 c 4
 516 708 515 708 508 705 c 4
 503.2 703.4 495.68 702.92 485.824 702.92 c 0
 471.04 702.92 451 704 427 704 c 6
 389 703 l 5
 389 389 l 5
 389 97 l 5
 476 96 l 5
 476 96 476.661157025 96.0991735537 477.911344853 96.0991735537 c 0
 483.537190083 96.0991735537 501.090909091 94.0909090909 524 72 c 4
 547 50 569 22 577 3 c 4
 583.25 -12.625 584.421875 -25.90625 584.421875 -33.669921875 c 0
 584.421875 -38.328125 584 -41 584 -41 c 6
 583 -88 560.5 -106.25 533.625 -106.25 c 0
 506.75 -106.25 475.5 -88 457 -62 c 4
 447 -46 436 -27 429 2 c 6xdc
EndSplineSet
Validated: 5
EndChar

StartChar: V
Encoding: 86 86 41
Width: 876
Flags: W
HStem: 629.806 171.835<452.826 545.587>
VStem: 14.7881 55.3848<556.348 585.162 585.175 587.554>
LayerCount: 2
Fore
SplineSet
814.293945312 819.725585938 m 6
 822.740234375 821.059570312 l 6
 822.902731964 821.086333073 823.079943797 821.099426123 823.271039128 821.099426123 c 0
 830.171477291 821.099426123 855.174977801 804.027048104 859.166015625 797.034179688 c 4
 859.621273344 796.478783549 859.823561081 795.370285028 859.823561081 793.848367747 c 0
 859.823561081 783.986525301 851.329730809 756.765702822 848.131835938 750.19140625 c 4
 638.053710938 319.432617188 518.811523438 90.552734375 481.5234375 33.4443359375 c 4
 476.055664062 25.076171875 456.779296875 0.56640625 434.916015625 0.5458984375 c 4
 429.16015625 0.5458984375 407.37890625 4.525390625 389.165039062 28.3994140625 c 4
 384.366210938 34.6669921875 369.475585938 65.61328125 360 86 c 4
 333.39453125 143.29296875 316.168945312 252.705078125 275.72265625 361.364257812 c 6
 275.72265625 361.364257812 219.771484375 522.903320312 172.818359375 603.342773438 c 4
 164.73828125 617.203125 133.193359375 623.065429688 133.193359375 623.065429688 c 6
 108.404296875 619.037109375 82.2744140625 611.427734375 72.6337890625 587.553710938 c 6
 70.1728515625 560.935546875 l 5
 70.1728515625 560.935546875 66.3251094046 551.759941506 61.283300913 551.759941506 c 0
 61.2248337632 551.759941506 61.1662060377 551.761175423 61.107421875 551.763671875 c 4
 51.9921875 552.103515625 21.8427734375 558.502929688 14.7880859375 564.9921875 c 4
 12.28515625 567.240234375 9.82421875 585.174804688 9.82421875 585.174804688 c 5
 17.3720703125 634.39453125 l 6
 44.0595703125 716.560546875 90.7490234375 770.676757812 142.693359375 783.462890625 c 4
 160.131503224 787.755676292 184.465648575 791.774083913 208.922369586 791.774083913 c 0
 232.769176241 791.774083913 256.73252108 787.95360338 274.533203125 776.841796875 c 4
 293.357421875 765.0859375 315.098632812 744.868164062 325.8046875 721.716796875 c 6
 346.232421875 677.599609375 l 5
 346.232421875 677.599609375 349.965820312 668.427734375 352.837890625 667.115234375 c 4
 353.154717366 666.961362496 353.472053756 666.890490787 353.787851048 666.890490787 c 0
 357.478524552 666.890490787 360.958984375 676.5703125 360.958984375 676.5703125 c 5
 360.958984375 676.5703125 378.516601562 716.62890625 397.918945312 736.022460938 c 4
 417.313476562 755.41796875 438.676757812 777.502929688 464.766601562 785.9375 c 4
 499.59218355 797.192451765 509.488689721 801.641375152 540.148514878 801.641375152 c 0
 543.55879603 801.641375152 547.22596162 801.586332931 551.212890625 801.479492188 c 4
 602.81640625 800.084960938 613.805664062 794.108398438 658.85546875 769.758789062 c 4
 666.844576644 765.446589021 687.156596048 748.986925443 703.698839425 748.986925443 c 0
 704.168270061 748.986925443 704.634664921 749.000180299 705.09765625 749.02734375 c 4
 718.59375 749.793945312 735.20703125 762.912109375 744.231445312 768.338867188 c 4
 757.15234375 782.02734375 775.611328125 795.416992188 775.611328125 795.416992188 c 6
 795.055664062 807.181640625 810.110351562 819.069335938 814.293945312 819.725585938 c 6
404.379882812 597.649414062 m 5
 418.654296875 454.51171875 l 6
 426.3671875 377.193359375 433.873046875 322.1796875 438.303710938 285.811523438 c 6
 438.303710938 285.811523438 445.646484375 258.409179688 452.661132812 249.770507812 c 4
 458.53171769 242.550422967 463.657186099 238.935196019 470.227135932 238.935196019 c 0
 473.527172799 238.935196019 477.191649164 239.847309853 481.498046875 241.672851562 c 4
 497.250976562 248.379882812 511.115234375 285.650390625 511.115234375 285.650390625 c 6
 535.703125 322.375976562 560.819335938 382.587890625 585.883789062 445.28125 c 4
 612.588634321 512.078303211 629.541339835 557.033919075 629.541339835 576.844659982 c 0
 629.541339835 582.50426583 628.157741741 586.111668209 625.22265625 587.58984375 c 4
 624.005161956 588.204490782 622.12545221 588.433333688 619.73328218 588.433333688 c 0
 612.757914112 588.433333688 601.425317097 586.487581077 589.448338313 586.487581077 c 0
 579.017666026 586.487581077 568.098258915 587.96334763 559.142578125 593.485351562 c 4
 531.081257782 610.799433087 512.020757806 629.806195855 476.495222579 629.806195855 c 0
 469.862083057 629.806195855 462.654933254 629.14357491 454.708007812 627.68359375 c 6
 404.379882812 597.649414062 l 5
EndSplineSet
Validated: 1
EndChar

StartChar: U
Encoding: 85 85 42
Width: 910
Flags: W
HStem: 3.34751 159.567<329.187 427.158> 677.843 125.458<26.4492 122.237> 703.897 99.0862<369.2 617.408 796.047 897.235> 714.62 88.0901<103.876 181.191>
VStem: 19.3154 239.634<245.844 482.175> 668.403 107.981<409.665 644.133>
LayerCount: 2
Fore
SplineSet
888.760742188 802.983398438 m 5xac
 888.626953125 802.918945312 l 5
 888.626953125 802.918945312 889.248254894 803.045116696 890.152548848 803.045116696 c 0
 892.569706351 803.045116696 897.008789062 802.143646212 897.008789062 795.521484375 c 4
 897.008789062 782.098632812 898.63671875 736.936523438 898.63671875 721.338867188 c 4
 898.63671875 712.202148438 897.396484375 712.5234375 894.12109375 708.41796875 c 4
 890.70761967 704.13945526 878.23651194 703.144299789 863.246226876 703.144299789 c 0
 850.207464906 703.144299789 835.262752201 703.897211176 822.714923065 703.897211176 c 0xac
 809.251246941 703.897211176 798.547113131 703.030381074 795.91796875 699.436523438 c 4
 791.900758751 693.945336338 791.205143391 685.454699205 791.205143391 680.232374778 c 0
 791.205143391 677.465613354 791.400390625 675.616210938 791.400390625 675.616210938 c 6
 781.922726717 625.640974199 776.383258565 547.295242855 776.383258565 465.37895888 c 0
 776.383258565 391.441120344 780.896214417 314.594384067 791.099609375 253.075195312 c 6
 791.099609375 253.075195312 793.12890625 214.82421875 799.239257812 204 c 4
 810.250976562 184.494140625 848.85546875 177.814453125 868.534179688 159.401367188 c 4
 871.46484375 156.659179688 880.220703125 154.676757812 885.1796875 147.583984375 c 4
 886.39062396 145.852207218 888.489888276 130.919251313 888.489888276 121.020160611 c 0
 888.489888276 117.611349397 888.240955309 114.799459206 887.62109375 113.329101562 c 4
 883.876953125 104.446289062 875.692382812 99.099609375 869.592773438 94.5283203125 c 4
 823.498046875 59.9794921875 781.319335938 13.107421875 727.5625 -3.33203125 c 6
 727.5625 -3.33203125 723.455867791 -7.8860576675 716.294952721 -7.8860576675 c 0
 715.391665158 -7.8860576675 714.439778939 -7.81359562688 713.44140625 -7.650390625 c 4
 704.080078125 -6.1201171875 701.638671875 1.3642578125 701.638671875 1.3642578125 c 5
 701.638671875 1.3642578125 669.374023438 28.2421875 656.642578125 44.7392578125 c 4
 634.694335938 73.1787109375 607.2109375 120.911132812 592.034179688 151.352539062 c 4
 588.818359375 157.802734375 585.833007812 176.372070312 582.795898438 176.494140625 c 6
 582.795898438 176.494140625 581.570371085 177.28740833 579.861068891 177.28740833 c 0
 579.119518329 177.28740833 578.286916265 177.138107023 577.423828125 176.709960938 c 4
 573.2734375 174.650390625 561.674804688 160.008789062 561.674804688 160.008789062 c 5
 537.094726562 126.458984375 l 6
 496.439453125 70.96875 448.447265625 31.8662109375 400 12 c 4
 385.239577536 5.94742232156 369.300860106 3.34750666768 352.567863841 3.34750666768 c 0
 306.738136469 3.34750666768 254.950140053 22.8507292914 205.09375 44.3369140625 c 4
 105.852536437 87.1065082825 19.3153520641 210.141217733 19.3153520641 341.923510534 c 0
 19.3153520641 354.886082094 20.1526325625 367.933289883 21.8974609375 380.997070312 c 6
 21.8974609375 380.997070312 22.69921875 436.551757812 33.171875 465.412109375 c 4
 48.37890625 507.318359375 107.716796875 575.524414062 107.716796875 575.524414062 c 6
 156.289696587 647.272251029 181.193393315 688.046354315 181.193393315 705.083393028 c 0
 181.193393315 711.574455092 177.578403136 714.619873875 170.280149012 714.619873875 c 0x9c
 159.506209576 714.619873875 140.705442474 707.983083215 113.658203125 695.997070312 c 4
 104.765164752 692.056134406 44.8401829408 677.842955973 25.2800693555 677.842955973 c 0
 21.4534604829 677.842955973 19.171710949 678.386928056 19.119140625 679.658203125 c 6
 19.119140625 679.658203125 16.6361755254 715.705732658 16.6361755254 734.839830041 c 0
 16.6361755254 736.235501306 16.6493860763 737.541185097 16.677734375 738.736328125 c 4
 17.04296875 754.140625 16.30859375 787.744140625 26.322265625 799.454101562 c 4
 28.9833131448 802.565694086 34.6647312106 803.301171282 39.4416427365 803.301171282 c 0xcc
 43.7245000337 803.301171282 47.2802734375 802.709960938 47.2802734375 802.709960938 c 5x9c
 478.74609375 802.767578125 l 5
 888.760742188 802.983398438 l 5xac
535.088867188 704.600585938 m 6
 534.92578125 704.547851562 l 6
 529.638698137 702.838334473 523.995059213 702.219688962 517.905704705 702.219688962 c 0
 501.95083865 702.219688962 482.936112101 706.46672234 459.25778249 706.46672234 c 0
 453.673006172 706.46672234 447.828793387 706.230459664 441.704101562 705.646484375 c 6
 441.704101562 705.646484375 387.327148438 703.198242188 368.282226562 698.646484375 c 4
 351.840820312 694.716796875 327.911132812 654.993164062 327.911132812 654.993164062 c 6
 289.666015625 613.638671875 280.216796875 576.411132812 268.907226562 518.26953125 c 4
 259.533925572 470.08234432 254.67267832 438.70384553 254.67267832 403.874601943 c 0
 254.67267832 386.835153004 255.836189917 368.969788126 258.204101562 347.90625 c 4
 258.791339955 342.682327554 258.949308004 337.18424829 258.949308004 331.508338229 c 0
 258.949308004 324.898645198 258.735087604 318.047795905 258.735087604 311.107908479 c 0
 258.735087604 289.3108572 260.848340468 266.635457793 278.349609375 247.794921875 c 6
 278.349609375 247.794921875 312.643554688 186.674804688 352.58984375 167.873046875 c 4
 360.448659169 164.174120784 372.432832565 162.914918251 385.10864333 162.914918251 c 0
 412.149945734 162.914918251 442.338867188 168.645507812 442.338867188 168.645507812 c 6
 485.469726562 169.016601562 507.76171875 217.435546875 531.731445312 239.037109375 c 6
 576.663085938 279.529296875 l 6
 624.659003624 322.782598851 668.402640601 440.185224728 668.402640601 541.501844601 c 0
 668.402640601 617.661061689 643.685487614 684.730950618 577.477539062 704.384765625 c 4
 574.266709303 705.337894459 565.047324284 707.338417943 554.438680793 707.338417943 c 0
 548.156170933 707.338417943 541.386435919 706.636816778 535.088867188 704.600585938 c 6
EndSplineSet
Validated: 1
EndChar

StartChar: W
Encoding: 87 87 43
Width: 1106
Flags: W
HStem: -2.41602 119.76<647.648 705.212> 128 7<412 510> 685 114.414<72.3895 208> 710.48 87.52<395.496 534.555 711.406 805.951> 726 71<1015.38 1095.15>
VStem: 13.9699 200.503<275.643 470.781> 373 207.825<309.773 520.518> 799 182<182.011 529.208> 806 173.919<412.176 690.503>
LayerCount: 2
Fore
SplineSet
963 799 m 6xd7
 1009 800 l 6
 1016 800 1072 799 1089 797 c 4
 1093.39230485 796.267949192 1096.17691454 772.492267836 1096.17691454 757.057343563 c 0
 1096.17691454 751.407769174 1095.80384758 746.875644347 1095 745 c 4
 1092 739 1090 730 1078 726 c 4
 1062 720 1037 716 1020 707 c 4
 985.849085419 689.545088103 979.919387316 638.685470985 979.919387316 530.818364482 c 0xce80
 979.919387316 496.551069839 980.517818426 456.530521906 981 410 c 4
 983 232 974 191 1020 165 c 4
 1023.02557337 163.184655977 1028.52275219 162.650885146 1034.88514619 162.650885146 c 0
 1043.96792128 162.650885146 1054.81397172 163.738689614 1062.74976719 163.738689614 c 0
 1067.62822447 163.738689614 1071.4068782 163.327601501 1073 162 c 4
 1082.15809272 154.250844624 1088.8348049 135.087338767 1088.8348049 117.445088317 c 0
 1088.8348049 110.04399591 1087.65978196 102.910626588 1085 97 c 4
 1079 83 1057 71 1046 58 c 4
 1029 38 1005 20 987 13 c 4
 976.817930688 8.7128129211 966.348674296 6.72312247339 955.90003701 6.72312247339 c 0
 946.851251684 6.72312247339 937.817930688 8.21539030917 929 11 c 4
 909 18 867 41 849 63 c 4
 830.895068984 84.9164954409 842.754186152 131.349030305 822.281042373 131.349030305 c 0
 821.268894026 131.349030305 820.177722347 131.235544469 819 131 c 4
 797 127 767 79 738 50 c 4
 706.818120887 18.2184693658 683.187462664 -2.41602090778 656.542456109 -2.41602090778 c 0
 638.753311154 -2.41602090778 619.620560237 6.78153063422 596 28 c 4
 565 56 532 128 510 128 c 4
 493 128 467 93 443 71 c 4
 402.087804893 33.6234266923 347.399414654 8.49236016822 291.433822233 8.49236016822 c 0
 236.59594947 8.49236016822 180.53182778 32.6208370748 135 93 c 4
 89 154 58 210 36 260 c 4
 21.2590400744 292.757688724 13.9699285551 329.688412555 13.9699285551 366.235538657 c 0
 13.9699285551 396.629263744 19.011152532 426.757688724 29 454 c 4
 44 494 62 532 105 577 c 6
 201 664 l 5
 201 664 209 670 210 674 c 4
 210.142857143 674.428571429 210.204081633 674.959183673 210.204081633 675.55393586 c 0
 210.204081633 679.12244898 208 685 208 685 c 5
 119 688 l 6
 108 688 80 687 72 682 c 4
 52 670 40 641 29 637 c 4
 27.3523499554 636.400854529 25.592520131 636.138248398 23.7843619335 636.138248398 c 0
 13.520939617 636.138248398 1.70042726461 644.599145471 -0 648 c 4
 -2.42220510186 654.055512755 -3.74433316206 663.777948981 -3.74433316206 673.392441365 c 0
 -3.74433316206 679.655204588 -3.18334617361 685.872166581 -2 691 c 4
 8 741 17 799 43 799 c 4
 67.6030303803 799.292893219 105.331385718 799.414213562 152.114610945 799.414213562 c 0xe7
 265.059307779 799.414213562 430.779653889 798.707106781 592 798 c 4
 760 799 889 799 963 799 c 6xd7
457 710 m 5
 457 710 451.72 710.48 444.872 710.48 c 0xd6
 434.6 710.48 420.8 709.4 416 704 c 4
 362 674 302 586 250 515 c 4
 219 473 215 434 215 397 c 4
 215 383.274509804 214.472510573 370.905420992 214.472510573 359.065299168 c 0
 214.472510573 327.773548635 218.156862745 300.176470588 245 261 c 4
 286 203 372 135 412 135 c 4
 442.361278447 135 462.352225568 146.522590362 462.352225568 177.439184009 c 0
 462.352225568 187.254200134 460.337424699 199.023853748 456 213 c 4
 408 269 373 333 373 410 c 4
 373 504 403 543 438 591 c 4
 479 627 524 674 533 695 c 4
 534.091553891 697.319552018 534.568745804 699.192295325 534.568745804 700.704596258 c 0
 534.568745804 710.275950987 515.454223055 705.409332709 512 708 c 4
 499 710 457 710 457 710 c 5
782 712 m 6
 766 713 l 6
 764.486121811 713.151387819 762.926407079 713.234020823 761.320855804 713.234020823 c 0
 752.320855804 713.234020823 741.880570536 710.63750963 730 703 c 4
 681 671 626 592 597 517 c 4
 579 469 583 415 581 372 c 4
 580.883353414 368.150662652 580.824534138 364.270710844 580.824534138 360.366294758 c 0
 580.824534138 297.32634137 596.157961847 227.908865463 631 178 c 4
 661.265749728 135.042161676 679.854921745 117.34385881 697.8185483 117.34385881 c 0
 716.653773795 117.34385881 734.801277967 136.801277967 765 167 c 4
 772 174 798 203 799 224 c 4xc7
 804 322 804 564 806 686 c 4xc680
 806 709.385275521 798.467340067 712.181280556 790.875191688 712.181280556 c 0
 788.489155785 712.181280556 786.097244215 711.905119444 783.931432312 711.905119444 c 0
 783.263877409 711.905119444 782.617802415 711.931355287 782 712 c 6
EndSplineSet
Validated: 1
EndChar

StartChar: C
Encoding: 67 67 44
Width: 932
Flags: W
HStem: -57.5774 133.047<416.616 640.51> 693.739 101.3<360.721 583.883>
VStem: 12.3523 233.296<272.892 479.069> 777.18 137.723<197.368 260.443>
LayerCount: 2
Fore
SplineSet
188.717773438 44.2734375 m 6
 119.545786555 83.6309416594 12.3522755619 251.931874411 12.3522755619 387.166409455 c 0
 12.3522755619 415.701486794 17.1248353693 442.764354115 28.0341796875 466.833007812 c 4
 85.2509765625 593.06640625 155.859375 674.274414062 232.942382812 722.489257812 c 4
 322.735351562 778.654296875 426.413085938 794.524414062 513.4921875 795.012695312 c 4
 516.61983298 795.030242181 519.731673689 795.03912072 522.827586777 795.03912072 c 0
 672.907748188 795.03912072 785.557901674 774.174497015 846.783203125 708.498046875 c 4
 858.605080918 695.816850081 877.83910772 684.024314163 877.83910772 672.091794199 c 0
 877.83910772 669.555190851 876.969925167 667.012261647 874.975585938 664.453125 c 4
 845.828125 627.051757812 766.047851562 551.604492188 740.26171875 530.703125 c 4
 738.401099392 529.195002905 736.729148241 528.479351267 735.128957422 528.479351267 c 0
 721.935602645 528.479351267 713.620355426 577.127755924 644.66015625 631.370117188 c 4
 598.216796875 667.901367188 582.745117188 677.475585938 536.748046875 686.583984375 c 4
 515.089421685 690.872926793 490.178750034 693.73947434 464.538531743 693.73947434 c 0
 408.124251434 693.73947434 348.178239219 679.862530925 311.568359375 636.7265625 c 4
 277.208984375 596.2421875 267.864257812 582.418945312 252.624023438 510.440429688 c 4
 248.094878925 489.049303362 245.648342818 456.862010402 245.648342818 422.482372013 c 0
 245.648342818 385.972932786 248.407391387 346.991105148 254.361328125 315.840820312 c 4
 269.260742188 237.88671875 278.16796875 88.119140625 538 76 c 4
 545.559305473 75.6474067031 552.876044721 75.4694470281 559.970945302 75.4694470281 c 0
 652.523432037 75.4694470281 707.325584187 105.752883754 770.389648438 173.703125 c 4
 775.80242442 179.535271557 777.179616359 190.177558548 777.179616359 202.092769552 c 0
 777.179616359 214.438226436 775.701170821 228.150194969 775.701170821 239.2942805 c 0
 775.701170821 249.678983083 776.984992141 257.833841644 781.9453125 260.575195312 c 4
 795.442976489 268.034723283 817.699234116 270.473264199 840.221084681 270.473264199 c 0
 865.172118454 270.473264199 890.449128106 267.480317449 904.50390625 265.005859375 c 4
 912.533137461 263.592226521 914.90271641 252.158361373 914.90271641 241.119239009 c 0
 914.90271641 235.198092083 914.220984279 229.390513367 913.365234375 225.303710938 c 4
 911.627929688 217.0078125 905.071289062 210.749023438 895.990234375 200.239257812 c 4
 878.875 180.432617188 867.263671875 147.23828125 858.069335938 123.78125 c 4
 815.055084828 14.043323695 647.338301197 -57.5773934663 486.622659568 -57.5773934663 c 0
 413.372229391 -57.5773934663 341.576162667 -42.6994559139 283.704101562 -9.771484375 c 6
 188.717773438 44.2734375 l 6
EndSplineSet
Validated: 1
EndChar

StartChar: Amacron
Encoding: 256 256 45
Width: 856
Flags: W
HStem: 473.645 98.0967<20.1396 103.172 267.945 329.44 329.44 412.471 576.812 799.096>
VStem: 103.634 164.166<-0.540302 473.257 571.497 643.351> 411.15 165.663<-0.334701 473.211 571.741 647.934>
LayerCount: 2
Fore
SplineSet
409.251953125 816.103515625 m 5
 407.991210938 816.393554688 l 5
 408.40625 816.393554688 409.016601562 816.224609375 409.235351562 816.173828125 c 4
 415.920898438 814.928710938 435.892578125 809.158203125 442.908203125 805.004882812 c 4
 444.237304688 804.174804688 444.569335938 803.760742188 444.569335938 803.760742188 c 5
 501.42578125 734.670898438 l 6
 586.877929688 767.310546875 711.05078125 815.34765625 711.05078125 815.34765625 c 5
 711.05078125 815.34765625 714.898028173 816.263667422 717.304121159 816.263667422 c 0
 717.703249524 816.263667422 718.062721722 816.238461584 718.358398438 816.1796875 c 4
 725.041992188 814.93359375 745.012695312 809.162109375 752.028320312 805.009765625 c 4
 753.361328125 804.180664062 753.69140625 803.763671875 753.69140625 803.763671875 c 5
 841.874023438 696.69921875 l 5
 841.874023438 696.69921875 842.791015625 695.453125 843.118164062 694.208007812 c 4
 843.197497003 693.731823506 843.231373167 693.246505028 843.231373167 692.755544294 c 0
 843.231373167 690.677989574 842.624768622 688.499401631 842.2890625 686.484375 c 4
 841.874023438 684.409179688 840.627929688 683.993164062 840.627929688 683.993164062 c 5
 756.522460938 612.330078125 l 5
 756.522460938 612.330078125 755.690429688 611.084960938 753.201171875 611.084960938 c 4
 753.156172214 611.084748961 753.110581118 611.084643434 753.064404878 611.084643434 c 0
 744.175892348 611.084643434 713.60612306 614.994716262 706.212890625 616.233398438 c 4
 704.13671875 616.649414062 702.890625 618.309570312 702.890625 618.309570312 c 5
 659.98046875 683.750976562 l 5
 659.98046875 683.750976562 642.143713476 698.802209164 618.661614372 698.802209164 c 0
 611.137922204 698.802209164 603.034696463 697.25709608 594.752929688 693.176757812 c 4
 578.903760371 685.370601184 576.439498292 656.643021777 576.439498292 639.531370069 c 0
 576.439498292 631.80882368 576.94140625 626.452148438 576.94140625 626.452148438 c 5
 576.720703125 571.741210938 l 5
 803.081054688 571.741210938 l 5
 803.081054688 571.741210938 805.73828125 571.741210938 807.399414062 570.495117188 c 4
 809.849609375 568.461914062 811.095703125 568.044921875 812.755859375 564.724609375 c 4
 813.125101913 563.84463884 813.179244478 563.12758377 813.179244478 562.667209577 c 0
 813.179244478 562.476175799 813.169921875 562.32933893 813.169921875 562.233398438 c 6
 807.150390625 486.708007812 l 5
 807.150390625 486.708007812 806.735351562 481.685546875 804.659179688 479.194335938 c 4
 803.4140625 477.161132812 799.095703125 473.422851562 799.095703125 473.422851562 c 5
 576.8125 473.64453125 l 5
 576.8125 31.4365234375 l 5
 576.8125 31.4365234375 576.810010818 31.3154052607 576.810010818 31.090545749 c 0
 576.810010818 28.7222245492 577.086141955 14.8456209434 583.455078125 9.763671875 c 4
 587.551815769 6.35817530601 587.734163142 0.611338469413 587.734163142 -0.384849697462 c 0
 587.734163142 -0.482197075333 587.732421875 -0.5341796875 587.732421875 -0.5341796875 c 5
 576.979492188 -0.314453125 l 5
 399.111328125 -1.1435546875 l 5
 399.111328125 -1.1435546875 399.111328125 3.2568359375 402.014648438 8.07421875 c 4
 405.476387631 13.7575554728 411.898683171 20.1368151808 411.898683171 25.3047203283 c 0
 411.898683171 25.3458018783 411.898277331 25.3868068799 411.897460938 25.427734375 c 4
 411.351047646 56.298671095 411.149729803 101.900112317 411.149729803 152.349607274 c 0
 411.149729803 293.499689219 412.725637918 472.600144118 412.728515625 473.2109375 c 6
 372.620117188 473.431640625 l 5
 327.780273438 473.2109375 l 5
 327.780273438 473.2109375 327.780273438 473.2109375 326.94921875 473.431640625 c 6
 267.9453125 473.431640625 l 5
 267.9453125 31.2294921875 l 5
 267.9453125 31.2294921875 267.942804433 31.1077845569 267.942804433 30.8818738325 c 0
 267.942804433 28.5084823402 268.219628707 14.6338240111 274.58984375 9.5556640625 c 4
 278.68399241 6.15335894235 278.866998264 0.409226701 278.866998264 -0.590617924331 c 0
 278.866998264 -0.68877816991 278.865234375 -0.7412109375 278.865234375 -0.7412109375 c 5
 268.153320312 -0.5224609375 l 5
 90.287109375 -1.3505859375 l 5
 90.287109375 -1.3505859375 90.287109375 3.05078125 93.193359375 7.8642578125 c 4
 96.6543866591 13.5489854373 103.077371291 19.9710779716 103.077371291 25.1398479559 c 0
 103.077371291 25.1805495943 103.076973013 25.2211735163 103.076171875 25.26171875 c 4
 102.396702282 57.2708360828 102.149629035 105.145891688 102.149629035 157.850937708 c 0
 102.149629035 298.383953399 103.90625 473.256835938 103.90625 473.256835938 c 5
 18.9365234375 473.038085938 l 5
 18.9365234375 473.038085938 18.7516278595 472.991753281 18.4589307596 472.991753281 c 0
 17.8745671833 472.991753281 16.8605145142 473.176431909 16.0302734375 474.283203125 c 4
 14.3291015625 476.358398438 8.0166015625 483.583984375 6.35546875 485.659179688 c 4
 5.26126427371 486.875636803 5.10544667648 488.647889921 5.10544667648 489.611739665 c 0
 5.10544667648 489.733490953 5.10793292741 489.842343225 5.111328125 489.935546875 c 6
 7.1865234375 561.169921875 l 5
 7.1865234375 561.169921875 7.1865234375 562.416015625 8.4326171875 563.662109375 c 4
 10.4248046875 564.908203125 15.158203125 569.474609375 17.234375 570.3046875 c 4
 19.310546875 571.5078125 20.1396484375 571.551757812 20.1396484375 571.551757812 c 5
 103.171875 571.331054688 l 5
 103.171875 571.331054688 103.634192314 580.718622755 103.634192314 592.97941358 c 0
 103.634192314 610.338882891 102.707413536 633.458123244 98.2294921875 643.84765625 c 4
 94.9091796875 651.4453125 90.2998046875 651.404296875 85.1513671875 659.501953125 c 4
 84.6516499334 660.37128222 84.441963549 662.671363367 84.441963549 665.673334794 c 0
 84.441963549 674.140454785 86.110088398 688.191345124 87.6435546875 691.471679688 c 4
 95.365234375 700.31640625 106.120117188 702.514648438 115.087890625 705.421875 c 5
 115.087890625 705.006835938 l 5
 129.934570312 709.490234375 403.026367188 814.858398438 403.026367188 814.858398438 c 5
 403.026367188 814.858398438 406.651583982 816.10438905 409.139253453 816.10438905 c 0
 409.177088731 816.10438905 409.214660873 816.104100831 409.251953125 816.103515625 c 5
307.983398438 698.524414062 m 6
 307.787109375 698.5 l 6
 300.895507812 698.250976562 293.587890625 696.671875 286.115234375 692.934570312 c 4
 270.26421027 685.124808287 267.800298887 656.39058144 267.800298887 639.279386564 c 0
 267.800298887 631.559952211 268.301757812 626.206054688 268.301757812 626.206054688 c 5
 267.888671875 571.497070312 l 5
 328.609375 571.497070312 l 6
 329.219726562 571.658203125 329.440429688 571.716796875 329.440429688 571.716796875 c 5
 412.470703125 571.497070312 l 5
 412.470703125 571.497070312 413.024088542 581.225368924 413.024088542 593.812463831 c 0
 413.024088542 600.106011285 412.885742188 607.114257812 412.470703125 613.978515625 c 4
 401.794921875 636.083984375 380.4296875 662.23828125 351.32421875 683.49609375 c 6
 351.32421875 683.49609375 333.50831018 698.555970659 309.854451603 698.555970659 c 0
 309.23470303 698.555970659 308.610946829 698.545632374 307.983398438 698.524414062 c 6
EndSplineSet
Validated: 5
EndChar

StartChar: M
Encoding: 77 77 46
Width: 1028
Flags: W
HStem: 727 80.5184<918.012 1022.76> 727 71.7671<28 100.502 586.156 651.395 918 971.775>
VStem: 117.446 84.5537<-4.19498 591.397> 742 175<126.909 592.941>
LayerCount: 2
Fore
SplineSet
7 -163 m 5xb0
 7 -149 7 -129 15 -119 c 4
 23 -109 65 -62 80 -35 c 4
 95 -8 101 6 107 28 c 4
 115 57 117 116 117 116 c 5
 118 381 l 5
 117 549 l 5
 117 549 117.446280992 559.785123967 117.446280992 575.9797145 c 0
 117.446280992 619.165289256 114.272727273 700.818181818 91 719 c 4
 82.5594117215 725.832857178 73.47262362 727.496115772 65.0382801363 727.496115772 c 0
 57.0364923347 727.496115772 49.6219438793 725.999083131 43.9035478371 725.999083131 c 0
 40.6531289039 725.999083131 37.9507283098 726.48276687 36 728 c 4
 14 745 17 775 16 783 c 4
 15.962962963 783.37037037 15.9451303155 783.735253772 15.9451303155 784.094548595 c 0
 15.9451303155 793.436213992 28 799 28 799 c 5
 181 798 l 5
 329 799 l 5
 409 614 l 6
 450 520 481 445 493 422 c 6
 506 398 l 5
 506 398 511.710718002 386.578563996 517.974086133 386.578563996 c 0
 518.64516129 386.578563996 519.322580645 386.709677419 520 387 c 4
 525 389 537 414 537 414 c 5
 580 499 l 6
 614 566 630 597 634 604 c 4
 638 612 648 634 649 661 c 6
 651 710 l 5
 651 710 651.395061728 713.358024691 651.395061728 717.089163237 c 0
 651.395061728 721.75308642 650.777777778 727 648 727 c 4
 645.333333333 727 642.666666667 726.555555556 632.592592593 726.555555556 c 0
 627.555555556 726.555555556 620.666666667 726.666666667 611 727 c 4
 610 727 608.56 726.96 606.864 726.96 c 0
 600.08 726.96 589.2 727.6 586 734 c 4
 584.25658351 736.90569415 583.188611699 753.995726574 583.188611699 769.372748468 c 0
 583.188611699 780.455878774 583.74341649 790.649110641 585 794 c 4
 586.22654092 798.292893219 593.846793007 798.824779869 601.171865 798.824779869 c 0
 603.584973277 798.824779869 605.966047132 798.767056866 608.075948411 798.767056866 c 0x70
 610.004848777 798.767056866 611.707106781 798.815300969 613 799 c 4
 613.788911658 799.112701665 615.568553215 799.161895004 618.253034741 799.161895004 c 0
 636.703431565 799.161895004 697.896568435 796.838104996 773.946965259 796.838104996 c 0
 785.012086909 796.838104996 796.391728466 796.887298335 808 797 c 6
 918 799 l 5
 918 799 934.2624 807.5184 973.60192 807.5184 c 0
 978.9664 807.5184 984.76 807.36 991 807 c 4
 1006 806 1018 803 1023 794 c 4
 1025.88235294 789.058823529 1026.73010381 779.200692042 1026.73010381 769.312639935 c 0
 1026.73010381 755.186851211 1025 741 1025 741 c 5
 1025 741 1018 728 996 727 c 4
 974 726 918 725 918 725 c 5
 917 412 l 5
 917 412 917 292 917 211 c 4
 917 189 921 145 932 126 c 4
 944 104 963 86 982 79 c 4
 1002 72 1020 55 1020 55 c 5
 1020 55 1022.20408163 55 1022.20408163 41.1457725948 c 0
 1022.20408163 38.8367346939 1022.14285714 36.1428571429 1022 33 c 4
 1020 4 1010 2 1010 2 c 5
 826 2 l 5
 642 2 l 5
 642 2 641.147928994 1.81065088757 639.735093309 1.81065088757 c 0
 636.556213018 1.81065088757 630.538461538 2.76923076923 625 9 c 4
 621.605551275 12.9601901786 620.451546301 19.1608241074 620.451546301 25.2479511055 c 0
 620.451546301 29.9203803573 621.131482908 34.5259316327 622 38 c 4
 625 48 618 65 659 78 c 4
 692 88 717 103 729 121 c 4
 739 136 743 162 743 162 c 6
 741.828427125 232.294372515 741.343145751 345.481963844 741.343145751 434.425391643 c 0
 741.343145751 497.317892581 741.585786438 548.088311755 742 563 c 6
 742 574 l 5
 742 574 736 592 729 593 c 4
 728.820512821 593.025641026 728.63773833 593.038132807 728.451963115 593.038132807 c 0
 721.392504931 593.038132807 710 575 710 575 c 5
 696 548 l 6
 678 513 648 452 600 356 c 4
 560 276 516 188 499 149 c 4
 489 128 477 96 470 83 c 4
 465 74 461 68 458 68 c 4
 456 68 451 74 446 83 c 4
 437 99 426 141 410 177 c 4
 356 298 214 581 212 586 c 6
 212 586 209 592 206 592 c 4
 204 592 202 586 202 586 c 5
 202 311 l 6
 202.186337709 250.626582197 202.476840644 201.121069608 202.476840644 160.02487369 c 0
 202.476840644 -19.4257863109 196.9377637 -38.5343413229 153 -102 c 4
 100.492156969 -177.140533992 62.736788503 -192.451587806 43.4437634653 -192.451587806 c 0
 41.425773089 -192.451587806 39.6097701461 -192.284077085 38 -192 c 6
 38 -192 19 -191 13 -184 c 4
 7 -177 7 -163 7 -163 c 5xb0
EndSplineSet
Validated: 5
EndChar

StartChar: O
Encoding: 79 79 47
Width: 802
Flags: W
HStem: -3.62048 175.134<333.212 502.074> 650.317 146.062<294.285 439.785>
VStem: 8.89319 122.149<373.673 501.95> 671.404 118.732<280.374 446.957>
LayerCount: 2
Fore
SplineSet
200.7578125 726.685546875 m 4
 264.63671875 767.584960938 321.369140625 791.602539062 395.506835938 795.762695312 c 4
 402.780387815 796.170937178 410.158334692 796.379553433 417.601456733 796.379553433 c 0
 469.822294191 796.379553433 525.251317485 786.110615499 570.34375 762.467773438 c 4
 637.504882812 727.389648438 676.78515625 699.526367188 704.868164062 658.841796875 c 4
 742.415039062 604.448242188 776.068359375 547.192382812 783.229492188 494.791015625 c 4
 787.66614728 462.316851264 790.13585025 433.684859131 790.13585025 406.708966383 c 0
 790.13585025 366.077903283 784.532994482 329.203925995 771.609375 288.6171875 c 4
 745.04296875 205.181640625 695.953125 135.77734375 620.318359375 84.87109375 c 4
 585.462890625 65.42578125 555.93359375 40.6962890625 512.234375 22.0859375 c 4
 478.656014221 7.78764256827 449.927953223 -3.6204770575 416.185534223 -3.6204770575 c 0
 412.801150809 -3.6204770575 409.366321942 -3.50570907306 405.87109375 -3.267578125 c 4
 309.4140625 3.2998046875 256.7421875 7.1328125 142.705078125 108.259765625 c 4
 107.60546875 139.384765625 72.501953125 185.30859375 50.93359375 225.768554688 c 4
 27.8212721215 269.125060883 8.89318936511 325.586492784 8.89318936511 378.657991115 c 0
 8.89318936511 382.923043516 9.01543480591 387.166202314 9.267578125 391.37890625 c 4
 12.34375 442.819335938 22.99609375 487.944335938 44.2646484375 539.76171875 c 4
 79.7177734375 626.145507812 126.336914062 674.013671875 200.7578125 726.685546875 c 4
277.517578125 646.178710938 m 4
 241.34375 640.178710938 215.197265625 628.630859375 200.65625 620.796875 c 4
 157.694335938 608.549804688 140.698242188 551.09375 133.560546875 506.375976562 c 4
 131.790826228 495.29159671 131.042363436 484.736544774 131.042363436 474.73695823 c 0
 131.042363436 431.830487912 144.822442404 399.150787782 150.83203125 378.762695312 c 4
 165.58203125 328.748046875 193.739257812 274.014648438 237.541992188 243.78515625 c 4
 306.00390625 196.538085938 363.62109375 175.701171875 444 172 c 4
 450.776841503 171.688233778 457.81402375 171.513918108 465.029520962 171.513918108 c 0
 510.136494173 171.513918108 562.212020865 178.326179018 601.216796875 200.95703125 c 4
 655.306640625 232.34375 659.118164062 244.892578125 667.024414062 289.88671875 c 4
 669.848881221 305.962969297 671.403975193 322.72058807 671.403975193 339.799993392 c 0
 671.403975193 367.629804501 667.275100859 396.313979555 657.78125 424.296875 c 4
 628.09765625 521.97265625 545.74609375 586.912109375 453.385742188 623.83203125 c 4
 412.497720306 640.150185929 371.393727247 650.317122425 326.949951966 650.317122425 c 0
 310.953690247 650.317122425 294.524781958 649.000063435 277.517578125 646.178710938 c 4
EndSplineSet
Validated: 1
EndChar

StartChar: acute
Encoding: 180 180 48
Width: 289
Flags: W
HStem: 632 175
VStem: 45 217
LayerCount: 2
Fore
SplineSet
262 807 m 5
 263.076696831 803.052111621 263.638159855 788.799547108 263.638159855 771.592752 c 0
 263.638159855 740.856259958 261.846606339 700.693212678 258 693 c 6
 58 632 l 5
 58 632 47 649 45 658 c 4
 43 666 43 687 43 687 c 5
 43 687 64 689 82 701 c 4
 122 727 185 772 217 796 c 4
 235 805 262 807 262 807 c 5
EndSplineSet
Validated: 5
EndChar

StartChar: Q
Encoding: 81 81 51
Width: 866
Flags: W
HStem: -237 78<870.595 952.864> -60.016 180.123<337.97 547.266> 637.278 169.26<310.269 481.126>
VStem: 3.81339 148.187<295.607 493.7>
LayerCount: 2
Fore
SplineSet
127 652 m 4
 180 707 234 758 314 787 c 4
 352.647615159 797.54025868 382.808649877 806.537502734 434.300021871 806.537502734 c 0
 441.431164058 806.537502734 448.971422738 806.36493533 457 806 c 4
 549 797 584 804 659 756 c 4
 732 710 788 616 818 535 c 4
 831.627861367 493.314776995 839.472098343 434.278680819 839.472098343 388.800900252 c 0
 839.472098343 377.547675944 838.99180548 367.124610419 838 358 c 4
 821 185 785 178 748 134 c 4
 749 84 791 -10 813 -55 c 4
 823 -75 838 -103 856 -125 c 4
 884 -158 934 -156 969 -159 c 4
 974.807969982 -159.483997498 977.336389864 -163.306108491 977.336389864 -169.063278421 c 0
 977.336389864 -187.096189837 952.530043776 -224.113978737 926 -237 c 6
 926 -237 898.778827977 -243.533081285 860.101093121 -243.533081285 c 0
 824.646502836 -243.533081285 779.565217391 -238.043478261 737 -217 c 4
 681 -189 626 -107 595 -42 c 4
 585 -20 587 -8 585 5 c 5
 555 -22 517 -29 476 -44 c 4
 454.371129392 -54.0133660224 426.806422837 -60.0160320808 394.719533693 -60.0160320808 c 0
 346.696275379 -60.0160320808 288.543328065 -46.5700601099 225 -13 c 4
 169 17 97 79 67 138 c 4
 23.8047618626 222.07644566 3.81338702624 324.002016937 3.81338702624 392.376898394 c 0
 3.81338702624 412.645893593 5.57015307252 429.966581676 9 443 c 4
 39 559 86 615 127 652 c 4
210 606 m 4
 182 564 156 503 152 394 c 4
 156 336 161 317 181 281 c 4
 223 206 312 137 393 125 c 4
 416.520421658 121.692440704 440.07460859 120.106910338 463.066930698 120.106910338 c 0
 565.200648957 120.106910338 656.247612003 151.392704241 684 202 c 6
 684 202 696 222 707 251 c 4
 709.983154039 259.203673607 711.35950663 271.795151169 711.35950663 286.792572512 c 0
 711.35950663 332.123600111 698.785095752 399.435423816 680 434 c 4
 654 482 605 555 530 597 c 4
 483 623 389 635 335 637 c 4
 330.493366855 637.150221105 325.761069907 637.277875829 320.786159423 637.277875829 c 0
 292.643815909 637.277875829 256.737839235 633.192924646 210 606 c 4
EndSplineSet
Validated: 1
EndChar

StartChar: J
Encoding: 74 74 52
Width: 718
Flags: W
HStem: -248.452 73.4524<205.312 289.724> 607.767 99.2327<467.57 522.957> 621.172 176.828<167.85 271>
VStem: 369.828 223.172<203.75 403.602> 392.668 200.883<-44.0739 353.184> 523.772 65.228<545.952 607.428>
LayerCount: 2
Fore
SplineSet
205 -232 m 5xc8
 199.627010237 -222.080634285 197.328827231 -212.332091167 197.328827231 -203.601596555 c 0
 197.328827231 -191.208576147 201.959682858 -180.866930952 209 -175 c 4
 225 -162 275 -165 298 -149 c 6
 298 -149 358 -122 373 -95 c 4
 389.817202844 -65.7256098637 392.668069318 -34.8994045752 392.668069318 -1.79646218459 c 0xc8
 392.668069318 15.1838489523 391.917942024 32.763220991 391.917942024 51.039496622 c 0
 391.917942024 54.3367892772 391.942358027 57.6567655488 392 61 c 4
 392.605551275 83.1026215544 392.936083291 106.121973977 392.936083291 129.30863508 c 0
 392.936083291 182.702313388 391.183346174 236.98319209 387 283 c 4
 384.175508317 308.420425146 369.827595249 347.137105736 369.827595249 361.594878855 c 0xd0
 369.827595249 362.493256232 369.882994455 363.297966731 370 364 c 4
 375 399 474 505 474 505 c 6
 508.975042241 552.175638371 523.77202381 582.150306989 523.77202381 596.874647029 c 0
 523.77202381 604.217051514 520.092614801 607.767317981 513.401028648 607.767317981 c 0xc4
 500.515395184 607.767317981 476.460257198 594.602515429 446 570 c 4
 425 553 395 546 368 545 c 4
 366.730258235 544.963721664 365.461832587 544.945868975 364.194770804 544.945868975 c 0
 330.535705377 544.945868975 297.839093243 557.544175042 267 572 c 4
 236.237062527 586.42012694 197.156522615 621.172170954 176.411909822 621.172170954 c 0
 175.57771175 621.172170954 174.773164079 621.115974612 174 621 c 4
 149 618 105 563 105 563 c 5
 105 563 60 491 47 486 c 4
 45.7311051309 485.456187913 44.3636330665 485.208107412 42.9511912771 485.208107412 c 0
 36.5717404787 485.208107412 29.2749172176 490.268894869 26 496 c 4
 19.6 506.4 18.96 529.6 18.96 538.464 c 0
 18.96 540.68 19 542 19 542 c 6
 18.3781800229 545.730919863 18.0221888535 550.766817509 18.0221888535 556.769584081 c 0
 18.0221888535 589.380993918 28.5291097596 650.52910976 64 686 c 6
 64 686 102 740 136 760 c 4
 164 777 216 798 246 798 c 4xa4
 296 798 353 771 404 731 c 4
 427 713 459 707 488 707 c 4
 528 707 590 734 590 734 c 6
 625 743 647 795 665 801 c 4
 669.663339356 802.603022904 674.071834174 803.356564013 678.154302654 803.356564013 c 0
 695.587586575 803.356564013 707.07568497 789.615521742 707.07568497 769.604319764 c 0
 707.07568497 762.145104661 705.479482208 753.814688259 702 745 c 4
 694 724 644 678 620 658 c 4
 589 633 589 637 589 606 c 6xc4
 593 335 l 5xd0
 593 335 593.551020408 289.632653061 593.551020408 232.903790087 c 0
 593.551020408 157.265306122 592.571428571 61.4285714286 588 26 c 4
 583 -9 576 -41 560 -72 c 4
 543 -105 538 -109 514 -134 c 4
 481 -168 394 -208 394 -208 c 6
 357.77183906 -230.395590399 295.511024001 -248.452405113 251.801181662 -248.452405113 c 0
 229.152664475 -248.452405113 211.48481713 -243.604409601 205 -232 c 5xc8
EndSplineSet
Validated: 1
EndChar

StartChar: Z
Encoding: 90 90 53
Width: 782
Flags: W
HStem: 6.873 211.918<480.48 608.741> 69.9004 165.104<293.029 361.532> 641.27 163.411<210.089 328.473>
VStem: 75.0573 76.0922<539.274 596.212>
LayerCount: 2
Fore
SplineSet
178.884765625 61.6845703125 m 5x70
 145.865234375 56.865234375 89.552734375 16.744140625 53.9306640625 10.0966796875 c 4
 50.5299749541 9.46092770012 47.3645380955 9.1661810209 44.4190651024 9.1661810209 c 0
 13.1959858277 9.1661810209 6.68973347546 42.2861784271 6.68973347546 53.4257649823 c 0
 6.68973347546 54.765638966 6.78386187365 55.7875140845 6.9404296875 56.3955078125 c 4
 14.185546875 84.5634765625 48.6591796875 107.618164062 55.5390625 117.237304688 c 4
 78.4736328125 149.295898438 135.913085938 210.685546875 202.625976562 281.31640625 c 4
 289.357421875 373.137695312 393.6640625 460.220703125 434.283203125 512.083007812 c 6
 489.365234375 582.413085938 l 5
 489.365234375 582.413085938 507.639489813 601.353874048 507.639489813 611.708041483 c 0
 507.639489813 612.091357659 507.614444664 612.46290574 507.5625 612.821289062 c 4
 507.399844252 614.024941595 505.81807277 614.483568042 503.501729364 614.483568042 c 0
 496.083170076 614.483568042 481.129882813 609.779296875 481.129882812 609.779296875 c 5
 481.129882812 609.779296875 455.624023438 599.850585938 423.987304688 599.407226562 c 4
 422.797514973 599.389349389 421.618285687 599.380538586 420.449404512 599.380538586 c 0
 339.853387491 599.380538586 308.45537719 641.269728243 256.65465365 641.269728243 c 0
 251.752432862 641.269728243 246.667485376 640.894568662 241.340820312 640.073242188 c 4
 213.997070312 635.852539062 167.538085938 598.29296875 151.149414062 572.966796875 c 4
 138.298828125 553.109375 146.040039062 536.852539062 117.46484375 530.189453125 c 4
 115.488607071 529.728247856 113.33646855 529.508490612 111.098739219 529.508490612 c 0
 101.979004482 529.508490612 91.4376729462 533.158487576 85.587890625 538.990234375 c 4
 79.6155766081 544.963349615 75.0572542867 555.532759571 75.0572542867 564.639560256 c 0
 75.0572542867 566.632495047 75.2755572071 568.555383919 75.7451171875 570.344726562 c 4
 86.75 612.3671875 129.379882812 681.547851562 129.379882812 681.547851562 c 5
 129.379882812 681.547851562 189.444335938 780.938476562 227.220703125 794.407226562 c 4
 248.185705612 801.883247674 274.120146274 804.680986198 302.561213252 804.680986198 c 0
 387.186370602 804.680986198 494.003546314 779.911652101 558.135547793 779.911652101 c 0
 558.625746314 779.911652101 559.113450978 779.913099234 559.598632812 779.916015625 c 4
 622.926757812 780.258789062 674.416015625 787.793945312 674.416015625 787.793945312 c 5
 719.169921875 803.19140625 l 5
 719.169921875 803.19140625 728.726495232 806.873253633 739.509862771 806.873253633 c 0
 749.453259474 806.873253633 760.43977174 803.742661428 765.938476562 791.708007812 c 4
 767.288289466 788.753101504 767.867830821 785.576307075 767.867830821 782.299328396 c 0
 767.867830821 762.38486565 746.46484375 738.770507813 746.46484375 738.770507812 c 6
 736.500976562 719.715820312 625.291992188 599.850585938 515.965820312 484.520507812 c 4
 406.641601562 369.188476562 307.372070312 272.826171875 300.829101562 254.611328125 c 6
 300.829101562 254.611328125 292.040336583 243.135287487 292.040336583 238.083188305 c 0
 292.040336583 237.186710979 292.317070719 236.492505975 292.96875 236.100585938 c 4
 294.241578381 235.332405242 295.886830708 235.004625049 297.953377125 235.004625049 c 0
 308.759775268 235.004625049 331.086292447 243.967643826 371.920898438 245.790039062 c 4
 380.166480252 246.158731706 388.899315874 246.335255771 397.902258823 246.335255771 c 0
 453.164956197 246.335255771 518.604928993 239.684069933 544 230 c 4
 565.498776447 221.76784875 582.601626813 218.791003339 597.066195581 218.791003339 c 0
 620.414934142 218.791003339 636.889237674 226.54761673 653.881835938 232.477539062 c 4
 680.20703125 243.91015625 688.015625 258.068359375 705.080078125 279.708007812 c 4
 710.685546875 286.799804688 716.888671875 310.063476562 728.661132812 327.553710938 c 4
 732.920987707 333.877854841 739.066503067 335.823818532 744.718357176 335.823818532 c 0
 749.451340617 335.823818532 753.838131981 334.459163702 756.481445312 333.158203125 c 4
 762.9921875 329.962890625 771.913085938 315.97265625 773.125976562 305.8046875 c 4
 773.308653081 304.289134554 773.392705283 302.63190586 773.392705283 300.865248239 c 0
 773.392705283 280.485025647 762.20703125 245.541992188 762.20703125 245.541992188 c 6
 751.1328125 179.084960938 669.603515625 58.1181640625 594.204101562 33.421875 c 4
 572.602714867 26.3501417193 531.976621066 6.87300203884 488.3905105 6.87300203884 c 0xb0
 472.569372323 6.87300203884 456.358226263 9.43928413165 440.525390625 16.0966796875 c 4
 368.708233482 46.295070564 319.688403602 69.9004154611 252.394351906 69.9004154611 c 0
 230.334842891 69.9004154611 206.311624466 67.3638347865 178.877929688 61.69140625 c 5
 178.884765625 61.6845703125 l 5x70
EndSplineSet
Validated: 1
EndChar

StartChar: B
Encoding: 66 66 54
Width: 868
Flags: W
HStem: -2 74<463.416 639.469> 606 86<13.2878 138.903> 712 86<403.814 548.408>
VStem: 146 184<203 346.387 418.693 599.22> 600 185<558.264 664.795> 678 181<173.126 282.631>
LayerCount: 2
Fore
SplineSet
11 684 m 5xf4
 16 690 27 692 41 692 c 4
 56 692 77 690 102 690 c 4
 103 690 103 690 104 690 c 4
 120 691 164 698 192 706 c 4
 228 716 256 727 281 735 c 4
 314 746 359 760 383 769 c 4
 453 793 452 793 506 797 c 4
 512 797 517 798 523 798 c 4
 576 798 638 780 684 764 c 4
 746 740 785 714 785 647 c 4
 785 645 785 644 785 642 c 4xf8
 776 544 753 542 676 490 c 4
 644 473 641 477 637 476 c 5
 644 474 658 478 691 468 c 4
 747 453 780 437 816 387 c 4
 845 337 859 295 859 256 c 4
 859 201 831 151 778 93 c 4
 715 19 629 -2 530 -2 c 4
 512 -2 493 -1 474 0 c 4
 359 17 312 72 258 72 c 4
 256 72 254 72 252 72 c 4
 193 67 152 57 95 15 c 6
 95 15 72 3 49 3 c 4
 40 3 31 5 24 10 c 4
 18 14 12 28 12 41 c 4
 12 45 13 48 14 51 c 4
 21 72 57 89 57 89 c 5
 102 119 l 5
 102 119 123 132 134 147 c 4
 144 161 146 184 146 184 c 5
 147 363 l 5
 146 557 l 5
 146 557 143 579 137 588 c 4
 126 606 98 606 94 606 c 4
 93 606 l 6
 89 606 85 606 81 606 c 4
 72 606 61 606 52 606 c 4
 34 606 19 607 13 613 c 4
 8 618 4 632 4 648 c 4
 4 660 6 673 11 684 c 5xf4
435 708 m 5
 435 708 384 690 362 664 c 4
 330 627 330 593 330 592 c 4
 330 531 l 6
 334 454 325 418 346 418 c 4
 347 418 347 418 348 418 c 4
 355 419 366 422 382 427 c 4
 401 436 448 452 494 474 c 6
 494 474 540 499 562 526 c 4
 581 550 599 581 600 612 c 4
 600 614 600 615 600 617 c 4
 600 643 592 653 572 673 c 4
 539 706 494 712 494 712 c 5
 494 712 488 712 479 712 c 4
 466 712 446 711 435 708 c 5
520 393 m 6
 490 396 l 6
 487 396 483 397 480 397 c 4
 450 397 411 384 411 384 c 5
 411 384 356 364 342 347 c 4
 331 334 330 316 330 313 c 4
 329 253 l 5
 332 203 l 5
 332 203 340 177 347 169 c 4
 363 152 384 135 384 135 c 5
 431 106 l 6
 487 82 530 72 565 72 c 4
 595 72 620 80 641 94 c 6
 641 94 657 109 664 134 c 4
 673 157 677 195 677 195 c 5
 677 195 678 198 678 202 c 4xf4
 678 215 676 246 662 279 c 4
 646 307 602 350 602 350 c 5
 602 350 554 387 520 393 c 6
EndSplineSet
Validated: 5
EndChar

StartChar: L
Encoding: 76 76 55
Width: 838
Flags: W
HStem: -4.77539 163.001<606.243 691.072> 715.775 89.6172<19.4395 143.444 406.513 521.839>
VStem: 165.844 178.141<154.201 392.053 392.079 404.364 404.381 654.281>
LayerCount: 2
Fore
SplineSet
16.67578125 46.7138671875 m 1
 23.0634765625 61.5078125 90.072265625 47.5302734375 112.442382812 66.88671875 c 2
 112.442382812 66.88671875 139.776367188 77.3466796875 145.516601562 95.505859375 c 0
 164.579101562 155.813476562 165.84375 334.579101562 165.84375 380.961914062 c 0
 165.84375 388.05859375 165.814453125 392.055664062 165.814453125 392.055664062 c 1
 165.814453125 392.055664062 166.240234375 423.4453125 166.240234375 471.036132812 c 0
 166.240234375 522.108398438 165.749023438 591.83984375 163.713867188 661.45703125 c 0
 162.873046875 690.203125 123.321289062 709.19140625 95.771484375 717.442382812 c 0
 90.115234375 719.135742188 83.50390625 719.612304688 76.4873046875 719.612304688 c 0
 67.4775390625 719.612304688 57.80078125 718.827148438 48.6220703125 718.827148438 c 0
 37.28125 718.827148438 26.701171875 720.025390625 19.080078125 725.385742188 c 0
 13.2607421875 729.478515625 11.6943359375 745.673828125 11.6943359375 761.927734375 c 0
 11.6943359375 780.888671875 13.826171875 799.930664062 13.826171875 799.930664062 c 1
 261.31640625 798.668945312 l 1
 523.922851562 805.392578125 l 1
 523.922851562 805.392578125 529.786132812 776.069335938 529.786132812 752.06640625 c 0
 529.786132812 738.6484375 527.954101562 726.893554688 522.241210938 722.852539062 c 0
 513.643554688 716.771484375 505.49609375 715.775390625 493.625 715.775390625 c 0
 487.844726562 715.775390625 481.180664062 716.01171875 473.153320312 716.01171875 c 0
 467.927734375 716.01171875 462.125 715.911132812 455.610351562 715.581054688 c 0
 422.453125 713.900390625 346.739257812 660.908203125 345.244140625 602.533203125 c 0
 344.078125 556.951171875 343.818359375 500.8671875 343.818359375 460.010742188 c 0
 343.818359375 427.310546875 343.984375 404.364257812 343.984375 404.364257812 c 1
 343.984375 152.092773438 l 1
 343.984375 152.092773438 394.612304688 197.622070312 420.712890625 214.9375 c 0
 446.810546875 232.251953125 469.245117188 254.676757812 500.53515625 256.037109375 c 0
 501.486328125 256.079101562 502.43359375 256.098632812 503.377929688 256.098632812 c 0
 540.836914062 256.098632812 573.26953125 224.0703125 601.928710938 199.509765625 c 0
 630.31640625 175.182617188 647.215820312 158.225585938 674.334960938 158.225585938 c 0
 679.494140625 158.225585938 685.0234375 158.838867188 691.072265625 160.1328125 c 0
 718.977539062 166.099609375 729.5625 195.017578125 746.685546875 217.875 c 0
 764.502929688 241.661132812 780.2578125 264.994140625 797.6015625 271.499023438 c 0
 799.88671875 272.35546875 802.455078125 272.713867188 805.102539062 272.713867188 c 0
 814.138671875 272.713867188 824.09765625 268.537109375 826.893554688 265.741210938 c 0
 829.591796875 263.043945312 835.33984375 254.33984375 835.33984375 243.96875 c 0
 835.33984375 241.415039062 834.9921875 238.76171875 834.1640625 236.071289062 c 0
 826.263671875 210.39453125 793.116210938 172.75390625 731.979492188 127.932617188 c 0
 686.751953125 94.7744140625 645.533203125 -0.154296875 608.989257812 -4.6181640625 c 0
 608.127929688 -4.7236328125 607.211914062 -4.775390625 606.243164062 -4.775390625 c 0
 580.124023438 -4.775390625 516.088867188 32.98046875 478.388671875 82.306640625 c 0
 437.817382812 135.388671875 393.2578125 137.81640625 385.444335938 137.81640625 c 0
 384.658203125 137.81640625 384.243164062 137.791992188 384.243164062 137.791992188 c 1
 328.270507812 85.5712890625 l 2
 300.962890625 60.0947265625 237.771484375 27.7939453125 177.169921875 10.400390625 c 0
 146.6796875 1.6494140625 109.087890625 -9.4541015625 76.2607421875 -9.4541015625 c 0
 56.4404296875 -9.4541015625 38.357421875 -5.40625 24.623046875 5.65234375 c 0
 17.21875 11.61328125 12.900390625 19.42578125 12.900390625 29.146484375 c 0
 12.900390625 34.43359375 14.1787109375 40.28515625 16.931640625 46.7109375 c 1
 16.67578125 46.7138671875 l 1
EndSplineSet
Validated: 1
EndChar

StartChar: F
Encoding: 70 70 56
Width: 612
Flags: W
HStem: 326.106 139.942<417.014 484.864> 326.106 121.894<264.344 483.302> 332.841 114.159<18.2113 134> 343 105<263 457.937> 640.086 159.962<352.032 442.558>
VStem: 137 127<2.5825 338>
LayerCount: 2
Fore
SplineSet
98 -45 m 5x1c
 98 -45 128 -25 130 -0 c 4
 134 54 137 179 137 179 c 5
 134 338 l 5
 134 338 125 338 112 337 c 4
 99.5345651552 336.109611797 82.3123833959 332.840850136 62.4511303914 332.840850136 c 0
 60.0060984147 332.840850136 57.5210713263 332.890388203 55 333 c 4
 42 333 23 333 16 344 c 4
 12.9832491561 348.740608469 12.1952621459 354.595598855 12.1952621459 360.764539589 c 0
 12.1952621459 367.512351028 13.1380711875 374.63579712 13.1380711875 381.087312263 c 0
 13.1380711875 382.423464798 13.0976310729 383.730796052 13 385 c 4
 12.5941725804 390.275756454 12.0236492664 398.845430798 12.0236492664 407.834984307 c 0
 12.0236492664 420.996604118 13.2466193565 435.058274196 18 441 c 4
 22.4444444444 446.555555556 30.9012345679 447.790123457 40.2839506173 447.790123457 c 0
 47.7901234568 447.790123457 55.8888888889 447 63 447 c 4
 71 447 79.8888888889 447.888888889 88.4814814815 447.888888889 c 0
 92.7777777778 447.888888889 97 447.666666667 101 447 c 4x2c
 104.4 446.6 107.8 446.44 111.064 446.44 c 0
 124.12 446.44 135 449 135 449 c 5
 133 468 l 5
 133 468 124 520 120 532 c 4
 116 543 109 591 88 598 c 4
 85.6710390106 598.846894905 84.6868861096 600.321366918 84.6868861096 602.176651964 c 0
 84.6868861096 609.084130912 98.3289609894 621.270342358 107 626 c 4
 166 648 217 684 259 713 c 4
 315 751 354 785 387 796 c 4
 394.889116577 798.817541634 405.001024594 800.047375097 414.651663726 800.047375097 c 0
 422.127016654 800.047375097 429.32560825 799.309475019 435 798 c 4
 460 792 494 760 528 731 c 4
 558 705 580 686 591 670 c 4
 594.189942799 665.037866757 595.495490217 660.326986231 595.495490217 655.51114429 c 0
 595.495490217 646.739727716 591.164495289 637.620114401 586 626 c 4
 579 612 560 597 544 575 c 6
 506 525 l 5
 506 525 500.214876033 516.73553719 496.157776108 516.73553719 c 0
 495.752066116 516.73553719 495.363636364 516.818181818 495 517 c 4
 488 520 481 533 481 533 c 5
 465 584 l 6
 456 613 443 620 417 634 c 6
 417 634 403.423822715 640.085872576 381.076104388 640.085872576 c 0
 370.761772853 640.085872576 358.578947368 638.789473684 345 635 c 4
 323 629 306 618 293 605 c 4
 279 592 269 572 263 555 c 4
 256 537 256 507 256 507 c 5
 256 448 l 5x1c
 377 448 l 5
 377 448 397 445.333333333 416.555555556 445.333333333 c 0
 426.333333333 445.333333333 436 446 443 448 c 4x4c
 455.582433235 451.871517919 478.469564029 466.047733395 483.553677415 466.047733395 c 0
 483.722401281 466.047733395 483.871517919 466.03212052 484 466 c 4
 491 464 499 456 507 443 c 4
 508.060813625 441.408779562 508.48863163 437.777906569 508.48863163 432.965396505 c 0
 508.48863163 419.631419951 505.204389781 397.226338686 503 384 c 4
 501 371 502 366 499 355 c 4
 497 347 492 334 485 329 c 4
 482.236067977 326.788854382 470.610524494 326.105572809 458.400277775 326.105572809 c 0x8c
 448.521980674 326.105572809 438.260990337 326.552786405 432 327 c 4
 401 329 349 342 349 342 c 5
 263 343 l 5
 264 198 l 6
 259 53 257 -12 218 -67 c 4
 204 -87 178 -108 155 -131 c 4
 97.7239302554 -186.879092434 71.672590223 -199.824181513 53.6727279632 -199.824181513 c 0
 45.9028627978 -199.824181513 39.6332495807 -197.412090757 33 -195 c 4
 24.8350341907 -191.734013676 16.6700683814 -179.134694019 16.6700683814 -165.911337892 c 0
 16.6700683814 -162.93945642 17.0824829046 -159.936054705 18 -157 c 4
 35 -99 70 -75 98 -45 c 5x1c
EndSplineSet
Validated: 1
EndChar

StartChar: E
Encoding: 69 69 57
Width: 822
Flags: W
HStem: 1.16707 110.059<302.931 537.425> 355.498 150.765<387.31 597.145> 374.22 108.448<184.225 568.862> 579.713 21G<642.518 652.075> 707.764 93.4031<318.333 567.228>
VStem: 9.45312 174.751<269.275 324.611 375.974 544.413> 650.914 150.346<205.323 298.617>
LayerCount: 2
Fore
SplineSet
224 38 m 4xbe
 146.33984375 88.8740234375 82.298828125 133.787109375 43.2490234375 237.69921875 c 4
 23.6015625 272.078125 13.9111328125 357.756835938 9.453125 413.111328125 c 4
 10.0341796875 443.80078125 9.65625 479.229492188 30.029296875 539.442382812 c 4
 39.78125 583.372070312 68.44140625 624.698242188 94.0849609375 659.844726562 c 4
 174.118164062 749.639648438 240.8671875 778.508789062 354.95703125 797.213867188 c 4
 370.797356639 799.808875826 395.409554853 801.167402918 423.106133668 801.167402918 c 0
 480.272570439 801.167402918 550.579085594 795.379805734 584.014648438 782.731445312 c 4
 637.10546875 762.649414062 681.59765625 729.495117188 726.014648438 720.865234375 c 4
 726.655328993 720.744304104 727.302998181 720.686679564 727.95684011 720.686679564 c 0
 738.290775894 720.686679564 750.166639525 735.08107576 760.36328125 741.440429688 c 4
 765.095141954 744.385843228 765.47032796 744.903743823 767.548655855 744.903743823 c 0
 768.070905017 744.903743823 768.700696203 744.871041863 769.534179688 744.8359375 c 4
 786.733824141 743.995091131 802.487604571 717.677374535 802.487604571 701.570894492 c 0
 802.487604571 700.991503472 802.467218805 700.425326035 802.42578125 699.874023438 c 4
 802.211914062 696.971679688 800.10546875 694.272460938 796.448242188 691.399414062 c 4
 763.077148438 665.368164062 734.438476562 648.3671875 702.48046875 621.026367188 c 4
 687.018927847 607.810224219 660.576922797 579.712662735 643.573936054 579.712662735 c 0
 641.461122351 579.712662735 639.494055373 580.14651374 637.711914062 581.096679688 c 4
 633.997070312 583.127929688 633.6484375 582.547851562 631.47265625 585.217773438 c 4
 629.583968818 587.498188633 629.144070177 593.06623364 629.144070177 599.600958842 c 0
 629.144070177 605.29953115 629.478596339 611.733226931 629.478596339 617.362892753 c 0
 629.478596339 621.04947818 629.335142075 624.391272859 628.860351562 626.956054688 c 4
 620.9375 670.4375 564.59375 690.604492188 523.389648438 699.194335938 c 4
 494.77742861 705.158328936 463.070346371 707.764287145 433.749056906 707.764287145 c 0
 408.279533098 707.764287145 384.610157399 705.79801799 366.333007812 702.358398438 c 4
 326.345703125 694.841796875 280.147460938 672.17578125 242.7421875 633.372070312 c 4
 212.8828125 602.397460938 196.235351562 585.626953125 190.5859375 557.575195312 c 4
 186.432129794 536.972309088 184.20434118 518.177327785 184.20434118 504.567353363 c 0
 184.20434118 491.06654871 186.396533584 482.667903495 191.075484248 482.667903495 c 0xbe
 191.10555861 482.667903495 191.13573571 482.668250476 191.166015625 482.668945312 c 4
 204.036312169 482.986428908 215.483013687 483.11319963 225.857943715 483.11319963 c 0
 266.996294659 483.11319963 291.283648462 481.120038694 320.653609115 481.120038694 c 0
 331.266337243 481.120038694 342.542707374 481.380288081 355.517578125 482.088867188 c 4
 436.396484375 486.64453125 523.903320312 502.432617188 603.647460938 506.262695312 c 4
 605.287831341 506.250123965 606.95285196 506.244313264 608.637841854 506.244313264 c 0
 629.251603383 506.244313264 652.854063924 507.113971149 670.874587042 507.113971149 c 0
 685.365643102 507.113971149 696.247172545 506.551612053 699.0625 504.522460938 c 4
 702.186347484 502.264881237 703.070482992 501.611482445 703.070482992 500.530910062 c 0
 703.070482992 499.694110044 702.540264993 498.601133089 702.109375 496.30859375 c 4
 696.97265625 468.971679688 662.057617188 439.529296875 625.099609375 412.737304688 c 4
 608.463066054 400.672695322 590.58705686 355.497749751 568.864749548 355.497749751 c 0xde
 568.798215495 355.497749751 568.731645359 355.498173563 568.665039062 355.499023438 c 4
 531.30078125 356.079101562 478.133789062 358.458984375 445.052734375 364.291992188 c 4
 397.110351562 372.737304688 357.05859375 371.924804688 307.8671875 373.521484375 c 4
 296.139245154 373.870852367 280.473875687 374.220308917 264.249055091 374.220308917 c 0
 226.59565138 374.220308917 185.929166516 372.338212531 184.470703125 364.205078125 c 4
 181.793303325 349.332744989 180.807616494 337.09196536 180.807616494 325.280913387 c 0
 180.807616494 310.976887239 182.253317169 297.30313994 183.890625 280.348632812 c 4
 188.30078125 234.896484375 207.715820312 207.703125 237.43359375 175.432617188 c 4
 267.354492188 142.92578125 336.625 117.421875 354.75390625 114.44140625 c 4
 373.555833459 111.348174721 386.245700505 110.609857875 399.1402977 110.609857875 c 0
 410.918487816 110.609857875 422.867491893 111.225863018 439.801340025 111.225863018 c 0
 440.681031066 111.225863018 441.574174532 111.224200626 442.481445312 111.220703125 c 4
 496.170898438 114.122070312 520.94921875 118.301757812 570.290039062 139.138671875 c 4
 606.438476562 154.403320312 646.348632812 216.233398438 650.7109375 254.97265625 c 4
 650.852780813 256.381298848 650.913942569 257.930532016 650.913942569 259.585490678 c 0
 650.913942569 269.95651581 648.512075235 284.47945923 648.512075235 294.574184091 c 0
 648.512075235 296.044105276 648.563002241 297.420134552 648.6796875 298.67578125 c 4
 649.549804688 307.962890625 655.412109375 308.74609375 662.14453125 309.006835938 c 4
 684.83984375 309.877929688 723.994140625 313.21484375 749.465820312 314.057617188 c 4
 754.932142056 314.211847598 764.538829982 314.862043447 773.775108275 314.862043447 c 0
 781.849694204 314.862043447 789.641187365 314.365118621 794.135742188 312.60546875 c 4
 800.11328125 310.284179688 801.1875 307.759765625 801.24609375 302.623046875 c 4
 801.255603054 301.700805019 801.260434733 300.772542279 801.260434733 299.838724921 c 0
 801.260434733 272.386492077 797.084732413 240.133767278 784.819335938 214.926757812 c 4
 758.875 161.59765625 734.946289062 132.327148438 699.555664062 100.270507812 c 4
 600.146304909 28.2992199807 483.875609271 1.16707378207 387.883804741 1.16707378207 c 0
 317.444537299 1.16707378207 257.924840259 15.7769150698 224 38 c 4xbe
EndSplineSet
Validated: 1
EndChar

StartChar: S
Encoding: 83 83 58
Width: 722
Flags: W
HStem: -9.53049 104.387<270.789 486.715> 200.845 51.9382<6.80289 52.6479> 302.722 172.568<251.211 354.459> 339.862 174.666<427.362 520.842> 339.862 135.427<340.709 437.538> 717.885 82.6581<284.456 441.412>
VStem: 64.1895 147.011<514.275 634.226> 554.716 149.937<161.19 307.364>
LayerCount: 2
Fore
SplineSet
19.33203125 200.852539062 m 6xd7
 10.8491164375 201.10766432 6.01385826374 211.889970007 6.01385826374 223.399933136 c 0
 6.01385826374 236.492323126 12.2700445164 250.52620586 26.5302734375 251.079101562 c 4
 53.8914867617 252.139946892 108.94971487 252.782966679 155.621252593 252.782966679 c 0
 178.937325866 252.782966679 200.160264268 252.622482975 214.791015625 252.2734375 c 4
 222.971694309 252.07827125 224.221334096 237.915453431 224.221334096 220.11034142 c 0
 224.221334096 212.277772027 223.979507576 203.740356856 223.979507576 195.377085462 c 0
 223.979507576 184.034450729 224.424322592 173.012135567 226.520507812 164.502929688 c 4
 234.513671875 132.055664062 264.178838171 114.149134388 301.895507812 107.262695312 c 4
 334.884696456 101.239415953 355.133175033 94.8562991882 380.029378136 94.8562991882 c 0
 387.352161833 94.8562991882 395.07703857 95.4085278763 403.646484375 96.6845703125 c 4
 448.504882812 103.364257812 490.480189823 106.950426701 520.638671875 143.3046875 c 4
 536.097447808 161.939324713 554.716146113 196.72491655 554.716146113 227.248277896 c 0
 554.716146113 228.054686752 554.703150548 228.858120637 554.676757812 229.658203125 c 4
 553.484375 265.8046875 552.66753711 297.186850387 517.538085938 320.529296875 c 4
 498.794548208 332.983804756 465.817969138 339.862454251 432.911800698 339.862454251 c 0xd7
 412.759051896 339.862454251 392.632712108 337.28246955 375.818359375 331.823242188 c 4
 329.570604104 316.807676912 318.60749043 302.721897028 274.455542086 302.721897028 c 0
 272.189756053 302.721897028 269.836566274 302.758992333 267.38671875 302.834960938 c 4
 228.934570312 304.02734375 191.077941901 299.346503218 157.747070312 333.9296875 c 4
 129.15625 363.594726562 123.338454519 369.425544591 102.82421875 405.197265625 c 4
 83.5642739251 438.781815454 64.189463807 491.822292997 64.189463807 538.986176849 c 0
 64.189463807 546.547385583 64.6874310638 553.957555353 65.763671875 561.112304688 c 4
 73.9541015625 615.561523438 78.2913213971 631.54838446 118.08984375 681.64453125 c 4
 144.056640625 714.330078125 231.794122237 771.587335551 281.897460938 787.557617188 c 4
 312.920221303 797.446024488 339.809005288 800.543437503 365.829040555 800.543437503 c 0
 383.758498687 800.543437503 401.275467465 799.072759197 419.448242188 797.33984375 c 4
 464.908203125 793.004882812 511.333164933 783.938000339 557.420898438 769.46484375 c 4
 593.129882812 758.250976562 634.566430495 741.348668142 658.321289062 725.046875 c 4
 662.376953125 722.263671875 661.706534961 724.290930129 662.775390625 718.087890625 c 4
 663.029439677 716.613532243 663.176623482 715.417188901 663.176623482 714.358286633 c 0
 663.176623482 712.103873739 662.509486238 710.472437398 660.786132812 708.107421875 c 4
 644.443359375 685.6796875 624.72706729 659.347053552 598.98828125 637.790039062 c 4
 570.833984375 614.209960938 547.268133422 607.964682286 523.915039062 596.5703125 c 4
 520.454692884 594.881951063 520.296631822 594.360847421 518.232481081 594.360847421 c 0
 517.379879877 594.360847421 516.202077284 594.449753851 514.33203125 594.58203125 c 4
 509.002929688 594.958984375 511.69399759 595.094450461 508.088867188 599.512695312 c 4
 484.110351562 628.899414062 460.52930062 676.738114667 440.345703125 701.165039062 c 4
 430.046196884 713.629876429 410.634521783 717.885354017 389.078388775 717.885354017 c 0
 357.203521677 717.885354017 320.639737183 708.580632844 301.915039062 702.754882812 c 4
 244.145507812 684.78125 219.164291566 646.177822468 213.807617188 600.721679688 c 4
 212.083951085 586.094840912 211.20064767 574.666755648 211.20064767 565.346775983 c 0
 211.20064767 535.750651692 220.108021198 527.413002916 239.297851562 505.408203125 c 4
 249.596679688 493.598632812 290.806705316 482.077497509 313.176757812 477.931640625 c 4
 323.020364792 476.107318319 332.81424711 475.289521521 342.50929081 475.289521521 c 0xe7
 379.091440563 475.289521521 414.266358744 486.933041968 445.395507812 500.081054688 c 4
 468.005625751 509.630885863 487.002432105 514.528301928 507.556534504 514.528301928 c 0
 529.108904268 514.528301928 552.373512334 509.143620323 583.311523438 498.091796875 c 4
 619.935546875 485.008789062 644.577428251 443.576031904 661.8125 417.69140625 c 4
 683.365234375 385.322265625 699.137769086 335.440437686 703.411132812 296.025390625 c 4
 704.255957402 288.233214929 704.653217909 280.188551389 704.653217909 272.010773473 c 0
 704.653217909 225.143839931 691.605401247 173.904833299 674.978515625 140.763671875 c 4
 657.243164062 105.413085938 626.823429909 72.0300114703 592.872070312 47.701171875 c 4
 553.030273438 19.1513671875 544.097537574 15.6703467227 488 0 c 4
 460.652505136 -7.63927874633 429.034738796 -9.53049319406 398.559353852 -9.53049319406 c 0
 382.394196169 -9.53049319406 366.550458277 -8.99838215663 351.8359375 -8.509765625 c 4
 315.927734375 -7.3173828125 267.692246363 -4.93984723158 218.51171875 12.087890625 c 4
 105.95703125 51.0576171875 67.1422356524 199.414638178 19.591796875 200.844726562 c 6
 19.33203125 200.852539062 l 6xd7
EndSplineSet
Validated: 1
EndChar

StartChar: P
Encoding: 80 80 59
Width: 828
Flags: W
HStem: 166.375 72.0189<412.525 556.514> 671.175 67.1101<25.6772 102.064> 734.983 74.542<338.285 522.229>
VStem: 102.286 158.751<103.467 360.451 360.516 650.912> 283.262 64.0699<308.854 448.793> 634.202 171.574<374.527 613.101>
LayerCount: 2
Fore
SplineSet
102.501953125 360.515625 m 6xbc
 102.905991443 420.195307709 103.310029762 484.876667149 103.310029762 545.635074637 c 0
 103.310029762 587.967721877 103.113892257 628.39600022 102.584960938 663.901367188 c 4
 102.478515625 671.201660156 93.859375 672.889648438 83.4465332031 672.889648438 c 0
 74.4886648214 672.889648438 64.2033380837 671.640424663 56.8682545586 671.640424663 c 0
 55.6768604598 671.640424663 54.5632984313 671.673381157 53.5458984375 671.75 c 4
 52.6402647552 671.81140779 51.7219765671 671.837061703 50.7961084201 671.837061703 c 0
 46.0926966673 671.837061703 41.1936733327 671.175026109 36.7642944751 671.175026109 c 0
 32.3315684178 671.175026109 28.369196909 671.838062657 25.5439453125 674.491210938 c 4
 20.8592862143 678.949797232 18.7535699469 691.742193043 18.7535699469 704.712775605 c 0
 18.7535699469 721.157305275 22.1382981543 737.888252318 27.943359375 738.28515625 c 4xdc
 68.3359375 741.02734375 81.0234375 740.340820312 115.426757812 747.813476562 c 4
 144.661132812 754.220703125 196.875 764.05859375 244.994140625 768.685546875 c 4
 285.317435732 772.58783271 366.561455644 809.525505054 430.157802797 809.525505054 c 0
 430.222407597 809.525505054 430.286994185 809.525466935 430.3515625 809.525390625 c 4
 464.796875 809.484375 514.4453125 804.760742188 548.159179688 797.701171875 c 4
 581.884765625 790.640625 612.209960938 780.290039062 642.03515625 763.036132812 c 4
 676.78125 742.952148438 715.421875 711.91796875 742.161132812 681.991210938 c 4
 768.895507812 652.069335938 791.830078125 624.538085938 802.610351562 576.688476562 c 4
 804.818663289 560.546318773 805.775912047 543.266070256 805.775912047 525.720314367 c 0
 805.775912047 470.842564428 796.411656895 413.367497176 786.672851562 379.993164062 c 4
 769.125 334.91015625 751.599609375 307.950195312 718.916992188 272.2890625 c 4
 686.220703125 236.627929688 651.06640625 207.529296875 606.524414062 188.665039062 c 4
 574.166901656 174.969275737 540.354828189 166.374546834 505.344436624 166.374546834 c 0
 503.383434049 166.374546834 501.418671935 166.40151147 499.450195312 166.456054688 c 4
 462.33984375 167.484375 417.139648438 178.383789062 383.853515625 194.833984375 c 4
 358.559570312 207.310546875 341.158203125 220.813476562 323.415039062 242.713867188 c 4
 305.661132812 264.615234375 299.869140625 296.0546875 292.020507812 323.130859375 c 4
 285.393113141 345.970792514 283.262378162 370.93356324 283.262378162 394.852958662 c 0
 283.262378162 396.16603349 283.268799241 397.475964054 283.28125 398.782226562 c 4
 283.538085938 425.104492188 281.568359375 478.333984375 296.784179688 495.313476562 c 4
 299.593935272 498.405164261 311.651805344 499.037661211 325.902298836 499.037661211 c 0
 335.770831446 499.037661211 346.690864356 498.734339296 356.319273552 498.734339296 c 0
 359.756771818 498.734339296 363.029638974 498.773000884 366.03125 498.877929688 c 4
 377.676432292 499.334960938 386.122938368 499.6015625 392.571325231 499.6015625 c 0
 405.468098958 499.6015625 410.372395833 498.53515625 416.888671875 495.79296875 c 4
 418.54738427 495.027772697 419.208836005 492.405533865 419.208836005 489.170865796 c 0
 419.208836005 483.715746619 417.327583014 476.518800682 415.17578125 473.549804688 c 4
 410.102539062 465.873046875 398.040039062 469.025390625 393.34375 465.873046875 c 4
 384.055664062 459.634765625 375.212890625 455.967773438 364.657226562 445.411132812 c 4
 351.392578125 432.147460938 348.856445312 418.952148438 347.86328125 405.208007812 c 4
 347.527312064 400.139635065 347.332303919 395.011541511 347.332303919 389.830381338 c 0
 347.332303919 352.722804136 357.335157536 312.893199046 397.196289062 272.786132812 c 4
 432.024414062 237.940429688 463.775390625 239.780273438 497.33984375 238.4375 c 4
 498.120442866 238.408114512 498.906654507 238.393450937 499.698118731 238.393450937 c 0
 526.603276011 238.393450937 559.57833106 255.338715508 584.483398438 286.9375 c 4
 617.751563836 329.138514407 634.202211439 382.271945811 634.202211439 454.048440699 c 0
 634.202211439 488.242909802 630.468590381 526.668588282 623.041015625 570.159179688 c 4
 617.556640625 602.204101562 610.256835938 626.141601562 591.166015625 652.459960938 c 4
 574.40625 675.526367188 549.838867188 695.576171875 525.9921875 711.1953125 c 4
 502.137695312 726.82421875 497.33984375 728.091796875 469.235351562 732.85546875 c 4
 460.648162642 734.30913359 449.141109515 734.983461322 436.83138985 734.983461322 c 0
 414.896741928 734.983461322 390.41350287 732.842365859 375.360351562 729.154296875 c 4
 351.848632812 723.258789062 328.45703125 710.954101562 310.7109375 694.28515625 c 4
 283.53125 669.025390625 276.676757812 633.520507812 270.764648438 605.375976562 c 4
 262.709960938 567.180664062 261.338867188 567.53125 261.271484375 516.909179688 c 4
 261.241531095 491.776898255 261.03752148 462.639080677 261.03752148 432.856855188 c 0
 261.03752148 383.989245359 261.586782192 333.386678337 264.35546875 295.897460938 c 4
 266.068359375 271.768554688 266.75390625 235.856445312 267.440429688 206.301757812 c 4
 268.810546875 154.796875 271.00390625 123.67578125 288.997070312 91.36328125 c 4
 308.979492188 71.1416015625 346.340820312 64.5947265625 351.37890625 53.1416015625 c 4
 351.890840072 48.4150862553 352.126737624 42.8498127776 352.126737624 37.1522376246 c 0
 352.126737624 19.9604000884 349.978966959 1.56399873061 346.786132812 1.37109375 c 4
 324.212347993 -0.0899357513876 275.97936954 -0.474371056733 227.939736975 -0.474371056733 c 0
 174.575889275 -0.474371056733 121.450619281 5.55111512313e-17 104 0 c 4
 102.382649994 36.7772958367 101.859287727 71.896479747 101.859287727 105.861849329 c 0
 101.859287727 168.166088185 103.620310242 226.58794358 103.620310242 284.240068099 c 0
 103.620310242 309.70453126 103.276749663 335.018826445 102.286132812 360.451171875 c 6
 102.501953125 360.515625 l 6xbc
EndSplineSet
Validated: 1
EndChar

StartChar: D
Encoding: 68 68 60
Width: 982
Flags: W
HStem: -39 74.8754<448.514 603.826> 26.2299 680.77<159.559 306.423> 614 93<13.0478 123.799> 701.366 84.016<425.441 566.867>
VStem: 146.533 217.095<112.895 590.941> 743.857 216.62<270.812 479.979>
LayerCount: 2
Fore
SplineSet
569 780 m 6x1c
 599 773 l 6
 637 763 661 750 696 732 c 4
 763 694 816 650 867 592 c 4
 916 536 939 491 951 443 c 4
 957.484623931 417.442952742 960.477177479 394.359455339 960.477177479 372.528466639 c 0
 960.477177479 337.127638684 952.608133736 305.020334341 939 271 c 4
 912 202 910 204 831 115 c 4
 781 58 766 40 696 0 c 4
 653 -25 602 -39 548 -39 c 4x9c
 512 -39 475 -38 441 -31 c 4
 370 -17 340 0 306 19 c 4
 296.491532777 24.2143207352 284.536983689 26.2299190317 271.348333565 26.2299190317 c 0x4c
 241.538659747 26.2299190317 205.424285286 15.9327525087 177 9 c 4
 140 0 101 -13 73 -39 c 4
 64.6849349304 -47.3150650696 59.6427838069 -49.9025307335 55.5184463231 -49.9025307335 c 0
 53.194681857 -49.9025307335 51.1622776602 -49.0811388301 49 -48 c 4
 41 -45 37 -49 31 -36 c 4
 28.9083269132 -30.770817283 28.0319583547 -27.1215304528 28.0319583547 -23.9929646036 c 0
 28.0319583547 -18.1471858414 31.0916730868 -14.1194294641 35 -5 c 4
 58 45 123 67 138 117 c 4
 145.102084238 141.037823576 146.533444157 164.777187977 146.533444157 190.826932835 c 0
 146.533444157 208.417570086 145.880757027 227.061719854 145.880757027 247.562689377 c 0
 145.880757027 252.273821382 145.915224289 257.083008783 146 262 c 4
 146.607625219 313.040518355 147.584458843 376.63412252 147.584458843 434.609245078 c 0
 147.584458843 472.046756479 147.177124344 507.141390514 146 535 c 4
 144 576 121 611 86 614 c 4
 21.134976424 618.63321597 11.7255692549 619.092353285 11.7255692549 640.702827027 c 0
 11.7255692549 647.077848306 12.5444053232 655.293525096 13 666 c 4
 12.2294216015 684.493881564 10.2712610666 694.377792638 10.2712610666 699.712601036 c 0
 10.2712610666 708.224036987 15.2557003719 705.155867598 38 707 c 4xac
 92 711 227 706 270 717 c 4
 334 734 374 760 437 775 c 4
 459.062113274 780.191085476 490.808437074 785.382170952 521.583585423 785.382170952 c 0
 538.23612593 785.382170952 554.604313065 783.86225747 569 780 c 6x1c
433 685 m 4
 391.602546685 659.006250244 366.888427355 608.9143514 366.888427355 532.939684501 c 0
 366.888427355 529.998611057 366.925462945 527.018750732 367 524 c 4
 365.5 483 365.25 447.25 365.25 412.375 c 0
 365.25 394.9375 365.3125 377.71875 365.3125 360.171875 c 0
 365.3125 342.625 365.25 324.75 365 306 c 4
 364.660357457 271.356460572 363.628572569 243.518987525 363.628572569 219.784149518 c 0
 363.628572569 173.637170694 367.528918846 142.998945199 388 108 c 4
 434.010309552 58.155497985 468.076030734 35.8754306718 547.444476921 35.8754306718 c 0
 550.87672158 35.8754306718 554.393686064 35.9170962313 558 36 c 4
 619 52 668 110 692 148 c 4
 706 170 721 193 736 241 c 4
 740.942927499 268.622241904 743.856855779 299.626149171 743.856855779 332.266445043 c 0
 743.856855779 411.884528437 726.519050447 501.239085873 679 575 c 4
 653 611 612 660 546 690 c 4
 528.379166495 697.971329443 514.806721192 701.366220048 501.147245282 701.366220048 c 0
 482.248784129 701.366220048 463.183729946 694.867757867 433 685 c 4
EndSplineSet
Validated: 1
EndChar

StartChar: R
Encoding: 82 82 61
Width: 920
Flags: W
HStem: -13.324 154.293<744.981 818.591> 339.949 22.5371<278.569 301.623> 693.782 98.6051<378.455 518.609>
VStem: 98.415 173.65<103.341 314.913 365.457 572.188> 550.257 188.597<529.464 663.727>
LayerCount: 2
Fore
SplineSet
541.211914062 788.734375 m 1
 541.111328125 788.666015625 l 1
 579.596679688 782.1015625 619.772460938 769.791992188 664.4765625 741.420898438 c 2
 664.4765625 741.420898438 700.208984375 712.116210938 715.140625 694.649414062 c 0
 732.907088731 673.889147473 738.854187465 641.258130068 738.854187465 613.029336327 c 0
 738.854187465 606.018801299 738.487392948 599.279778747 737.84375 593.061523438 c 0
 735.745117188 572.674804688 731.741210938 545.736328125 722.23046875 531.014648438 c 0
 704.157226562 503.015625 691.708984375 494.305664062 662.388671875 470.35546875 c 0
 627.299804688 441.693359375 588.965820312 435.821289062 580.276367188 420.9609375 c 0
 578.020507812 417.096679688 580.749023438 424.369140625 587.270507812 414.893554688 c 0
 596.7890625 401.0546875 611.806640625 404.025390625 670.169921875 321.451171875 c 0
 694.547851562 286.96484375 711.311523438 239.185546875 727.537109375 205.213867188 c 0
 742.650390625 173.579101562 744.467773438 158.232421875 777.5859375 146.728515625 c 0
 789.503474928 142.621109916 799.913042555 140.968968394 809.886179012 140.968968394 c 0
 820.803122914 140.968968394 831.197123766 142.948606846 842.473632812 145.854492188 c 0
 863.618164062 151.299804688 868.805664062 168.862304688 881.586914062 174.159179688 c 0
 883.771036381 175.065649382 885.832365016 175.477543698 887.772419175 175.477543698 c 0
 896.28061957 175.477543698 902.456344293 167.555567894 906.427734375 158.685546875 c 0
 907.364073279 156.603104155 907.732379319 153.69478324 907.732379319 150.407663997 c 0
 907.732379319 138.284446464 902.72265625 121.008789062 902.72265625 121.008789062 c 2
 894.331054688 104.821289062 882.715820312 64.5458984375 837.611328125 23.6533203125 c 0
 828.750498326 10.8305864875 783.340383945 -13.3239710697 746.580444946 -13.3239710697 c 0
 743.381857536 -13.3239710697 740.248762661 -13.1410911722 737.2109375 -12.751953125 c 0
 714.34765625 -9.8291015625 672.0546875 0.0166015625 641.359375 22.7041015625 c 0
 584.7734375 64.5322265625 588.345703125 113.79296875 529.03515625 200.225585938 c 0
 500.506835938 241.801757812 446.731445312 305.676757812 446.731445312 305.676757812 c 1
 446.731445312 305.676757812 433.1953125 318.620117188 427.741210938 324.825195312 c 0
 423.200195312 329.966796875 408.844726562 334.005859375 408.844726562 334.005859375 c 1
 408.844726562 334.005859375 368.819149315 339.963339465 344.962288862 339.963339465 c 0
 344.297850313 339.963339465 343.645953527 339.958718361 343.0078125 339.94921875 c 0
 319.708007812 339.669921875 305.413085938 339.65234375 288.767578125 333.411132812 c 0
 278.80078125 329.686523438 277.420898438 328.655273438 274.063476562 323.864257812 c 0
 272.349609375 321.364257812 272 314.913085938 272 314.913085938 c 1
 272 218 l 1
 272 103.340820312 l 1
 272 103.340820312 277.776367188 69.509765625 290.400390625 56.88671875 c 0
 303.05078125 44.2626953125 320.096679688 54.736328125 329.711914062 43.2138671875 c 0
 334.891442972 37.0067114635 336.109010614 25.9449125891 336.109010614 16.9156027794 c 0
 336.109010614 8.90378162758 335.150390625 2.4921875 335.150390625 2.4921875 c 1
 185.071289062 0.5693359375 l 1
 28.8544921875 2.142578125 l 1
 29.3798828125 36.4365234375 l 2
 29.4951171875 45.2578125 44.1181640625 49.62890625 62.44140625 54.03515625 c 2
 62.44140625 54.03515625 82.662109375 53.037109375 91.1416015625 61.23828125 c 0
 97.6518643759 67.5363639532 98.9034538 80.3458193628 98.9034538 89.2651255517 c 0
 98.9034538 94.8369126143 98.4150390625 98.890625 98.4150390625 98.890625 c 1
 98.4150390625 313.506835938 l 1
 98.4150390625 572.188476562 l 1
 98.4150390625 572.188476562 90.205078125 593.004882812 80.150390625 594.229492188 c 0
 61.599609375 596.362304688 36.6435546875 607.76171875 27.5693359375 610.296875 c 0
 11.7718730368 614.711191569 5.23318959537 623.201102184 5.23318959537 628.371052292 c 0
 5.23318959537 630.40316017 6.24339834802 631.922343207 8.0986328125 632.479492188 c 0
 20.69140625 636.256835938 73.7685546875 646.327148438 73.7685546875 646.327148438 c 1
 209.6015625 685.8359375 l 2
 333.462414496 767.750527754 428.304409369 792.386995995 497.057012748 792.386995995 c 0
 513.201196688 792.386995995 527.906854188 791.028581371 541.211914062 788.734375 c 1
507.41015625 678.471679688 m 2
 507.40234375 678.474609375 l 2
 483.488462307 687.969917848 455.746908049 693.781888669 422.169386921 693.781888669 c 0
 418.588947651 693.781888669 414.942151161 693.715804294 411.2265625 693.581054688 c 0
 374.717773438 686.748046875 346.983398438 688.1484375 320.159179688 670.05078125 c 2
 272.065429688 637.600585938 l 1
 272.065429688 501.529296875 l 1
 272.065429688 365.45703125 l 1
 272.065429688 365.45703125 281.314453125 362.34765625 285.790039062 362.486328125 c 0
 291.174804688 362.677734375 301.630859375 366.524414062 301.630859375 366.524414062 c 1
 389.829101562 415.829101562 l 2
 446.555664062 445.1640625 506.881835938 488.380859375 523.963867188 521.604492188 c 0
 543.569646197 554.909043938 550.257452843 577.137671688 550.257452843 596.829499052 c 0
 550.257452843 614.042098857 545.147644489 629.316460239 539.088867188 648.35546875 c 0
 534.669921875 662.245117188 518.111328125 673.313476562 507.41015625 678.471679688 c 2
EndSplineSet
Validated: 1
EndChar

